SplineFontDB: 3.2
FontName: simple_mood
FullName: simple_mood
FamilyName: simple_mood
Weight: Book
Copyright: Copyright (c) 2022, drestin
Version: 1.0
ItalicAngle: 0
UnderlinePosition: -100
UnderlineWidth: 50
Ascent: 800
Descent: 224
InvalidEm: 0
sfntRevision: 0x00010000
LayerCount: 2
Layer: 0 1 "Back" 1
Layer: 1 1 "Fore" 0
XUID: [1021 196 1797966545 10915294]
StyleMap: 0x0000
FSType: 0
OS2Version: 4
OS2_WeightWidthSlopeOnly: 0
OS2_UseTypoMetrics: 1
CreationTime: 1646563535
ModificationTime: 1676468992
PfmFamily: 17
TTFWeight: 400
TTFWidth: 5
LineGap: 90
VLineGap: 0
Panose: 2 0 5 9 0 0 0 0 0 0
OS2TypoAscent: 800
OS2TypoAOffset: 0
OS2TypoDescent: -224
OS2TypoDOffset: 0
OS2TypoLinegap: 90
OS2WinAscent: 800
OS2WinAOffset: 0
OS2WinDescent: 224
OS2WinDOffset: 0
HheadAscent: 800
HheadAOffset: 0
HheadDescent: -224
HheadDOffset: 0
OS2SubXSize: 650
OS2SubYSize: 700
OS2SubXOff: 0
OS2SubYOff: 140
OS2SupXSize: 650
OS2SupYSize: 700
OS2SupXOff: 0
OS2SupYOff: 480
OS2StrikeYSize: 49
OS2StrikeYPos: 258
OS2CapHeight: 672
OS2XHeight: 480
OS2Vendor: 'PfEd'
OS2CodePages: 40000000.c0140000
OS2UnicodeRanges: 8000008b.000078e3.00000000.00000000
MarkAttachClasses: 1
DEI: 91125
ShortTable: cvt  2
  33
  633
EndShort
ShortTable: maxp 16
  1
  0
  257
  356
  48
  0
  0
  2
  0
  1
  1
  0
  64
  0
  0
  0
EndShort
LangName: 1033 "" "" "Medium" "FontForge 2.0 : simple_mood : 6-3-2022" "" "1.0"
GaspTable: 1 65535 2 0
Encoding: UnicodeBmp
UnicodeInterp: none
NameList: AGL For New Fonts
DisplaySize: -48
AntiAlias: 1
FitToEm: 0
WinInfo: 60 12 14
Grid
-256 -256 m 1
1024 -256 l 1
-256 -192 m 1
1024 -192 l 1
-256 -128 m 1
1024 -128 l 1
-256 -64 m 1
1024 -64 l 1
-256 0 m 1
1024 0 l 1
-256 64 m 1
1024 64 l 1
-256 128 m 1
1024 128 l 1
-256 192 m 1
1024 192 l 1
-256 256 m 1
1024 256 l 1
-256 320 m 1
1024 320 l 1
-256 384 m 1
1024 384 l 1
-256 448 m 1
1024 448 l 1
-256 512 m 1
1024 512 l 1
-256 576 m 1
1024 576 l 1
-256 640 m 1
1024 640 l 1
-256 704 m 1
1024 704 l 1
-256 768 m 1
1024 768 l 1
-256 832 m 1

StartChar: .notdef
Encoding: 65536 -1 0
Width: 1024
GlyphClass: 1
Flags: W
LayerCount: 2
Fore
SplineSet
66 65 m 1,0,-1
 265 65 l 1,1,-1
 265 665 l 1,2,-1
 66 665 l 1,3,-1
 66 65 l 1,0,-1
33 32 m 1,4,-1
 33 698 l 1,5,-1
 298 698 l 1,6,-1
 298 32 l 1,7,-1
 33 32 l 1,4,-1
EndSplineSet
Validated: 1
EndChar

StartChar: exclam
Encoding: 33 33 4
Width: 1024
GlyphClass: 2
Flags: WO
LayerCount: 2
Fore
SplineSet
320 0 m 1,0,-1
 320 128 l 1,1,-1
 384 128 l 1,2,-1
 384 192 l 1,3,-1
 640 192 l 1,4,-1
 640 128 l 1,5,-1
 704 128 l 1,6,-1
 704 0 l 1,7,-1
 640 0 l 1,8,-1
 640 -64 l 1,9,-1
 384 -64 l 1,10,-1
 384 0 l 1,11,-1
 320 0 l 1,0,-1
320 320 m 1,12,-1
 320 640 l 1,13,-1
 384 640 l 1,14,-1
 384 704 l 1,15,-1
 640 704 l 1,16,-1
 640 640 l 1,17,-1
 704 640 l 1,18,-1
 704 320 l 1,19,-1
 640 320 l 1,20,-1
 640 256 l 1,21,-1
 384 256 l 1,22,-1
 384 320 l 1,23,-1
 320 320 l 1,12,-1
EndSplineSet
Validated: 1
EndChar

StartChar: quotedbl
Encoding: 34 34 5
Width: 1024
GlyphClass: 2
Flags: W
LayerCount: 2
Fore
SplineSet
128 320 m 1,0,-1
 128 640 l 1,1,-1
 192 640 l 1,2,-1
 192 704 l 1,3,-1
 320 704 l 1,4,-1
 384 704 l 1,5,-1
 384 640 l 1,6,-1
 448 640 l 1,7,-1
 448 320 l 1,8,-1
 384 320 l 1,9,-1
 384 256 l 1,10,-1
 320 256 l 1,11,-1
 256 256 l 1,12,-1
 192 256 l 1,13,-1
 192 320 l 1,14,-1
 128 320 l 1,0,-1
576 320 m 1,15,-1
 576 640 l 1,16,-1
 640 640 l 1,17,-1
 640 704 l 1,18,-1
 768 704 l 1,19,-1
 832 704 l 1,20,-1
 832 640 l 1,21,-1
 896 640 l 1,22,-1
 896 320 l 1,23,-1
 832 320 l 1,24,-1
 832 256 l 1,25,-1
 768 256 l 1,26,-1
 704 256 l 1,27,-1
 640 256 l 1,28,-1
 640 320 l 1,29,-1
 576 320 l 1,15,-1
EndSplineSet
Validated: 1
EndChar

StartChar: numbersign
Encoding: 35 35 6
Width: 1024
GlyphClass: 2
Flags: W
LayerCount: 2
Fore
SplineSet
640 448 m 1,0,-1
 384 448 l 1,1,-1
 384 192 l 1,2,-1
 640 192 l 1,3,-1
 640 448 l 1,0,-1
64 0 m 1,4,-1
 64 192 l 1,5,-1
 192 192 l 1,6,-1
 192 448 l 1,7,-1
 64 448 l 1,8,-1
 64 640 l 1,9,-1
 192 640 l 1,10,-1
 192 768 l 1,11,-1
 384 768 l 1,12,-1
 384 640 l 1,13,-1
 640 640 l 1,14,-1
 640 768 l 1,15,-1
 832 768 l 1,16,-1
 832 640 l 1,17,-1
 960 640 l 1,18,-1
 960 448 l 1,19,-1
 832 448 l 1,20,-1
 832 192 l 1,21,-1
 960 192 l 1,22,-1
 960 0 l 1,23,-1
 832 0 l 1,24,-1
 832 -128 l 1,25,-1
 640 -128 l 1,26,-1
 640 0 l 1,27,-1
 384 0 l 1,28,-1
 384 -128 l 1,29,-1
 192 -128 l 1,30,-1
 192 0 l 1,31,-1
 64 0 l 1,4,-1
EndSplineSet
Validated: 1
EndChar

StartChar: dollar
Encoding: 36 36 7
Width: 1024
GlyphClass: 2
Flags: W
LayerCount: 2
Fore
SplineSet
128 64 m 1,0,-1
 128 192 l 1,1,-1
 384 192 l 1,2,-1
 384 128 l 1,3,-1
 640 128 l 1,4,-1
 640 256 l 1,5,-1
 192 256 l 1,6,-1
 192 320 l 1,7,-1
 128 320 l 1,8,-1
 128 384 l 1,9,-1
 128 512 l 1,10,-1
 128 576 l 1,11,-1
 192 576 l 1,12,-1
 192 640 l 1,13,-1
 320 640 l 1,14,-1
 320 768 l 1,15,-1
 448 768 l 1,16,-1
 448 640 l 1,17,-1
 576 640 l 1,18,-1
 576 768 l 1,19,-1
 704 768 l 1,20,-1
 704 640 l 1,21,-1
 832 640 l 1,22,-1
 832 576 l 1,23,-1
 896 576 l 1,24,-1
 896 448 l 1,25,-1
 640 448 l 1,26,-1
 640 512 l 1,27,-1
 384 512 l 1,28,-1
 384 384 l 1,29,-1
 768 384 l 1,30,-1
 832 384 l 1,31,-1
 832 320 l 1,32,-1
 896 320 l 1,33,-1
 896 64 l 1,34,-1
 832 64 l 1,35,-1
 832 0 l 1,36,-1
 768 0 l 1,37,-1
 704 0 l 1,38,-1
 704 -128 l 1,39,-1
 640 -128 l 1,40,-1
 576 -128 l 1,41,-1
 576 0 l 1,42,-1
 448 0 l 1,43,-1
 448 -128 l 1,44,-1
 320 -128 l 1,45,-1
 320 0 l 1,46,-1
 192 0 l 1,47,-1
 192 64 l 1,48,-1
 128 64 l 1,0,-1
EndSplineSet
Validated: 1
EndChar

StartChar: percent
Encoding: 37 37 8
Width: 1024
GlyphClass: 2
Flags: W
LayerCount: 2
Fore
SplineSet
128 448 m 1,0,-1
 128 640 l 1,1,-1
 192 640 l 1,2,-1
 192 704 l 1,3,-1
 320 704 l 1,4,-1
 384 704 l 1,5,-1
 384 640 l 1,6,-1
 448 640 l 5,7,-1
 448 448 l 5,8,-1
 384 448 l 1,9,-1
 384 384 l 1,10,-1
 320 384 l 1,11,-1
 256 384 l 1,12,-1
 192 384 l 1,13,-1
 192 448 l 1,14,-1
 128 448 l 1,0,-1
384 384 m 1,15,-1
 448 384 l 1,16,-1
 448 448 l 5,17,-1
 512 448 l 5,18,-1
 512 512 l 1,19,-1
 576 512 l 1,20,-1
 576 576 l 1,21,-1
 640 576 l 1,22,-1
 640 640 l 1,23,-1
 704 640 l 1,24,-1
 704 704 l 1,25,-1
 832 704 l 1,26,-1
 832 640 l 1,27,-1
 896 640 l 1,28,-1
 896 576 l 1,29,-1
 896 512 l 1,30,-1
 832 512 l 1,31,-1
 832 448 l 1,32,-1
 768 448 l 1,33,-1
 768 384 l 1,34,-1
 704 384 l 1,35,-1
 704 320 l 1,36,-1
 640 320 l 1,37,-1
 640 256 l 1,38,-1
 768 256 l 1,39,-1
 832 256 l 1,40,-1
 832 192 l 1,41,-1
 896 192 l 1,42,-1
 896 0 l 1,43,-1
 832 0 l 1,44,-1
 832 -64 l 1,45,-1
 768 -64 l 1,46,-1
 704 -64 l 1,47,-1
 640 -64 l 1,48,-1
 640 0 l 1,49,-1
 576 0 l 1,50,-1
 576 192 l 1,51,-1
 512 192 l 1,52,-1
 512 128 l 1,53,-1
 448 128 l 1,54,-1
 448 64 l 1,55,-1
 384 64 l 1,56,-1
 384 0 l 1,57,-1
 320 0 l 1,58,-1
 320 -64 l 1,59,-1
 192 -64 l 1,60,-1
 192 0 l 1,61,-1
 128 0 l 1,62,-1
 128 64 l 1,63,-1
 128 128 l 1,64,-1
 192 128 l 1,65,-1
 192 192 l 1,66,-1
 256 192 l 1,67,-1
 256 256 l 1,68,-1
 320 256 l 1,69,-1
 320 320 l 1,70,-1
 384 320 l 1,71,-1
 384 384 l 1,15,-1
576 192 m 1,72,-1
 640 192 l 1,73,-1
 640 256 l 1,74,-1
 576 256 l 1,75,-1
 576 192 l 1,72,-1
EndSplineSet
Validated: 5
EndChar

StartChar: ampersand
Encoding: 38 38 9
Width: 1024
GlyphClass: 2
Flags: W
LayerCount: 2
Fore
SplineSet
320 64 m 1,0,-1
 448 64 l 1,1,-1
 448 128 l 1,2,-1
 512 128 l 1,3,-1
 512 192 l 1,4,-1
 448 192 l 1,5,-1
 448 256 l 1,6,-1
 320 256 l 1,7,-1
 320 64 l 1,0,-1
448 576 m 1,8,-1
 320 576 l 1,9,-1
 320 384 l 1,10,-1
 448 384 l 1,11,-1
 448 576 l 1,8,-1
128 0 m 1,12,-1
 128 256 l 1,13,-1
 192 256 l 1,14,-1
 192 384 l 1,15,-1
 128 384 l 1,16,-1
 128 576 l 1,17,-1
 128 640 l 1,18,-1
 192 640 l 1,19,-1
 192 704 l 1,20,-1
 576 704 l 1,21,-1
 576 640 l 1,22,-1
 640 640 l 1,23,-1
 640 576 l 1,24,-1
 640 384 l 1,25,-1
 576 384 l 1,26,-1
 576 320 l 1,27,-1
 576 256 l 1,28,-1
 640 256 l 1,29,-1
 640 320 l 1,30,-1
 704 320 l 1,31,-1
 704 384 l 1,32,-1
 832 384 l 1,33,-1
 896 384 l 1,34,-1
 896 256 l 1,35,-1
 832 256 l 1,36,-1
 832 192 l 1,37,-1
 768 192 l 1,38,-1
 768 128 l 1,39,-1
 832 128 l 1,40,-1
 832 64 l 1,41,-1
 896 64 l 1,42,-1
 896 0 l 1,43,-1
 896 -64 l 1,44,-1
 704 -64 l 1,45,-1
 704 0 l 1,46,-1
 640 0 l 1,47,-1
 576 0 l 1,48,-1
 576 -64 l 1,49,-1
 448 -64 l 1,50,-1
 320 -64 l 1,51,-1
 192 -64 l 1,52,-1
 192 0 l 1,53,-1
 128 0 l 1,12,-1
EndSplineSet
Validated: 1
EndChar

StartChar: quotesingle
Encoding: 39 39 10
Width: 1024
GlyphClass: 2
Flags: W
LayerCount: 2
Fore
SplineSet
320 384 m 1,0,-1
 320 512 l 1,1,-1
 384 512 l 1,2,-1
 384 576 l 1,3,-1
 448 576 l 1,4,-1
 448 640 l 1,5,-1
 512 640 l 1,6,-1
 512 704 l 1,7,-1
 640 704 l 1,8,-1
 704 704 l 1,9,-1
 704 640 l 1,10,-1
 768 640 l 1,11,-1
 768 512 l 1,12,-1
 704 512 l 1,13,-1
 704 448 l 1,14,-1
 640 448 l 1,15,-1
 640 384 l 1,16,-1
 576 384 l 1,17,-1
 576 320 l 1,18,-1
 512 320 l 1,19,-1
 384 320 l 1,20,-1
 384 384 l 1,21,-1
 320 384 l 1,0,-1
EndSplineSet
Validated: 1
EndChar

StartChar: parenleft
Encoding: 40 40 11
Width: 1024
GlyphClass: 2
Flags: W
LayerCount: 2
Fore
SplineSet
384 0 m 1,0,-1
 320 0 l 1,1,-1
 320 64 l 1,2,-1
 320 576 l 1,3,-1
 320 640 l 1,4,-1
 384 640 l 1,5,-1
 384 704 l 1,6,-1
 640 704 l 1,7,-1
 704 704 l 1,8,-1
 704 576 l 1,9,-1
 640 576 l 1,10,-1
 576 576 l 1,11,-1
 576 64 l 1,12,-1
 704 64 l 1,13,-1
 704 0 l 1,14,-1
 704 -64 l 1,15,-1
 384 -64 l 1,16,-1
 384 0 l 1,0,-1
EndSplineSet
Validated: 1
EndChar

StartChar: parenright
Encoding: 41 41 12
Width: 1024
GlyphClass: 2
Flags: W
LayerCount: 2
Fore
SplineSet
320 -64 m 1,0,-1
 320 64 l 1,1,-1
 448 64 l 1,2,-1
 448 576 l 1,3,-1
 320 576 l 1,4,-1
 320 704 l 1,5,-1
 576 704 l 1,6,-1
 640 704 l 1,7,-1
 640 640 l 1,8,-1
 704 640 l 1,9,-1
 704 0 l 1,10,-1
 640 0 l 1,11,-1
 640 -64 l 1,12,-1
 576 -64 l 1,13,-1
 320 -64 l 1,0,-1
EndSplineSet
Validated: 1
EndChar

StartChar: asterisk
Encoding: 42 42 13
Width: 1024
GlyphClass: 2
Flags: W
LayerCount: 2
Fore
SplineSet
128 256 m 1,0,-1
 128 384 l 1,1,-1
 320 384 l 1,2,-1
 320 448 l 1,3,-1
 256 448 l 1,4,-1
 256 512 l 1,5,-1
 192 512 l 1,6,-1
 192 640 l 1,7,-1
 320 640 l 1,8,-1
 320 576 l 1,9,-1
 384 576 l 1,10,-1
 384 512 l 1,11,-1
 448 512 l 1,12,-1
 448 704 l 1,13,-1
 576 704 l 1,14,-1
 576 512 l 1,15,-1
 640 512 l 1,16,-1
 640 576 l 1,17,-1
 704 576 l 1,18,-1
 704 640 l 1,19,-1
 832 640 l 1,20,-1
 832 576 l 1,21,-1
 832 512 l 1,22,-1
 768 512 l 1,23,-1
 768 448 l 1,24,-1
 704 448 l 1,25,-1
 704 384 l 1,26,-1
 896 384 l 1,27,-1
 896 256 l 1,28,-1
 704 256 l 1,29,-1
 704 192 l 1,30,-1
 768 192 l 1,31,-1
 768 128 l 1,32,-1
 832 128 l 1,33,-1
 832 0 l 1,34,-1
 768 0 l 1,35,-1
 704 0 l 1,36,-1
 704 64 l 1,37,-1
 640 64 l 1,38,-1
 640 128 l 1,39,-1
 576 128 l 1,40,-1
 576 -64 l 1,41,-1
 448 -64 l 1,42,-1
 448 128 l 1,43,-1
 384 128 l 1,44,-1
 384 64 l 1,45,-1
 320 64 l 1,46,-1
 320 0 l 1,47,-1
 192 0 l 1,48,-1
 192 64 l 1,49,-1
 192 128 l 1,50,-1
 256 128 l 1,51,-1
 256 192 l 1,52,-1
 320 192 l 1,53,-1
 320 256 l 1,54,-1
 128 256 l 1,0,-1
EndSplineSet
Validated: 1
EndChar

StartChar: plus
Encoding: 43 43 14
Width: 1024
GlyphClass: 2
Flags: W
LayerCount: 2
Fore
SplineSet
128 192 m 1,0,-1
 128 448 l 1,1,-1
 384 448 l 1,2,-1
 384 704 l 1,3,-1
 640 704 l 1,4,-1
 640 448 l 1,5,-1
 896 448 l 1,6,-1
 896 192 l 1,7,-1
 640 192 l 1,8,-1
 640 -64 l 1,9,-1
 384 -64 l 1,10,-1
 384 192 l 1,11,-1
 128 192 l 1,0,-1
EndSplineSet
Validated: 1
EndChar

StartChar: comma
Encoding: 44 44 15
Width: 1024
GlyphClass: 2
Flags: W
LayerCount: 2
Fore
SplineSet
320 0 m 1,0,-1
 320 128 l 1,1,-1
 384 128 l 1,2,-1
 384 192 l 1,3,-1
 448 192 l 1,4,-1
 448 256 l 1,5,-1
 512 256 l 1,6,-1
 512 320 l 1,7,-1
 640 320 l 1,8,-1
 704 320 l 1,9,-1
 704 256 l 1,10,-1
 768 256 l 1,11,-1
 768 128 l 1,12,-1
 704 128 l 1,13,-1
 704 64 l 1,14,-1
 640 64 l 1,15,-1
 640 0 l 1,16,-1
 576 0 l 1,17,-1
 576 -64 l 1,18,-1
 512 -64 l 1,19,-1
 384 -64 l 1,20,-1
 384 0 l 1,21,-1
 320 0 l 1,0,-1
EndSplineSet
Validated: 1
EndChar

StartChar: hyphen
Encoding: 45 45 16
Width: 1024
GlyphClass: 2
Flags: W
LayerCount: 2
Fore
SplineSet
128 192 m 1,0,-1
 128 448 l 1,1,-1
 896 448 l 1,2,-1
 896 192 l 1,3,-1
 128 192 l 1,0,-1
EndSplineSet
Validated: 1
EndChar

StartChar: period
Encoding: 46 46 17
Width: 1024
GlyphClass: 2
Flags: W
LayerCount: 2
Fore
SplineSet
704 64 m 132,-1,1
 704 -64 704 -64 512 -64 c 132,-1,2
 320 -64 320 -64 320 64 c 132,-1,3
 320 192 320 192 512 192 c 132,-1,0
 704 192 704 192 704 64 c 132,-1,1
EndSplineSet
Validated: 1
EndChar

StartChar: slash
Encoding: 47 47 18
Width: 1024
GlyphClass: 2
Flags: W
LayerCount: 2
Fore
SplineSet
384 64 m 1,0,-1
 384 0 l 1,1,-1
 320 0 l 1,2,-1
 320 -64 l 1,3,-1
 192 -64 l 1,4,-1
 192 0 l 1,5,-1
 128 0 l 1,6,-1
 128 64 l 1,7,-1
 128 128 l 1,8,-1
 192 128 l 1,9,-1
 192 192 l 1,10,-1
 256 192 l 1,11,-1
 256 256 l 1,12,-1
 320 256 l 1,13,-1
 320 320 l 1,14,-1
 384 320 l 1,15,-1
 384 384 l 1,16,-1
 448 384 l 1,17,-1
 448 448 l 1,18,-1
 512 448 l 1,19,-1
 512 512 l 1,20,-1
 576 512 l 1,21,-1
 576 576 l 1,22,-1
 640 576 l 1,23,-1
 640 640 l 1,24,-1
 704 640 l 1,25,-1
 704 704 l 1,26,-1
 832 704 l 1,27,-1
 832 640 l 1,28,-1
 896 640 l 1,29,-1
 896 576 l 1,30,-1
 896 512 l 1,31,-1
 832 512 l 1,32,-1
 832 448 l 1,33,-1
 768 448 l 1,34,-1
 768 384 l 1,35,-1
 704 384 l 1,36,-1
 704 320 l 1,37,-1
 640 320 l 1,38,-1
 640 256 l 1,39,-1
 576 256 l 1,40,-1
 576 192 l 1,41,-1
 512 192 l 1,42,-1
 512 128 l 1,43,-1
 448 128 l 1,44,-1
 448 64 l 1,45,-1
 384 64 l 1,0,-1
EndSplineSet
Validated: 1
EndChar

StartChar: zero
Encoding: 48 48 19
Width: 1024
GlyphClass: 2
Flags: W
LayerCount: 2
Fore
SplineSet
640 64 m 1,0,-1
 640 576 l 1,1,-1
 384 576 l 1,2,-1
 384 64 l 1,3,-1
 640 64 l 1,0,-1
832 0 m 1,4,-1
 832 -64 l 1,5,-1
 192 -64 l 1,6,-1
 192 0 l 1,7,-1
 128 0 l 1,8,-1
 128 64 l 1,9,-1
 128 576 l 1,10,-1
 128 640 l 1,11,-1
 192 640 l 1,12,-1
 192 704 l 1,13,-1
 832 704 l 1,14,-1
 832 640 l 1,15,-1
 896 640 l 1,16,-1
 896 0 l 1,17,-1
 832 0 l 1,4,-1
448 256 m 1,18,-1
 448 384 l 1,19,-1
 576 384 l 1,20,-1
 576 256 l 1,21,-1
 448 256 l 1,18,-1
EndSplineSet
Validated: 1
EndChar

StartChar: one
Encoding: 49 49 20
Width: 1024
GlyphClass: 2
Flags: W
LayerCount: 2
Fore
SplineSet
384 -64 m 1,0,-1
 384 704 l 1,1,-1
 576 704 l 1,2,-1
 576 640 l 1,3,-1
 640 640 l 1,4,-1
 640 0 l 1,5,-1
 576 0 l 1,6,-1
 576 -64 l 1,7,-1
 384 -64 l 1,0,-1
EndSplineSet
Validated: 1
EndChar

StartChar: two
Encoding: 50 50 21
Width: 1024
GlyphClass: 2
Flags: W
LayerCount: 2
Fore
SplineSet
128 576 m 1,0,-1
 128 640 l 1,1,-1
 192 640 l 1,2,-1
 192 704 l 1,3,-1
 832 704 l 1,4,-1
 832 640 l 1,5,-1
 896 640 l 1,6,-1
 896 384 l 1,7,-1
 896 320 l 1,8,-1
 832 320 l 1,9,-1
 832 256 l 1,10,-1
 384 256 l 1,11,-1
 384 64 l 1,12,-1
 896 64 l 1,13,-1
 896 0 l 1,14,-1
 832 0 l 1,15,-1
 832 -64 l 1,16,-1
 192 -64 l 1,17,-1
 192 0 l 1,18,-1
 128 0 l 1,19,-1
 128 256 l 1,20,-1
 128 320 l 1,21,-1
 192 320 l 1,22,-1
 192 384 l 1,23,-1
 640 384 l 1,24,-1
 640 576 l 1,25,-1
 128 576 l 1,0,-1
EndSplineSet
Validated: 1
EndChar

StartChar: three
Encoding: 51 51 22
Width: 1024
GlyphClass: 2
Flags: W
LayerCount: 2
Fore
SplineSet
256 256 m 1,0,-1
 256 384 l 1,1,-1
 640 384 l 1,2,-1
 640 576 l 1,3,-1
 128 576 l 1,4,-1
 128 640 l 1,5,-1
 192 640 l 1,6,-1
 192 704 l 1,7,-1
 832 704 l 1,8,-1
 832 640 l 1,9,-1
 896 640 l 1,10,-1
 896 384 l 1,11,-1
 896 256 l 1,12,-1
 896 0 l 1,13,-1
 832 0 l 1,14,-1
 832 -64 l 1,15,-1
 192 -64 l 1,16,-1
 192 0 l 1,17,-1
 128 0 l 1,18,-1
 128 64 l 1,19,-1
 640 64 l 1,20,-1
 640 256 l 1,21,-1
 256 256 l 1,0,-1
EndSplineSet
Validated: 1
EndChar

StartChar: four
Encoding: 52 52 23
Width: 1024
GlyphClass: 2
Flags: W
LayerCount: 2
Fore
SplineSet
128 320 m 1,0,-1
 128 640 l 1,1,-1
 192 640 l 1,2,-1
 192 704 l 1,3,-1
 320 704 l 1,4,-1
 384 704 l 1,5,-1
 384 384 l 1,6,-1
 640 384 l 1,7,-1
 640 704 l 1,8,-1
 832 704 l 1,9,-1
 832 640 l 1,10,-1
 896 640 l 1,11,-1
 896 256 l 1,12,-1
 896 0 l 1,13,-1
 832 0 l 1,14,-1
 832 -64 l 1,15,-1
 640 -64 l 1,16,-1
 640 0 l 1,17,-1
 640 256 l 1,18,-1
 320 256 l 1,19,-1
 256 256 l 1,20,-1
 192 256 l 1,21,-1
 192 320 l 1,22,-1
 128 320 l 1,0,-1
EndSplineSet
Validated: 1
EndChar

StartChar: five
Encoding: 53 53 24
Width: 1024
GlyphClass: 2
Flags: W
LayerCount: 2
Fore
SplineSet
128 0 m 1,0,-1
 128 64 l 1,1,-1
 640 64 l 1,2,-1
 640 256 l 1,3,-1
 192 256 l 1,4,-1
 192 320 l 1,5,-1
 128 320 l 1,6,-1
 128 576 l 1,7,-1
 128 640 l 1,8,-1
 192 640 l 1,9,-1
 192 704 l 1,10,-1
 832 704 l 1,11,-1
 832 640 l 1,12,-1
 896 640 l 1,13,-1
 896 576 l 1,14,-1
 384 576 l 1,15,-1
 384 384 l 1,16,-1
 768 384 l 1,17,-1
 832 384 l 1,18,-1
 832 320 l 1,19,-1
 896 320 l 1,20,-1
 896 0 l 1,21,-1
 832 0 l 1,22,-1
 832 -64 l 1,23,-1
 768 -64 l 1,24,-1
 704 -64 l 1,25,-1
 192 -64 l 1,26,-1
 192 0 l 1,27,-1
 128 0 l 1,0,-1
EndSplineSet
Validated: 1
EndChar

StartChar: six
Encoding: 54 54 25
Width: 1024
GlyphClass: 2
Flags: W
LayerCount: 2
Fore
SplineSet
384 64 m 1,0,-1
 640 64 l 1,1,-1
 640 256 l 1,2,-1
 384 256 l 1,3,-1
 384 64 l 1,0,-1
192 0 m 1,4,-1
 128 0 l 1,5,-1
 128 64 l 1,6,-1
 128 576 l 1,7,-1
 128 640 l 1,8,-1
 192 640 l 1,9,-1
 192 704 l 1,10,-1
 832 704 l 1,11,-1
 832 640 l 1,12,-1
 896 640 l 1,13,-1
 896 576 l 1,14,-1
 384 576 l 1,15,-1
 384 384 l 1,16,-1
 640 384 l 1,17,-1
 832 384 l 1,18,-1
 832 320 l 1,19,-1
 896 320 l 1,20,-1
 896 0 l 1,21,-1
 832 0 l 1,22,-1
 832 -64 l 1,23,-1
 192 -64 l 1,24,-1
 192 0 l 1,4,-1
EndSplineSet
Validated: 1
EndChar

StartChar: seven
Encoding: 55 55 26
Width: 1024
GlyphClass: 2
Flags: W
LayerCount: 2
Fore
SplineSet
128 576 m 1,0,-1
 128 640 l 1,1,-1
 192 640 l 1,2,-1
 192 704 l 1,3,-1
 832 704 l 1,4,-1
 832 640 l 1,5,-1
 896 640 l 1,6,-1
 896 0 l 1,7,-1
 832 0 l 1,8,-1
 832 -64 l 1,9,-1
 640 -64 l 1,10,-1
 640 0 l 1,11,-1
 640 576 l 1,12,-1
 128 576 l 1,0,-1
EndSplineSet
Validated: 1
EndChar

StartChar: eight
Encoding: 56 56 27
Width: 1024
GlyphClass: 2
Flags: W
LayerCount: 2
Fore
SplineSet
640 384 m 1,0,-1
 640 576 l 1,1,-1
 384 576 l 1,2,-1
 384 384 l 1,3,-1
 640 384 l 1,0,-1
640 64 m 1,4,-1
 640 256 l 1,5,-1
 384 256 l 1,6,-1
 384 64 l 1,7,-1
 640 64 l 1,4,-1
192 0 m 1,8,-1
 128 0 l 1,9,-1
 128 256 l 1,10,-1
 128 320 l 1,11,-1
 128 576 l 1,12,-1
 128 640 l 1,13,-1
 192 640 l 1,14,-1
 192 704 l 1,15,-1
 832 704 l 1,16,-1
 832 640 l 1,17,-1
 896 640 l 1,18,-1
 896 384 l 1,19,-1
 896 320 l 1,20,-1
 896 64 l 1,21,-1
 896 0 l 1,22,-1
 832 0 l 1,23,-1
 832 -64 l 1,24,-1
 192 -64 l 1,25,-1
 192 0 l 1,8,-1
EndSplineSet
Validated: 1
EndChar

StartChar: nine
Encoding: 57 57 28
Width: 1024
GlyphClass: 2
Flags: W
LayerCount: 2
Fore
SplineSet
640 384 m 1,0,-1
 640 576 l 1,1,-1
 384 576 l 1,2,-1
 384 384 l 1,3,-1
 640 384 l 1,0,-1
128 0 m 1,4,-1
 128 64 l 1,5,-1
 640 64 l 1,6,-1
 640 256 l 1,7,-1
 192 256 l 1,8,-1
 192 320 l 1,9,-1
 128 320 l 1,10,-1
 128 576 l 1,11,-1
 128 640 l 1,12,-1
 192 640 l 1,13,-1
 192 704 l 1,14,-1
 832 704 l 1,15,-1
 832 640 l 1,16,-1
 896 640 l 1,17,-1
 896 384 l 1,18,-1
 896 320 l 1,19,-1
 896 0 l 1,20,-1
 832 0 l 1,21,-1
 832 -64 l 1,22,-1
 192 -64 l 1,23,-1
 192 0 l 1,24,-1
 128 0 l 1,4,-1
EndSplineSet
Validated: 1
EndChar

StartChar: colon
Encoding: 58 58 29
Width: 1024
GlyphClass: 2
Flags: W
LayerCount: 2
Fore
SplineSet
704 576 m 128,-1,1
 704 448 704 448 512 448 c 128,-1,2
 320 448 320 448 320 576 c 128,-1,3
 320 704 320 704 512 704 c 128,-1,0
 704 704 704 704 704 576 c 128,-1,1
704 64 m 128,-1,5
 704 -64 704 -64 512 -64 c 128,-1,6
 320 -64 320 -64 320 64 c 128,-1,7
 320 192 320 192 512 192 c 128,-1,4
 704 192 704 192 704 64 c 128,-1,5
EndSplineSet
Validated: 1
EndChar

StartChar: semicolon
Encoding: 59 59 30
Width: 1024
GlyphClass: 2
Flags: W
LayerCount: 2
Fore
SplineSet
256 0 m 1,0,-1
 256 128 l 1,1,-1
 320 128 l 1,2,-1
 320 192 l 1,3,-1
 384 192 l 1,4,-1
 384 256 l 1,5,-1
 448 256 l 1,6,-1
 448 320 l 1,7,-1
 576 320 l 1,8,-1
 640 320 l 1,9,-1
 640 256 l 1,10,-1
 704 256 l 1,11,-1
 704 128 l 1,12,-1
 640 128 l 1,13,-1
 640 64 l 1,14,-1
 576 64 l 1,15,-1
 576 0 l 1,16,-1
 512 0 l 1,17,-1
 512 -64 l 1,18,-1
 448 -64 l 1,19,-1
 320 -64 l 1,20,-1
 320 0 l 1,21,-1
 256 0 l 1,0,-1
320 512 m 1,22,-1
 320 640 l 1,23,-1
 384 640 l 1,24,-1
 384 704 l 1,25,-1
 640 704 l 1,26,-1
 640 640 l 1,27,-1
 704 640 l 1,28,-1
 704 512 l 1,29,-1
 640 512 l 1,30,-1
 640 448 l 1,31,-1
 384 448 l 1,32,-1
 384 512 l 1,33,-1
 320 512 l 1,22,-1
EndSplineSet
Validated: 1
EndChar

StartChar: less
Encoding: 60 60 31
Width: 1024
GlyphClass: 2
Flags: W
LayerCount: 2
Fore
SplineSet
512 -64 m 1,0,-1
 128 320 l 1,1,-1
 512 704 l 1,2,-1
 832 704 l 1,3,-1
 450 317 l 1,4,-1
 832 -64 l 1,5,-1
 512 -64 l 1,0,-1
EndSplineSet
Validated: 1
EndChar

StartChar: equal
Encoding: 61 61 32
Width: 1024
GlyphClass: 2
Flags: W
LayerCount: 2
Fore
SplineSet
256 384 m 1,0,-1
 256 576 l 1,1,-1
 832 576 l 1,2,-1
 832 384 l 1,3,-1
 256 384 l 1,0,-1
256 64 m 1,4,-1
 256 256 l 1,5,-1
 832 256 l 1,6,-1
 832 64 l 1,7,-1
 256 64 l 1,4,-1
EndSplineSet
Validated: 1
EndChar

StartChar: greater
Encoding: 62 62 33
Width: 1024
GlyphClass: 2
Flags: W
LayerCount: 2
Fore
SplineSet
512 -64 m 1,0,-1
 192 -64 l 1,1,-1
 576 320 l 1,2,-1
 192 704 l 1,3,-1
 512 704 l 1,4,-1
 894 320 l 1,5,-1
 512 -64 l 1,0,-1
EndSplineSet
Validated: 1
EndChar

StartChar: question
Encoding: 63 63 34
Width: 1024
GlyphClass: 2
Flags: W
LayerCount: 2
Fore
SplineSet
832 384 m 1,0,-1
 832 320 l 1,1,-1
 704 320 l 1,2,-1
 704 256 l 1,3,-1
 640 256 l 1,4,-1
 640 192 l 1,5,-1
 384 192 l 1,6,-1
 384 256 l 1,7,-1
 320 256 l 1,8,-1
 320 320 l 1,9,-1
 320 384 l 1,10,-1
 384 384 l 1,11,-1
 384 448 l 1,12,-1
 640 448 l 1,13,-1
 640 640 l 1,14,-1
 384 640 l 1,15,-1
 384 512 l 1,16,-1
 320 512 l 1,17,-1
 320 448 l 1,18,-1
 192 448 l 1,19,-1
 192 512 l 1,20,-1
 128 512 l 1,21,-1
 128 640 l 1,22,-1
 128 704 l 1,23,-1
 192 704 l 1,24,-1
 192 768 l 1,25,-1
 832 768 l 1,26,-1
 832 704 l 1,27,-1
 896 704 l 1,28,-1
 896 448 l 1,29,-1
 896 384 l 1,30,-1
 832 384 l 1,0,-1
320 -64 m 1,31,-1
 320 64 l 1,32,-1
 384 64 l 1,33,-1
 384 128 l 1,34,-1
 640 128 l 1,35,-1
 640 64 l 1,36,-1
 704 64 l 1,37,-1
 704 -64 l 1,38,-1
 640 -64 l 1,39,-1
 640 -128 l 1,40,-1
 384 -128 l 1,41,-1
 384 -64 l 1,42,-1
 320 -64 l 1,31,-1
EndSplineSet
Validated: 1
EndChar

StartChar: at
Encoding: 64 64 35
Width: 1024
GlyphClass: 2
Flags: W
LayerCount: 2
Fore
SplineSet
576 256 m 1,0,-1
 576 384 l 1,1,-1
 448 384 l 1,2,-1
 448 256 l 1,3,-1
 576 256 l 1,0,-1
832 256 m 1,4,-1
 832 640 l 1,5,-1
 192 640 l 1,6,-1
 192 0 l 1,7,-1
 960 0 l 1,8,-1
 960 -64 l 1,9,-1
 896 -128 l 1,10,-1
 128 -128 l 1,11,-1
 64 -64 l 1,12,-1
 64 0 l 1,13,-1
 64 640 l 1,14,-1
 64 704 l 1,15,-1
 128 768 l 1,16,-1
 896 768 l 1,17,-1
 960 704 l 1,18,-1
 960 128 l 1,19,-1
 832 128 l 1,20,-1
 320 128 l 1,21,-1
 320 256 l 1,22,-1
 320 384 l 1,23,-1
 320 512 l 1,24,-1
 576 512 l 1,25,-1
 704 512 l 1,26,-1
 704 256 l 1,27,-1
 832 256 l 1,4,-1
EndSplineSet
Validated: 1
EndChar

StartChar: A
Encoding: 65 65 36
Width: 1024
GlyphClass: 2
Flags: W
LayerCount: 2
Fore
SplineSet
640 384 m 1,0,-1
 640 576 l 1,1,-1
 384 576 l 1,2,-1
 384 384 l 1,3,-1
 640 384 l 1,0,-1
384 256 m 1,4,-1
 384 -64 l 1,5,-1
 128 -64 l 1,6,-1
 128 256 l 1,7,-1
 128 320 l 1,8,-1
 128 576 l 1,9,-1
 128 640 l 1,10,-1
 192 640 l 1,11,-1
 192 704 l 1,12,-1
 832 704 l 1,13,-1
 832 640 l 1,14,-1
 896 640 l 1,15,-1
 896 384 l 1,16,-1
 896 320 l 1,17,-1
 896 -64 l 1,18,-1
 640 -64 l 1,19,-1
 640 256 l 1,20,-1
 384 256 l 1,4,-1
EndSplineSet
Validated: 1
EndChar

StartChar: B
Encoding: 66 66 37
Width: 1024
GlyphClass: 2
Flags: W
LayerCount: 2
Fore
SplineSet
640 576 m 1,0,-1
 384 576 l 1,1,-1
 384 384 l 1,2,-1
 640 384 l 1,3,-1
 640 576 l 1,0,-1
384 64 m 1,4,-1
 640 64 l 1,5,-1
 640 256 l 1,6,-1
 384 256 l 1,7,-1
 384 64 l 1,4,-1
64 -64 m 1,8,-1
 64 64 l 1,9,-1
 128 64 l 1,10,-1
 128 576 l 1,11,-1
 64 576 l 1,12,-1
 64 704 l 1,13,-1
 832 704 l 1,14,-1
 832 640 l 1,15,-1
 896 640 l 1,16,-1
 896 384 l 1,17,-1
 832 384 l 1,18,-1
 832 256 l 1,19,-1
 896 256 l 1,20,-1
 896 0 l 1,21,-1
 832 0 l 1,22,-1
 832 -64 l 1,23,-1
 64 -64 l 1,8,-1
EndSplineSet
Validated: 1
EndChar

StartChar: C
Encoding: 67 67 38
Width: 1024
GlyphClass: 2
Flags: W
LayerCount: 2
Fore
SplineSet
832 0 m 1,0,-1
 832 -64 l 1,1,-1
 192 -64 l 1,2,-1
 192 0 l 1,3,-1
 128 0 l 1,4,-1
 128 64 l 1,5,-1
 128 576 l 1,6,-1
 128 640 l 1,7,-1
 192 640 l 1,8,-1
 192 704 l 1,9,-1
 832 704 l 1,10,-1
 832 640 l 1,11,-1
 896 640 l 1,12,-1
 896 448 l 1,13,-1
 640 448 l 1,14,-1
 640 576 l 1,15,-1
 384 576 l 1,16,-1
 384 64 l 1,17,-1
 640 64 l 1,18,-1
 640 192 l 1,19,-1
 896 192 l 1,20,-1
 896 0 l 1,21,-1
 832 0 l 1,0,-1
EndSplineSet
Validated: 1
EndChar

StartChar: D
Encoding: 68 68 39
Width: 1024
GlyphClass: 2
Flags: W
LayerCount: 2
Fore
SplineSet
384 64 m 1,0,-1
 640 64 l 1,1,-1
 640 576 l 1,2,-1
 384 576 l 1,3,-1
 384 64 l 1,0,-1
64 -64 m 1,4,-1
 64 64 l 1,5,-1
 128 64 l 1,6,-1
 128 576 l 1,7,-1
 64 576 l 1,8,-1
 64 704 l 1,9,-1
 832 704 l 1,10,-1
 832 640 l 1,11,-1
 896 640 l 1,12,-1
 896 0 l 1,13,-1
 832 0 l 1,14,-1
 832 -64 l 1,15,-1
 64 -64 l 1,4,-1
EndSplineSet
Validated: 1
EndChar

StartChar: E
Encoding: 69 69 40
Width: 1024
GlyphClass: 2
Flags: W
LayerCount: 2
Fore
SplineSet
64 -64 m 1,0,-1
 64 64 l 1,1,-1
 128 64 l 1,2,-1
 128 576 l 1,3,-1
 64 576 l 1,4,-1
 64 704 l 1,5,-1
 896 704 l 1,6,-1
 896 576 l 1,7,-1
 896 512 l 1,8,-1
 640 512 l 1,9,-1
 640 576 l 1,10,-1
 384 576 l 1,11,-1
 384 384 l 1,12,-1
 704 384 l 1,13,-1
 704 256 l 1,14,-1
 384 256 l 1,15,-1
 384 64 l 1,16,-1
 640 64 l 1,17,-1
 640 128 l 1,18,-1
 896 128 l 1,19,-1
 896 64 l 1,20,-1
 896 -64 l 1,21,-1
 64 -64 l 1,0,-1
EndSplineSet
Validated: 1
EndChar

StartChar: F
Encoding: 70 70 41
Width: 1024
GlyphClass: 2
Flags: W
LayerCount: 2
Fore
SplineSet
64 576 m 1,0,-1
 64 704 l 1,1,-1
 896 704 l 1,2,-1
 896 576 l 1,3,-1
 896 512 l 1,4,-1
 640 512 l 1,5,-1
 640 576 l 1,6,-1
 384 576 l 1,7,-1
 384 384 l 1,8,-1
 704 384 l 1,9,-1
 704 256 l 1,10,-1
 384 256 l 1,11,-1
 384 64 l 1,12,-1
 448 64 l 1,13,-1
 448 -64 l 1,14,-1
 64 -64 l 1,15,-1
 64 64 l 1,16,-1
 128 64 l 1,17,-1
 128 576 l 1,18,-1
 64 576 l 1,0,-1
EndSplineSet
Validated: 1
EndChar

StartChar: G
Encoding: 71 71 42
Width: 1024
GlyphClass: 2
Flags: W
LayerCount: 2
Fore
SplineSet
576 192 m 1,0,-1
 576 320 l 1,1,-1
 896 320 l 1,2,-1
 896 192 l 1,3,-1
 896 0 l 1,4,-1
 896 -64 l 1,5,-1
 192 -64 l 1,6,-1
 192 0 l 1,7,-1
 128 0 l 1,8,-1
 128 64 l 1,9,-1
 128 576 l 1,10,-1
 128 640 l 1,11,-1
 192 640 l 1,12,-1
 192 704 l 1,13,-1
 832 704 l 1,14,-1
 832 640 l 1,15,-1
 896 640 l 1,16,-1
 896 448 l 1,17,-1
 640 448 l 1,18,-1
 640 576 l 1,19,-1
 384 576 l 1,20,-1
 384 64 l 1,21,-1
 640 64 l 1,22,-1
 640 192 l 1,23,-1
 576 192 l 1,0,-1
EndSplineSet
Validated: 1
EndChar

StartChar: H
Encoding: 72 72 43
Width: 1024
GlyphClass: 2
Flags: W
LayerCount: 2
Fore
SplineSet
128 -64 m 1,0,-1
 128 704 l 1,1,-1
 384 704 l 1,2,-1
 384 384 l 1,3,-1
 640 384 l 1,4,-1
 640 704 l 1,5,-1
 896 704 l 1,6,-1
 896 -64 l 1,7,-1
 640 -64 l 1,8,-1
 640 256 l 1,9,-1
 384 256 l 1,10,-1
 384 -64 l 1,11,-1
 128 -64 l 1,0,-1
EndSplineSet
Validated: 1
EndChar

StartChar: I
Encoding: 73 73 44
Width: 1024
GlyphClass: 2
Flags: W
LayerCount: 2
Fore
SplineSet
192 -64 m 1,0,-1
 192 64 l 1,1,-1
 384 64 l 1,2,-1
 384 576 l 1,3,-1
 192 576 l 1,4,-1
 192 704 l 1,5,-1
 832 704 l 1,6,-1
 832 576 l 1,7,-1
 640 576 l 1,8,-1
 640 64 l 1,9,-1
 832 64 l 1,10,-1
 832 -64 l 1,11,-1
 192 -64 l 1,0,-1
EndSplineSet
Validated: 1
EndChar

StartChar: J
Encoding: 74 74 45
Width: 1024
GlyphClass: 2
Flags: W
LayerCount: 2
Fore
SplineSet
576 576 m 1,0,-1
 576 704 l 1,1,-1
 960 704 l 1,2,-1
 960 576 l 1,3,-1
 896 576 l 1,4,-1
 896 0 l 1,5,-1
 832 0 l 1,6,-1
 832 -64 l 1,7,-1
 192 -64 l 1,8,-1
 192 0 l 1,9,-1
 128 0 l 1,10,-1
 128 64 l 1,11,-1
 128 192 l 1,12,-1
 384 192 l 1,13,-1
 384 64 l 1,14,-1
 640 64 l 1,15,-1
 640 576 l 1,16,-1
 576 576 l 1,0,-1
EndSplineSet
Validated: 1
EndChar

StartChar: K
Encoding: 75 75 46
Width: 1024
GlyphClass: 2
Flags: W
LayerCount: 2
Fore
SplineSet
64 -64 m 1,0,-1
 64 64 l 1,1,-1
 128 64 l 1,2,-1
 128 192 l 1,3,-1
 128 256 l 1,4,-1
 128 384 l 1,5,-1
 128 448 l 1,6,-1
 128 576 l 1,7,-1
 64 576 l 1,8,-1
 64 704 l 1,9,-1
 384 704 l 1,10,-1
 384 576 l 1,11,-1
 384 448 l 1,12,-1
 512 448 l 1,13,-1
 512 512 l 1,14,-1
 576 512 l 1,15,-1
 576 576 l 1,16,-1
 640 576 l 1,17,-1
 640 704 l 1,18,-1
 896 704 l 1,19,-1
 896 576 l 1,20,-1
 896 512 l 1,21,-1
 832 512 l 1,22,-1
 832 448 l 1,23,-1
 768 448 l 1,24,-1
 768 384 l 1,25,-1
 704 384 l 1,26,-1
 704 256 l 1,27,-1
 768 256 l 1,28,-1
 768 192 l 1,29,-1
 832 192 l 1,30,-1
 832 128 l 1,31,-1
 896 128 l 1,32,-1
 896 -64 l 1,33,-1
 832 -64 l 1,34,-1
 768 -64 l 1,35,-1
 704 -64 l 1,36,-1
 640 -64 l 1,37,-1
 640 64 l 1,38,-1
 576 64 l 1,39,-1
 576 128 l 1,40,-1
 512 128 l 1,41,-1
 512 192 l 1,42,-1
 384 192 l 1,43,-1
 384 64 l 1,44,-1
 384 -64 l 1,45,-1
 64 -64 l 1,0,-1
EndSplineSet
Validated: 1
EndChar

StartChar: L
Encoding: 76 76 47
Width: 1024
GlyphClass: 2
Flags: W
LayerCount: 2
Fore
SplineSet
64 -64 m 1,0,-1
 64 64 l 1,1,-1
 128 64 l 1,2,-1
 128 576 l 1,3,-1
 64 576 l 1,4,-1
 64 704 l 1,5,-1
 448 704 l 1,6,-1
 448 576 l 1,7,-1
 384 576 l 1,8,-1
 384 64 l 1,9,-1
 640 64 l 1,10,-1
 640 128 l 1,11,-1
 896 128 l 1,12,-1
 896 64 l 1,13,-1
 896 -64 l 1,14,-1
 64 -64 l 1,0,-1
EndSplineSet
Validated: 1
EndChar

StartChar: M
Encoding: 77 77 48
Width: 1024
GlyphClass: 2
Flags: W
LayerCount: 2
Fore
SplineSet
384 320 m 1,0,-1
 384 -64 l 1,1,-1
 128 -64 l 1,2,-1
 128 320 l 1,3,-1
 128 448 l 1,4,-1
 128 704 l 1,5,-1
 384 704 l 1,6,-1
 384 640 l 1,7,-1
 448 640 l 1,8,-1
 448 576 l 1,9,-1
 576 576 l 1,10,-1
 576 640 l 1,11,-1
 640 640 l 1,12,-1
 640 704 l 1,13,-1
 896 704 l 1,14,-1
 896 640 l 1,15,-1
 896 512 l 1,16,-1
 896 448 l 1,17,-1
 896 -64 l 1,18,-1
 640 -64 l 1,19,-1
 640 320 l 1,20,-1
 576 320 l 1,21,-1
 576 256 l 1,22,-1
 448 256 l 1,23,-1
 448 320 l 1,24,-1
 384 320 l 1,0,-1
EndSplineSet
Validated: 1
EndChar

StartChar: N
Encoding: 78 78 49
Width: 1024
GlyphClass: 2
Flags: W
LayerCount: 2
Fore
SplineSet
128 -64 m 1,0,-1
 128 704 l 1,1,-1
 384 704 l 1,2,-1
 384 576 l 1,3,-1
 448 576 l 1,4,-1
 448 512 l 1,5,-1
 512 512 l 1,6,-1
 512 448 l 1,7,-1
 576 448 l 1,8,-1
 576 384 l 1,9,-1
 640 384 l 1,10,-1
 640 704 l 1,11,-1
 896 704 l 1,12,-1
 896 384 l 1,13,-1
 896 -64 l 1,14,-1
 832 -64 l 1,15,-1
 768 -64 l 1,16,-1
 704 -64 l 1,17,-1
 640 -64 l 1,18,-1
 640 64 l 1,19,-1
 576 64 l 1,20,-1
 576 128 l 1,21,-1
 512 128 l 1,22,-1
 512 192 l 1,23,-1
 448 192 l 1,24,-1
 448 256 l 1,25,-1
 384 256 l 1,26,-1
 384 -64 l 1,27,-1
 128 -64 l 1,0,-1
EndSplineSet
Validated: 1
EndChar

StartChar: O
Encoding: 79 79 50
Width: 1024
GlyphClass: 2
Flags: W
LayerCount: 2
Fore
SplineSet
640 64 m 1,0,-1
 640 576 l 1,1,-1
 384 576 l 1,2,-1
 384 64 l 1,3,-1
 640 64 l 1,0,-1
832 0 m 1,4,-1
 832 -64 l 1,5,-1
 192 -64 l 1,6,-1
 192 0 l 1,7,-1
 128 0 l 1,8,-1
 128 64 l 1,9,-1
 128 576 l 1,10,-1
 128 640 l 1,11,-1
 192 640 l 1,12,-1
 192 704 l 1,13,-1
 832 704 l 1,14,-1
 832 640 l 1,15,-1
 896 640 l 1,16,-1
 896 0 l 1,17,-1
 832 0 l 1,4,-1
EndSplineSet
Validated: 1
EndChar

StartChar: P
Encoding: 80 80 51
Width: 1024
GlyphClass: 2
Flags: W
LayerCount: 2
Fore
SplineSet
384 576 m 1,0,-1
 384 384 l 1,1,-1
 640 384 l 1,2,-1
 640 576 l 1,3,-1
 384 576 l 1,0,-1
64 576 m 1,4,-1
 64 704 l 1,5,-1
 832 704 l 1,6,-1
 832 640 l 1,7,-1
 896 640 l 1,8,-1
 896 320 l 1,9,-1
 832 320 l 1,10,-1
 832 256 l 1,11,-1
 640 256 l 1,12,-1
 384 256 l 1,13,-1
 384 64 l 1,14,-1
 448 64 l 1,15,-1
 448 -64 l 1,16,-1
 64 -64 l 1,17,-1
 64 64 l 1,18,-1
 128 64 l 1,19,-1
 128 576 l 1,20,-1
 64 576 l 1,4,-1
EndSplineSet
Validated: 1
EndChar

StartChar: Q
Encoding: 81 81 52
Width: 1024
GlyphClass: 2
Flags: W
LayerCount: 2
Fore
SplineSet
640 128 m 1,0,-1
 640 576 l 1,1,-1
 384 576 l 1,2,-1
 384 128 l 1,3,-1
 640 128 l 1,0,-1
192 64 m 1,4,-1
 128 64 l 1,5,-1
 128 576 l 1,6,-1
 128 640 l 1,7,-1
 192 640 l 1,8,-1
 192 704 l 1,9,-1
 832 704 l 1,10,-1
 832 640 l 1,11,-1
 896 640 l 1,12,-1
 896 128 l 1,13,-1
 896 64 l 1,14,-1
 832 64 l 1,15,-1
 832 0 l 1,16,-1
 896 0 l 1,17,-1
 896 -128 l 1,18,-1
 832 -128 l 1,19,-1
 640 -128 l 1,20,-1
 640 -64 l 1,21,-1
 576 -64 l 1,22,-1
 576 0 l 1,23,-1
 192 0 l 1,24,-1
 192 64 l 1,4,-1
EndSplineSet
Validated: 1
EndChar

StartChar: R
Encoding: 82 82 53
Width: 1024
GlyphClass: 2
Flags: W
LayerCount: 2
Fore
SplineSet
384 576 m 1,0,-1
 384 384 l 1,1,-1
 640 384 l 1,2,-1
 640 576 l 1,3,-1
 384 576 l 1,0,-1
64 576 m 1,4,-1
 64 704 l 1,5,-1
 832 704 l 1,6,-1
 832 640 l 1,7,-1
 896 640 l 1,8,-1
 896 384 l 1,9,-1
 832 384 l 1,10,-1
 832 320 l 1,11,-1
 704 320 l 1,12,-1
 704 256 l 1,13,-1
 768 256 l 1,14,-1
 768 192 l 1,15,-1
 832 192 l 1,16,-1
 832 128 l 1,17,-1
 896 128 l 1,18,-1
 896 -64 l 1,19,-1
 832 -64 l 1,20,-1
 768 -64 l 1,21,-1
 704 -64 l 1,22,-1
 640 -64 l 1,23,-1
 640 64 l 1,24,-1
 576 64 l 1,25,-1
 576 128 l 1,26,-1
 512 128 l 1,27,-1
 512 192 l 1,28,-1
 448 192 l 1,29,-1
 448 256 l 1,30,-1
 384 256 l 1,31,-1
 384 64 l 1,32,-1
 384 -64 l 1,33,-1
 64 -64 l 1,34,-1
 64 64 l 1,35,-1
 128 64 l 1,36,-1
 128 576 l 1,37,-1
 64 576 l 1,4,-1
EndSplineSet
Validated: 1
EndChar

StartChar: S
Encoding: 83 83 54
Width: 1024
GlyphClass: 2
Flags: W
LayerCount: 2
Fore
SplineSet
192 0 m 1,0,-1
 128 0 l 1,1,-1
 128 64 l 1,2,-1
 128 192 l 1,3,-1
 384 192 l 1,4,-1
 384 64 l 1,5,-1
 640 64 l 1,6,-1
 640 256 l 1,7,-1
 192 256 l 1,8,-1
 192 320 l 1,9,-1
 128 320 l 1,10,-1
 128 576 l 1,11,-1
 128 640 l 1,12,-1
 192 640 l 1,13,-1
 192 704 l 1,14,-1
 832 704 l 1,15,-1
 832 640 l 1,16,-1
 896 640 l 1,17,-1
 896 448 l 1,18,-1
 640 448 l 1,19,-1
 640 576 l 1,20,-1
 384 576 l 1,21,-1
 384 384 l 1,22,-1
 768 384 l 1,23,-1
 832 384 l 1,24,-1
 832 320 l 1,25,-1
 896 320 l 1,26,-1
 896 0 l 1,27,-1
 832 0 l 1,28,-1
 832 -64 l 1,29,-1
 768 -64 l 1,30,-1
 704 -64 l 1,31,-1
 192 -64 l 1,32,-1
 192 0 l 1,0,-1
EndSplineSet
Validated: 1
EndChar

StartChar: T
Encoding: 84 84 55
Width: 1024
GlyphClass: 2
Flags: W
LayerCount: 2
Fore
SplineSet
256 -64 m 1,0,-1
 256 64 l 1,1,-1
 384 64 l 1,2,-1
 384 576 l 1,3,-1
 256 576 l 1,4,-1
 256 512 l 1,5,-1
 128 512 l 1,6,-1
 128 576 l 1,7,-1
 128 704 l 1,8,-1
 896 704 l 1,9,-1
 896 576 l 1,10,-1
 896 512 l 1,11,-1
 768 512 l 1,12,-1
 768 576 l 1,13,-1
 640 576 l 1,14,-1
 640 64 l 1,15,-1
 768 64 l 1,16,-1
 768 -64 l 1,17,-1
 256 -64 l 1,0,-1
EndSplineSet
Validated: 1
EndChar

StartChar: U
Encoding: 85 85 56
Width: 1024
GlyphClass: 2
Flags: W
LayerCount: 2
Fore
SplineSet
832 0 m 1,0,-1
 832 -64 l 1,1,-1
 192 -64 l 1,2,-1
 192 0 l 1,3,-1
 128 0 l 1,4,-1
 128 64 l 1,5,-1
 128 704 l 1,6,-1
 384 704 l 1,7,-1
 384 64 l 1,8,-1
 640 64 l 1,9,-1
 640 704 l 1,10,-1
 896 704 l 1,11,-1
 896 0 l 1,12,-1
 832 0 l 1,0,-1
EndSplineSet
Validated: 1
EndChar

StartChar: V
Encoding: 86 86 57
Width: 1024
GlyphClass: 2
Flags: W
LayerCount: 2
Fore
SplineSet
128 256 m 1,0,-1
 128 704 l 1,1,-1
 384 704 l 1,2,-1
 384 320 l 1,3,-1
 448 320 l 1,4,-1
 448 256 l 1,5,-1
 576 256 l 1,6,-1
 576 320 l 1,7,-1
 640 320 l 1,8,-1
 640 704 l 1,9,-1
 896 704 l 1,10,-1
 896 320 l 1,11,-1
 896 256 l 1,12,-1
 832 256 l 1,13,-1
 832 192 l 1,14,-1
 768 192 l 1,15,-1
 768 128 l 1,16,-1
 704 128 l 1,17,-1
 704 64 l 1,18,-1
 640 64 l 1,19,-1
 640 0 l 1,20,-1
 576 0 l 1,21,-1
 576 -64 l 1,22,-1
 448 -64 l 1,23,-1
 448 0 l 1,24,-1
 384 0 l 1,25,-1
 384 64 l 1,26,-1
 320 64 l 1,27,-1
 320 128 l 1,28,-1
 256 128 l 1,29,-1
 256 192 l 1,30,-1
 192 192 l 1,31,-1
 192 256 l 1,32,-1
 128 256 l 1,0,-1
EndSplineSet
Validated: 1
EndChar

StartChar: W
Encoding: 87 87 58
Width: 1024
GlyphClass: 2
Flags: W
LayerCount: 2
Fore
SplineSet
640 320 m 1,0,-1
 640 704 l 1,1,-1
 896 704 l 1,2,-1
 896 64 l 1,3,-1
 832 64 l 1,4,-1
 832 0 l 1,5,-1
 768 0 l 1,6,-1
 768 -64 l 1,7,-1
 640 -64 l 1,8,-1
 640 0 l 1,9,-1
 576 0 l 1,10,-1
 576 64 l 1,11,-1
 448 64 l 1,12,-1
 448 0 l 1,13,-1
 384 0 l 1,14,-1
 384 -64 l 1,15,-1
 256 -64 l 1,16,-1
 256 0 l 1,17,-1
 192 0 l 1,18,-1
 192 64 l 1,19,-1
 128 64 l 1,20,-1
 128 320 l 1,21,-1
 128 704 l 1,22,-1
 384 704 l 1,23,-1
 384 320 l 1,24,-1
 448 320 l 1,25,-1
 448 384 l 1,26,-1
 576 384 l 1,27,-1
 576 320 l 1,28,-1
 640 320 l 1,0,-1
EndSplineSet
Validated: 1
EndChar

StartChar: X
Encoding: 88 88 59
Width: 1024
GlyphClass: 2
Flags: W
LayerCount: 2
Fore
SplineSet
128 512 m 1,0,-1
 128 704 l 1,1,-1
 384 704 l 1,2,-1
 384 576 l 1,3,-1
 448 576 l 1,4,-1
 448 512 l 1,5,-1
 576 512 l 1,6,-1
 576 576 l 1,7,-1
 640 576 l 1,8,-1
 640 704 l 1,9,-1
 896 704 l 1,10,-1
 896 576 l 1,11,-1
 896 512 l 1,12,-1
 832 512 l 1,13,-1
 832 448 l 1,14,-1
 768 448 l 1,15,-1
 768 384 l 1,16,-1
 704 384 l 1,17,-1
 704 256 l 1,18,-1
 768 256 l 1,19,-1
 768 192 l 1,20,-1
 832 192 l 1,21,-1
 832 128 l 1,22,-1
 896 128 l 1,23,-1
 896 -64 l 1,24,-1
 832 -64 l 1,25,-1
 640 -64 l 1,26,-1
 640 64 l 1,27,-1
 576 64 l 1,28,-1
 576 128 l 1,29,-1
 448 128 l 1,30,-1
 448 64 l 1,31,-1
 384 64 l 1,32,-1
 384 -64 l 1,33,-1
 128 -64 l 1,34,-1
 128 64 l 1,35,-1
 128 128 l 1,36,-1
 192 128 l 1,37,-1
 192 192 l 1,38,-1
 256 192 l 1,39,-1
 256 256 l 1,40,-1
 320 256 l 1,41,-1
 320 384 l 1,42,-1
 256 384 l 1,43,-1
 256 448 l 1,44,-1
 192 448 l 1,45,-1
 192 512 l 1,46,-1
 128 512 l 1,0,-1
EndSplineSet
Validated: 1
EndChar

StartChar: Y
Encoding: 89 89 60
Width: 1024
GlyphClass: 2
Flags: W
LayerCount: 2
Fore
SplineSet
320 -64 m 1,0,-1
 320 64 l 1,1,-1
 384 64 l 1,2,-1
 384 320 l 1,3,-1
 320 320 l 1,4,-1
 320 384 l 1,5,-1
 256 384 l 1,6,-1
 256 448 l 1,7,-1
 192 448 l 1,8,-1
 192 512 l 1,9,-1
 128 512 l 1,10,-1
 128 704 l 1,11,-1
 384 704 l 1,12,-1
 384 576 l 1,13,-1
 448 576 l 1,14,-1
 448 512 l 1,15,-1
 576 512 l 1,16,-1
 576 576 l 1,17,-1
 640 576 l 1,18,-1
 640 704 l 1,19,-1
 896 704 l 1,20,-1
 896 576 l 1,21,-1
 896 512 l 1,22,-1
 832 512 l 1,23,-1
 832 448 l 1,24,-1
 768 448 l 1,25,-1
 768 384 l 1,26,-1
 704 384 l 1,27,-1
 704 320 l 1,28,-1
 640 320 l 1,29,-1
 640 64 l 1,30,-1
 704 64 l 1,31,-1
 704 -64 l 1,32,-1
 320 -64 l 1,0,-1
EndSplineSet
Validated: 1
EndChar

StartChar: Z
Encoding: 90 90 61
Width: 1024
GlyphClass: 2
Flags: W
LayerCount: 2
Fore
SplineSet
128 0 m 1,0,-1
 128 128 l 1,1,-1
 192 128 l 1,2,-1
 192 192 l 1,3,-1
 256 192 l 1,4,-1
 256 256 l 1,5,-1
 320 256 l 1,6,-1
 320 320 l 1,7,-1
 384 320 l 1,8,-1
 384 384 l 1,9,-1
 448 384 l 1,10,-1
 448 448 l 1,11,-1
 512 448 l 1,12,-1
 512 512 l 1,13,-1
 576 512 l 1,14,-1
 576 576 l 1,15,-1
 384 576 l 1,16,-1
 384 512 l 1,17,-1
 128 512 l 1,18,-1
 128 576 l 1,19,-1
 128 704 l 1,20,-1
 896 704 l 1,21,-1
 896 576 l 1,22,-1
 896 512 l 1,23,-1
 832 512 l 1,24,-1
 832 448 l 1,25,-1
 768 448 l 1,26,-1
 768 384 l 1,27,-1
 704 384 l 1,28,-1
 704 320 l 1,29,-1
 640 320 l 1,30,-1
 640 256 l 1,31,-1
 576 256 l 1,32,-1
 576 192 l 1,33,-1
 512 192 l 1,34,-1
 512 128 l 1,35,-1
 448 128 l 1,36,-1
 448 64 l 1,37,-1
 640 64 l 1,38,-1
 640 128 l 1,39,-1
 896 128 l 1,40,-1
 896 64 l 1,41,-1
 896 -64 l 1,42,-1
 832 -64 l 1,43,-1
 128 -64 l 1,44,-1
 128 0 l 1,0,-1
EndSplineSet
Validated: 1
EndChar

StartChar: bracketleft
Encoding: 91 91 62
Width: 1024
GlyphClass: 2
Flags: W
LayerCount: 2
Fore
SplineSet
512 64 m 1,0,-1
 768 64 l 1,1,-1
 768 -64 l 1,2,-1
 256 -64 l 1,3,-1
 256 64 l 1,4,-1
 256 576 l 1,5,-1
 256 704 l 1,6,-1
 768 704 l 1,7,-1
 768 576 l 1,8,-1
 512 576 l 1,9,-1
 512 64 l 1,0,-1
EndSplineSet
Validated: 1
EndChar

StartChar: backslash
Encoding: 92 92 63
Width: 1024
GlyphClass: 2
Flags: W
LayerCount: 2
Fore
SplineSet
128 512 m 1,0,-1
 128 640 l 1,1,-1
 192 640 l 1,2,-1
 192 704 l 1,3,-1
 320 704 l 1,4,-1
 320 640 l 1,5,-1
 384 640 l 1,6,-1
 384 576 l 1,7,-1
 448 576 l 1,8,-1
 448 512 l 1,9,-1
 512 512 l 1,10,-1
 512 448 l 1,11,-1
 576 448 l 1,12,-1
 576 384 l 1,13,-1
 640 384 l 1,14,-1
 640 320 l 1,15,-1
 704 320 l 1,16,-1
 704 256 l 1,17,-1
 768 256 l 1,18,-1
 768 192 l 1,19,-1
 832 192 l 1,20,-1
 832 128 l 1,21,-1
 896 128 l 1,22,-1
 896 0 l 1,23,-1
 832 0 l 1,24,-1
 832 -64 l 1,25,-1
 768 -64 l 1,26,-1
 704 -64 l 1,27,-1
 704 0 l 1,28,-1
 640 0 l 1,29,-1
 640 64 l 1,30,-1
 576 64 l 1,31,-1
 576 128 l 1,32,-1
 512 128 l 1,33,-1
 512 192 l 1,34,-1
 448 192 l 1,35,-1
 448 256 l 1,36,-1
 384 256 l 1,37,-1
 384 320 l 1,38,-1
 320 320 l 1,39,-1
 320 384 l 1,40,-1
 256 384 l 1,41,-1
 256 448 l 1,42,-1
 192 448 l 1,43,-1
 192 512 l 1,44,-1
 128 512 l 1,0,-1
EndSplineSet
Validated: 1
EndChar

StartChar: bracketright
Encoding: 93 93 64
Width: 1024
GlyphClass: 2
Flags: W
LayerCount: 2
Fore
SplineSet
256 -64 m 1,0,-1
 256 64 l 1,1,-1
 512 64 l 1,2,-1
 512 576 l 1,3,-1
 256 576 l 1,4,-1
 256 704 l 1,5,-1
 768 704 l 1,6,-1
 768 576 l 1,7,-1
 768 64 l 1,8,-1
 768 -64 l 1,9,-1
 256 -64 l 1,0,-1
EndSplineSet
Validated: 1
EndChar

StartChar: asciicircum
Encoding: 94 94 65
Width: 1024
GlyphClass: 2
Flags: W
LayerCount: 2
Fore
SplineSet
128 256 m 1,0,-1
 128 448 l 1,1,-1
 192 448 l 1,2,-1
 192 512 l 1,3,-1
 256 512 l 1,4,-1
 256 576 l 1,5,-1
 320 576 l 1,6,-1
 320 640 l 1,7,-1
 384 640 l 1,8,-1
 384 704 l 1,9,-1
 448 704 l 1,10,-1
 448 768 l 1,11,-1
 576 768 l 1,12,-1
 576 704 l 1,13,-1
 640 704 l 1,14,-1
 640 640 l 1,15,-1
 704 640 l 1,16,-1
 704 576 l 1,17,-1
 768 576 l 1,18,-1
 768 512 l 1,19,-1
 832 512 l 1,20,-1
 832 448 l 1,21,-1
 896 448 l 1,22,-1
 896 256 l 1,23,-1
 640 256 l 1,24,-1
 640 448 l 1,25,-1
 576 448 l 1,26,-1
 576 512 l 1,27,-1
 448 512 l 1,28,-1
 448 448 l 1,29,-1
 384 448 l 1,30,-1
 384 256 l 1,31,-1
 128 256 l 1,0,-1
EndSplineSet
Validated: 1
EndChar

StartChar: underscore
Encoding: 95 95 66
Width: 1024
GlyphClass: 2
Flags: W
LayerCount: 2
Fore
SplineSet
64 -128 m 1,0,-1
 64 0 l 1,1,-1
 960 0 l 1,2,-1
 960 -128 l 1,3,-1
 64 -128 l 1,0,-1
EndSplineSet
Validated: 1
EndChar

StartChar: grave
Encoding: 96 96 67
Width: 1024
GlyphClass: 2
Flags: W
LayerCount: 2
Fore
SplineSet
256 512 m 1,0,-1
 256 640 l 1,1,-1
 320 640 l 1,2,-1
 320 704 l 1,3,-1
 448 704 l 1,4,-1
 512 704 l 1,5,-1
 512 640 l 1,6,-1
 576 640 l 1,7,-1
 576 576 l 1,8,-1
 640 576 l 1,9,-1
 640 512 l 1,10,-1
 704 512 l 1,11,-1
 704 384 l 1,12,-1
 640 384 l 1,13,-1
 640 320 l 1,14,-1
 576 320 l 1,15,-1
 448 320 l 1,16,-1
 448 384 l 1,17,-1
 384 384 l 1,18,-1
 384 448 l 1,19,-1
 320 448 l 1,20,-1
 320 512 l 1,21,-1
 256 512 l 1,0,-1
EndSplineSet
Validated: 1
EndChar

StartChar: a
Encoding: 97 97 68
Width: 1024
GlyphClass: 2
Flags: W
LayerCount: 2
Fore
SplineSet
384 64 m 1,0,-1
 640 64 l 1,1,-1
 640 192 l 1,2,-1
 384 192 l 1,3,-1
 384 64 l 1,0,-1
128 384 m 1,4,-1
 128 448 l 1,5,-1
 192 448 l 1,6,-1
 192 512 l 1,7,-1
 832 512 l 1,8,-1
 832 448 l 1,9,-1
 896 448 l 1,10,-1
 896 320 l 1,11,-1
 896 64 l 1,12,-1
 960 64 l 1,13,-1
 960 -64 l 1,14,-1
 832 -64 l 1,15,-1
 192 -64 l 1,16,-1
 192 0 l 1,17,-1
 128 0 l 1,18,-1
 128 64 l 1,19,-1
 128 192 l 1,20,-1
 128 256 l 1,21,-1
 192 256 l 1,22,-1
 192 320 l 1,23,-1
 640 320 l 1,24,-1
 640 384 l 1,25,-1
 128 384 l 1,4,-1
EndSplineSet
Validated: 1
EndChar

StartChar: b
Encoding: 98 98 69
Width: 1024
GlyphClass: 2
Flags: W
LayerCount: 2
Fore
SplineSet
384 64 m 1,0,-1
 640 64 l 1,1,-1
 640 384 l 1,2,-1
 384 384 l 1,3,-1
 384 64 l 1,0,-1
64 -64 m 1,4,-1
 64 64 l 1,5,-1
 128 64 l 1,6,-1
 128 576 l 1,7,-1
 64 576 l 1,8,-1
 64 704 l 1,9,-1
 384 704 l 1,10,-1
 384 576 l 1,11,-1
 384 512 l 1,12,-1
 640 512 l 1,13,-1
 768 512 l 1,14,-1
 832 512 l 1,15,-1
 832 448 l 1,16,-1
 896 448 l 1,17,-1
 896 0 l 1,18,-1
 832 0 l 1,19,-1
 832 -64 l 1,20,-1
 768 -64 l 1,21,-1
 64 -64 l 1,4,-1
EndSplineSet
Validated: 1
EndChar

StartChar: c
Encoding: 99 99 70
Width: 1024
GlyphClass: 2
Flags: W
LayerCount: 2
Fore
SplineSet
192 0 m 1,0,-1
 128 0 l 1,1,-1
 128 384 l 1,2,-1
 128 448 l 1,3,-1
 192 448 l 1,4,-1
 192 512 l 1,5,-1
 832 512 l 1,6,-1
 832 448 l 1,7,-1
 896 448 l 1,8,-1
 896 320 l 1,9,-1
 640 320 l 1,10,-1
 640 384 l 1,11,-1
 384 384 l 1,12,-1
 384 64 l 1,13,-1
 640 64 l 1,14,-1
 640 128 l 1,15,-1
 896 128 l 1,16,-1
 896 0 l 1,17,-1
 832 0 l 1,18,-1
 832 -64 l 1,19,-1
 192 -64 l 1,20,-1
 192 0 l 1,0,-1
EndSplineSet
Validated: 1
EndChar

StartChar: d
Encoding: 100 100 71
Width: 1024
GlyphClass: 2
Flags: W
LayerCount: 2
Fore
SplineSet
384 384 m 1,0,-1
 384 64 l 1,1,-1
 640 64 l 1,2,-1
 640 384 l 1,3,-1
 384 384 l 1,0,-1
576 576 m 1,4,-1
 576 704 l 1,5,-1
 896 704 l 1,6,-1
 896 576 l 1,7,-1
 896 512 l 1,8,-1
 896 64 l 1,9,-1
 960 64 l 1,10,-1
 960 -64 l 1,11,-1
 896 -64 l 1,12,-1
 832 -64 l 1,13,-1
 768 -64 l 1,14,-1
 192 -64 l 1,15,-1
 192 0 l 1,16,-1
 128 0 l 1,17,-1
 128 384 l 1,18,-1
 128 448 l 1,19,-1
 192 448 l 1,20,-1
 192 512 l 1,21,-1
 640 512 l 1,22,-1
 640 576 l 1,23,-1
 576 576 l 1,4,-1
EndSplineSet
Validated: 1
EndChar

StartChar: e
Encoding: 101 101 72
Width: 1024
GlyphClass: 2
Flags: W
LayerCount: 2
Fore
SplineSet
384 320 m 1,0,-1
 640 320 l 1,1,-1
 640 384 l 1,2,-1
 384 384 l 1,3,-1
 384 320 l 1,0,-1
192 0 m 1,4,-1
 128 0 l 1,5,-1
 128 64 l 1,6,-1
 128 192 l 1,7,-1
 128 256 l 1,8,-1
 128 384 l 1,9,-1
 128 448 l 1,10,-1
 192 448 l 1,11,-1
 192 512 l 1,12,-1
 832 512 l 1,13,-1
 832 448 l 1,14,-1
 896 448 l 1,15,-1
 896 320 l 1,16,-1
 896 256 l 1,17,-1
 832 256 l 1,18,-1
 832 192 l 1,19,-1
 384 192 l 1,20,-1
 384 64 l 1,21,-1
 640 64 l 1,22,-1
 640 128 l 1,23,-1
 896 128 l 1,24,-1
 896 0 l 1,25,-1
 832 0 l 1,26,-1
 832 -64 l 1,27,-1
 192 -64 l 1,28,-1
 192 0 l 1,4,-1
EndSplineSet
Validated: 1
EndChar

StartChar: f
Encoding: 102 102 73
Width: 1024
GlyphClass: 2
Flags: W
LayerCount: 2
Fore
SplineSet
64 256 m 1,0,-1
 64 384 l 1,1,-1
 128 384 l 1,2,-1
 128 576 l 1,3,-1
 128 640 l 1,4,-1
 192 640 l 1,5,-1
 192 704 l 1,6,-1
 832 704 l 1,7,-1
 832 640 l 1,8,-1
 896 640 l 1,9,-1
 896 448 l 1,10,-1
 640 448 l 1,11,-1
 640 576 l 1,12,-1
 384 576 l 1,13,-1
 384 384 l 1,14,-1
 576 384 l 1,15,-1
 576 256 l 1,16,-1
 384 256 l 1,17,-1
 384 64 l 1,18,-1
 448 64 l 1,19,-1
 448 -64 l 1,20,-1
 64 -64 l 1,21,-1
 64 64 l 1,22,-1
 128 64 l 1,23,-1
 128 256 l 1,24,-1
 64 256 l 1,0,-1
EndSplineSet
Validated: 1
EndChar

StartChar: g
Encoding: 103 103 74
Width: 1024
GlyphClass: 2
Flags: W
LayerCount: 2
Fore
SplineSet
640 256 m 1,0,-1
 640 384 l 1,1,-1
 384 384 l 1,2,-1
 384 256 l 1,3,-1
 640 256 l 1,0,-1
128 -64 m 1,4,-1
 128 64 l 1,5,-1
 384 64 l 1,6,-1
 384 0 l 1,7,-1
 640 0 l 1,8,-1
 640 128 l 1,9,-1
 192 128 l 1,10,-1
 192 192 l 1,11,-1
 128 192 l 1,12,-1
 128 256 l 1,13,-1
 128 384 l 1,14,-1
 128 448 l 1,15,-1
 192 448 l 1,16,-1
 192 512 l 1,17,-1
 960 512 l 1,18,-1
 960 448 l 1,19,-1
 960 384 l 1,20,-1
 896 384 l 1,21,-1
 896 192 l 1,22,-1
 896 -64 l 1,23,-1
 832 -64 l 1,24,-1
 832 -128 l 1,25,-1
 768 -128 l 1,26,-1
 192 -128 l 1,27,-1
 192 -64 l 1,28,-1
 128 -64 l 1,4,-1
EndSplineSet
Validated: 1
EndChar

StartChar: h
Encoding: 104 104 75
Width: 1024
GlyphClass: 2
Flags: W
LayerCount: 2
Fore
SplineSet
64 -64 m 1,0,-1
 64 64 l 1,1,-1
 128 64 l 1,2,-1
 128 576 l 1,3,-1
 64 576 l 1,4,-1
 64 704 l 1,5,-1
 384 704 l 1,6,-1
 384 576 l 1,7,-1
 384 512 l 1,8,-1
 640 512 l 1,9,-1
 832 512 l 1,10,-1
 832 448 l 1,11,-1
 896 448 l 1,12,-1
 896 -64 l 1,13,-1
 832 -64 l 1,14,-1
 640 -64 l 1,15,-1
 640 384 l 1,16,-1
 384 384 l 1,17,-1
 384 64 l 1,18,-1
 384 -64 l 1,19,-1
 64 -64 l 1,0,-1
EndSplineSet
Validated: 1
EndChar

StartChar: i
Encoding: 105 105 76
Width: 1024
GlyphClass: 2
Flags: W
LayerCount: 2
Fore
SplineSet
384 576 m 1,0,-1
 384 704 l 1,1,-1
 640 704 l 1,2,-1
 640 576 l 1,3,-1
 384 576 l 1,0,-1
192 -64 m 1,4,-1
 192 64 l 1,5,-1
 384 64 l 1,6,-1
 384 384 l 1,7,-1
 256 384 l 1,8,-1
 256 512 l 1,9,-1
 640 512 l 1,10,-1
 640 384 l 1,11,-1
 640 64 l 1,12,-1
 832 64 l 1,13,-1
 832 -64 l 1,14,-1
 192 -64 l 1,4,-1
EndSplineSet
Validated: 1
EndChar

StartChar: j
Encoding: 106 106 77
Width: 1024
GlyphClass: 2
Flags: W
LayerCount: 2
Fore
SplineSet
640 576 m 1,0,-1
 640 704 l 1,1,-1
 896 704 l 1,2,-1
 896 576 l 1,3,-1
 640 576 l 1,0,-1
192 -64 m 1,4,-1
 192 64 l 1,5,-1
 448 64 l 1,6,-1
 448 0 l 1,7,-1
 640 0 l 1,8,-1
 640 384 l 1,9,-1
 576 384 l 1,10,-1
 576 512 l 1,11,-1
 960 512 l 1,12,-1
 960 384 l 1,13,-1
 896 384 l 1,14,-1
 896 0 l 1,15,-1
 896 -64 l 1,16,-1
 832 -64 l 1,17,-1
 832 -128 l 1,18,-1
 256 -128 l 1,19,-1
 256 -64 l 1,20,-1
 192 -64 l 1,4,-1
EndSplineSet
Validated: 1
EndChar

StartChar: k
Encoding: 107 107 78
Width: 1024
GlyphClass: 2
Flags: W
LayerCount: 2
Fore
SplineSet
64 -64 m 1,0,-1
 64 64 l 1,1,-1
 128 64 l 1,2,-1
 128 192 l 1,3,-1
 128 320 l 1,4,-1
 128 576 l 1,5,-1
 64 576 l 1,6,-1
 64 704 l 1,7,-1
 384 704 l 1,8,-1
 384 576 l 1,9,-1
 384 320 l 1,10,-1
 512 320 l 1,11,-1
 512 384 l 1,12,-1
 576 384 l 1,13,-1
 576 448 l 1,14,-1
 640 448 l 1,15,-1
 640 576 l 1,16,-1
 896 576 l 1,17,-1
 896 448 l 1,18,-1
 896 384 l 1,19,-1
 832 384 l 1,20,-1
 832 320 l 1,21,-1
 704 320 l 1,22,-1
 704 256 l 1,23,-1
 768 256 l 1,24,-1
 768 192 l 1,25,-1
 832 192 l 1,26,-1
 832 128 l 1,27,-1
 896 128 l 1,28,-1
 896 -64 l 1,29,-1
 832 -64 l 1,30,-1
 768 -64 l 1,31,-1
 640 -64 l 1,32,-1
 640 128 l 1,33,-1
 576 128 l 1,34,-1
 576 192 l 1,35,-1
 384 192 l 1,36,-1
 384 64 l 1,37,-1
 384 -64 l 1,38,-1
 64 -64 l 1,0,-1
EndSplineSet
Validated: 1
EndChar

StartChar: l
Encoding: 108 108 79
Width: 1024
GlyphClass: 2
Flags: W
LayerCount: 2
Fore
SplineSet
192 -64 m 1,0,-1
 192 64 l 1,1,-1
 384 64 l 1,2,-1
 384 576 l 1,3,-1
 256 576 l 1,4,-1
 256 704 l 1,5,-1
 640 704 l 1,6,-1
 640 576 l 1,7,-1
 640 64 l 1,8,-1
 832 64 l 1,9,-1
 832 -64 l 1,10,-1
 192 -64 l 1,0,-1
EndSplineSet
Validated: 1
EndChar

StartChar: m
Encoding: 109 109 80
Width: 1024
GlyphClass: 2
Flags: W
LayerCount: 2
Fore
SplineSet
448 384 m 1,0,-1
 384 384 l 1,1,-1
 384 -64 l 1,2,-1
 128 -64 l 1,3,-1
 128 384 l 1,4,-1
 128 448 l 1,5,-1
 192 448 l 1,6,-1
 192 512 l 1,7,-1
 832 512 l 1,8,-1
 832 448 l 1,9,-1
 896 448 l 1,10,-1
 896 -64 l 1,11,-1
 640 -64 l 1,12,-1
 640 384 l 1,13,-1
 576 384 l 1,14,-1
 576 128 l 1,15,-1
 448 128 l 1,16,-1
 448 384 l 1,0,-1
EndSplineSet
Validated: 1
EndChar

StartChar: n
Encoding: 110 110 81
Width: 1024
GlyphClass: 2
Flags: W
LayerCount: 2
Fore
SplineSet
384 384 m 1,0,-1
 384 -64 l 1,1,-1
 128 -64 l 1,2,-1
 128 384 l 1,3,-1
 128 448 l 1,4,-1
 192 448 l 1,5,-1
 192 512 l 1,6,-1
 832 512 l 1,7,-1
 832 448 l 1,8,-1
 896 448 l 1,9,-1
 896 -64 l 1,10,-1
 640 -64 l 1,11,-1
 640 384 l 1,12,-1
 384 384 l 1,0,-1
EndSplineSet
Validated: 1
EndChar

StartChar: o
Encoding: 111 111 82
Width: 1024
GlyphClass: 2
Flags: W
LayerCount: 2
Fore
SplineSet
640 64 m 1,0,-1
 640 384 l 1,1,-1
 384 384 l 1,2,-1
 384 64 l 1,3,-1
 640 64 l 1,0,-1
192 0 m 1,4,-1
 128 0 l 1,5,-1
 128 384 l 1,6,-1
 128 448 l 1,7,-1
 192 448 l 1,8,-1
 192 512 l 1,9,-1
 832 512 l 1,10,-1
 832 448 l 1,11,-1
 896 448 l 1,12,-1
 896 64 l 1,13,-1
 896 0 l 1,14,-1
 832 0 l 1,15,-1
 832 -64 l 1,16,-1
 192 -64 l 1,17,-1
 192 0 l 1,4,-1
EndSplineSet
Validated: 1
EndChar

StartChar: p
Encoding: 112 112 83
Width: 1024
GlyphClass: 2
Flags: W
LayerCount: 2
Fore
SplineSet
384 384 m 1,0,-1
 384 192 l 1,1,-1
 640 192 l 1,2,-1
 640 384 l 1,3,-1
 384 384 l 1,0,-1
64 384 m 1,4,-1
 64 512 l 1,5,-1
 832 512 l 1,6,-1
 832 448 l 1,7,-1
 896 448 l 1,8,-1
 896 128 l 1,9,-1
 832 128 l 1,10,-1
 832 64 l 1,11,-1
 640 64 l 1,12,-1
 384 64 l 1,13,-1
 384 0 l 1,14,-1
 448 0 l 1,15,-1
 448 -128 l 1,16,-1
 64 -128 l 1,17,-1
 64 0 l 1,18,-1
 128 0 l 1,19,-1
 128 384 l 1,20,-1
 64 384 l 1,4,-1
EndSplineSet
Validated: 1
EndChar

StartChar: q
Encoding: 113 113 84
Width: 1024
GlyphClass: 2
Flags: W
LayerCount: 2
Fore
SplineSet
384 384 m 1,0,-1
 384 192 l 1,1,-1
 640 192 l 1,2,-1
 640 384 l 1,3,-1
 384 384 l 1,0,-1
576 -128 m 1,4,-1
 576 0 l 1,5,-1
 640 0 l 1,6,-1
 640 64 l 1,7,-1
 192 64 l 1,8,-1
 192 128 l 1,9,-1
 128 128 l 1,10,-1
 128 384 l 1,11,-1
 128 448 l 1,12,-1
 192 448 l 1,13,-1
 192 512 l 1,14,-1
 960 512 l 1,15,-1
 960 448 l 1,16,-1
 960 384 l 1,17,-1
 896 384 l 1,18,-1
 896 128 l 1,19,-1
 896 0 l 1,20,-1
 960 0 l 1,21,-1
 960 -64 l 1,22,-1
 960 -128 l 1,23,-1
 768 -128 l 1,24,-1
 576 -128 l 1,4,-1
EndSplineSet
Validated: 1
EndChar

StartChar: r
Encoding: 114 114 85
Width: 1024
GlyphClass: 2
Flags: W
LayerCount: 2
Fore
SplineSet
64 384 m 1,0,-1
 64 512 l 1,1,-1
 832 512 l 1,2,-1
 832 448 l 1,3,-1
 896 448 l 1,4,-1
 896 256 l 1,5,-1
 832 256 l 1,6,-1
 640 256 l 1,7,-1
 640 384 l 1,8,-1
 384 384 l 1,9,-1
 384 64 l 1,10,-1
 448 64 l 1,11,-1
 448 -64 l 1,12,-1
 64 -64 l 1,13,-1
 64 64 l 1,14,-1
 128 64 l 1,15,-1
 128 384 l 1,16,-1
 64 384 l 1,0,-1
EndSplineSet
Validated: 1
EndChar

StartChar: s
Encoding: 115 115 86
Width: 1024
GlyphClass: 2
Flags: W
LayerCount: 2
Fore
SplineSet
128 0 m 1,0,-1
 128 64 l 1,1,-1
 640 64 l 1,2,-1
 640 192 l 1,3,-1
 192 192 l 1,4,-1
 192 256 l 1,5,-1
 128 256 l 1,6,-1
 128 384 l 1,7,-1
 128 448 l 1,8,-1
 192 448 l 1,9,-1
 192 512 l 1,10,-1
 832 512 l 1,11,-1
 832 448 l 1,12,-1
 896 448 l 1,13,-1
 896 384 l 1,14,-1
 384 384 l 1,15,-1
 384 320 l 1,16,-1
 768 320 l 1,17,-1
 832 320 l 1,18,-1
 832 256 l 1,19,-1
 896 256 l 1,20,-1
 896 0 l 1,21,-1
 832 0 l 1,22,-1
 832 -64 l 1,23,-1
 768 -64 l 1,24,-1
 704 -64 l 1,25,-1
 640 -64 l 1,26,-1
 192 -64 l 1,27,-1
 192 0 l 1,28,-1
 128 0 l 1,0,-1
EndSplineSet
Validated: 1
EndChar

StartChar: t
Encoding: 116 116 87
Width: 1024
GlyphClass: 2
Flags: W
LayerCount: 2
Fore
SplineSet
192 384 m 1,0,-1
 192 512 l 1,1,-1
 384 512 l 1,2,-1
 384 640 l 1,3,-1
 448 640 l 1,4,-1
 448 704 l 1,5,-1
 576 704 l 1,6,-1
 640 704 l 1,7,-1
 640 512 l 1,8,-1
 896 512 l 1,9,-1
 896 448 l 1,10,-1
 896 384 l 1,11,-1
 640 384 l 1,12,-1
 640 64 l 1,13,-1
 768 64 l 1,14,-1
 832 64 l 1,15,-1
 832 -64 l 1,16,-1
 768 -64 l 1,17,-1
 448 -64 l 1,18,-1
 448 0 l 1,19,-1
 384 0 l 1,20,-1
 384 64 l 1,21,-1
 384 384 l 1,22,-1
 192 384 l 1,0,-1
EndSplineSet
Validated: 1
EndChar

StartChar: u
Encoding: 117 117 88
Width: 1024
GlyphClass: 2
Flags: W
LayerCount: 2
Fore
SplineSet
128 0 m 1,0,-1
 128 512 l 1,1,-1
 384 512 l 1,2,-1
 384 64 l 1,3,-1
 640 64 l 1,4,-1
 640 512 l 1,5,-1
 896 512 l 1,6,-1
 896 0 l 1,7,-1
 832 0 l 1,8,-1
 832 -64 l 1,9,-1
 192 -64 l 1,10,-1
 192 0 l 1,11,-1
 128 0 l 1,0,-1
EndSplineSet
Validated: 1
EndChar

StartChar: v
Encoding: 118 118 89
Width: 1024
GlyphClass: 2
Flags: W
LayerCount: 2
Fore
SplineSet
128 256 m 1,0,-1
 128 512 l 1,1,-1
 384 512 l 1,2,-1
 384 320 l 1,3,-1
 448 320 l 1,4,-1
 448 256 l 1,5,-1
 576 256 l 1,6,-1
 576 320 l 1,7,-1
 640 320 l 1,8,-1
 640 512 l 1,9,-1
 896 512 l 1,10,-1
 896 320 l 1,11,-1
 896 256 l 1,12,-1
 832 256 l 1,13,-1
 832 192 l 1,14,-1
 768 192 l 1,15,-1
 768 128 l 1,16,-1
 704 128 l 1,17,-1
 704 64 l 1,18,-1
 640 64 l 1,19,-1
 640 0 l 1,20,-1
 576 0 l 1,21,-1
 576 -64 l 1,22,-1
 448 -64 l 1,23,-1
 448 0 l 1,24,-1
 384 0 l 1,25,-1
 384 64 l 1,26,-1
 320 64 l 1,27,-1
 320 128 l 1,28,-1
 256 128 l 1,29,-1
 256 192 l 1,30,-1
 192 192 l 1,31,-1
 192 256 l 1,32,-1
 128 256 l 1,0,-1
EndSplineSet
Validated: 1
EndChar

StartChar: w
Encoding: 119 119 90
Width: 1024
GlyphClass: 2
Flags: W
LayerCount: 2
Fore
SplineSet
128 64 m 1,0,-1
 128 512 l 1,1,-1
 384 512 l 1,2,-1
 384 320 l 1,3,-1
 448 320 l 1,4,-1
 448 384 l 1,5,-1
 576 384 l 1,6,-1
 576 320 l 1,7,-1
 640 320 l 1,8,-1
 640 512 l 1,9,-1
 896 512 l 1,10,-1
 896 64 l 1,11,-1
 832 64 l 1,12,-1
 832 0 l 1,13,-1
 768 0 l 1,14,-1
 768 -64 l 1,15,-1
 640 -64 l 1,16,-1
 640 0 l 1,17,-1
 576 0 l 1,18,-1
 576 64 l 1,19,-1
 448 64 l 1,20,-1
 448 0 l 1,21,-1
 384 0 l 1,22,-1
 384 -64 l 1,23,-1
 256 -64 l 1,24,-1
 256 0 l 1,25,-1
 192 0 l 1,26,-1
 192 64 l 1,27,-1
 128 64 l 1,0,-1
EndSplineSet
Validated: 1
EndChar

StartChar: x
Encoding: 120 120 91
Width: 1024
GlyphClass: 2
Flags: W
LayerCount: 2
Fore
SplineSet
128 -64 m 1,0,-1
 128 64 l 1,1,-1
 192 64 l 1,2,-1
 192 128 l 1,3,-1
 256 128 l 1,4,-1
 256 192 l 1,5,-1
 320 192 l 1,6,-1
 320 256 l 1,7,-1
 256 256 l 1,8,-1
 256 320 l 1,9,-1
 192 320 l 1,10,-1
 192 384 l 1,11,-1
 128 384 l 1,12,-1
 128 512 l 1,13,-1
 384 512 l 1,14,-1
 384 384 l 1,15,-1
 448 384 l 1,16,-1
 448 320 l 1,17,-1
 576 320 l 1,18,-1
 576 384 l 1,19,-1
 640 384 l 1,20,-1
 640 512 l 1,21,-1
 896 512 l 1,22,-1
 896 384 l 1,23,-1
 832 384 l 1,24,-1
 832 320 l 1,25,-1
 768 320 l 1,26,-1
 768 256 l 1,27,-1
 704 256 l 1,28,-1
 704 192 l 1,29,-1
 768 192 l 1,30,-1
 768 128 l 1,31,-1
 832 128 l 1,32,-1
 832 64 l 1,33,-1
 896 64 l 1,34,-1
 896 -64 l 1,35,-1
 640 -64 l 1,36,-1
 640 64 l 1,37,-1
 576 64 l 1,38,-1
 576 128 l 1,39,-1
 448 128 l 1,40,-1
 448 64 l 1,41,-1
 384 64 l 1,42,-1
 384 -64 l 1,43,-1
 128 -64 l 1,0,-1
EndSplineSet
Validated: 1
EndChar

StartChar: y
Encoding: 121 121 92
Width: 1024
GlyphClass: 2
Flags: W
LayerCount: 2
Fore
SplineSet
128 -64 m 1,0,-1
 128 64 l 1,1,-1
 384 64 l 1,2,-1
 384 0 l 1,3,-1
 640 0 l 1,4,-1
 640 128 l 1,5,-1
 192 128 l 1,6,-1
 192 192 l 1,7,-1
 128 192 l 1,8,-1
 128 256 l 1,9,-1
 128 512 l 1,10,-1
 384 512 l 1,11,-1
 384 256 l 1,12,-1
 640 256 l 1,13,-1
 640 512 l 1,14,-1
 896 512 l 1,15,-1
 896 192 l 1,16,-1
 896 -64 l 1,17,-1
 832 -64 l 1,18,-1
 832 -128 l 1,19,-1
 768 -128 l 1,20,-1
 192 -128 l 1,21,-1
 192 -64 l 1,22,-1
 128 -64 l 1,0,-1
EndSplineSet
Validated: 1
EndChar

StartChar: z
Encoding: 122 122 93
Width: 1024
GlyphClass: 2
Flags: W
LayerCount: 2
Fore
SplineSet
128 -64 m 1,0,-1
 128 64 l 1,1,-1
 192 64 l 1,2,-1
 192 128 l 1,3,-1
 256 128 l 1,4,-1
 256 192 l 1,5,-1
 320 192 l 1,6,-1
 320 256 l 1,7,-1
 384 256 l 1,8,-1
 384 320 l 1,9,-1
 448 320 l 1,10,-1
 448 384 l 1,11,-1
 128 384 l 1,12,-1
 128 512 l 1,13,-1
 896 512 l 1,14,-1
 896 384 l 1,15,-1
 832 384 l 1,16,-1
 832 320 l 1,17,-1
 768 320 l 1,18,-1
 768 256 l 1,19,-1
 704 256 l 1,20,-1
 704 192 l 1,21,-1
 640 192 l 1,22,-1
 640 128 l 1,23,-1
 576 128 l 1,24,-1
 576 64 l 1,25,-1
 896 64 l 1,26,-1
 896 -64 l 1,27,-1
 128 -64 l 1,0,-1
EndSplineSet
Validated: 1
EndChar

StartChar: braceleft
Encoding: 123 123 94
Width: 1024
GlyphClass: 2
Flags: W
LayerCount: 2
Fore
SplineSet
256 256 m 1,0,-1
 256 384 l 1,1,-1
 320 384 l 1,2,-1
 320 448 l 1,3,-1
 384 448 l 1,4,-1
 384 576 l 1,5,-1
 384 640 l 1,6,-1
 448 640 l 1,7,-1
 448 704 l 1,8,-1
 704 704 l 1,9,-1
 768 704 l 1,10,-1
 768 576 l 1,11,-1
 704 576 l 1,12,-1
 640 576 l 1,13,-1
 640 448 l 1,14,-1
 640 192 l 1,15,-1
 640 64 l 1,16,-1
 768 64 l 1,17,-1
 768 0 l 1,18,-1
 768 -64 l 1,19,-1
 448 -64 l 1,20,-1
 448 0 l 1,21,-1
 384 0 l 1,22,-1
 384 64 l 1,23,-1
 384 192 l 1,24,-1
 320 192 l 1,25,-1
 320 256 l 1,26,-1
 256 256 l 1,0,-1
EndSplineSet
Validated: 1
EndChar

StartChar: bar
Encoding: 124 124 95
Width: 1024
GlyphClass: 2
Flags: W
LayerCount: 2
Fore
SplineSet
384 384 m 1,0,-1
 384 768 l 1,1,-1
 640 768 l 1,2,-1
 640 384 l 1,3,-1
 384 384 l 1,0,-1
384 -128 m 1,4,-1
 384 256 l 1,5,-1
 640 256 l 1,6,-1
 640 -128 l 1,7,-1
 384 -128 l 1,4,-1
EndSplineSet
Validated: 1
EndChar

StartChar: braceright
Encoding: 125 125 96
Width: 1024
GlyphClass: 2
Flags: W
LayerCount: 2
Fore
SplineSet
256 -64 m 1,0,-1
 256 64 l 1,1,-1
 384 64 l 1,2,-1
 384 576 l 1,3,-1
 256 576 l 1,4,-1
 256 704 l 1,5,-1
 512 704 l 1,6,-1
 576 704 l 1,7,-1
 576 640 l 1,8,-1
 640 640 l 1,9,-1
 640 448 l 1,10,-1
 704 448 l 1,11,-1
 704 384 l 1,12,-1
 768 384 l 1,13,-1
 768 256 l 1,14,-1
 704 256 l 1,15,-1
 704 192 l 1,16,-1
 640 192 l 1,17,-1
 640 0 l 1,18,-1
 576 0 l 1,19,-1
 576 -64 l 1,20,-1
 512 -64 l 1,21,-1
 256 -64 l 1,0,-1
EndSplineSet
Validated: 1
EndChar

StartChar: asciitilde
Encoding: 126 126 97
Width: 1024
GlyphClass: 2
Flags: W
LayerCount: 2
Fore
SplineSet
768 256 m 1,0,-1
 768 192 l 1,1,-1
 704 192 l 1,2,-1
 704 128 l 1,3,-1
 512 128 l 1,4,-1
 512 192 l 1,5,-1
 448 192 l 1,6,-1
 448 256 l 1,7,-1
 384 256 l 1,8,-1
 384 320 l 1,9,-1
 320 320 l 1,10,-1
 256 320 l 1,11,-1
 192 320 l 1,12,-1
 192 256 l 1,13,-1
 64 256 l 1,14,-1
 64 320 l 1,15,-1
 64 384 l 1,16,-1
 128 384 l 1,17,-1
 128 448 l 1,18,-1
 192 448 l 1,19,-1
 192 512 l 1,20,-1
 256 512 l 1,21,-1
 256 576 l 1,22,-1
 384 576 l 1,23,-1
 448 576 l 1,24,-1
 448 512 l 1,25,-1
 512 512 l 1,26,-1
 512 448 l 1,27,-1
 576 448 l 1,28,-1
 576 384 l 1,29,-1
 768 384 l 1,30,-1
 768 448 l 1,31,-1
 896 448 l 1,32,-1
 896 384 l 1,33,-1
 896 320 l 1,34,-1
 832 320 l 1,35,-1
 832 256 l 1,36,-1
 768 256 l 1,0,-1
EndSplineSet
Validated: 1
EndChar

StartChar: exclamdown
Encoding: 161 161 99
Width: 1024
GlyphClass: 2
Flags: W
LayerCount: 2
Fore
SplineSet
320 512 m 1,0,-1
 320 640 l 1,1,-1
 384 640 l 1,2,-1
 384 704 l 1,3,-1
 640 704 l 1,4,-1
 640 640 l 1,5,-1
 704 640 l 1,6,-1
 704 512 l 1,7,-1
 640 512 l 1,8,-1
 640 448 l 1,9,-1
 384 448 l 1,10,-1
 384 512 l 1,11,-1
 320 512 l 1,0,-1
320 0 m 1,12,-1
 320 320 l 1,13,-1
 384 320 l 1,14,-1
 384 384 l 1,15,-1
 640 384 l 1,16,-1
 640 320 l 1,17,-1
 704 320 l 1,18,-1
 704 0 l 1,19,-1
 640 0 l 1,20,-1
 640 -64 l 1,21,-1
 384 -64 l 1,22,-1
 384 0 l 1,23,-1
 320 0 l 1,12,-1
EndSplineSet
Validated: 1
EndChar

StartChar: cent
Encoding: 162 162 100
Width: 1024
GlyphClass: 2
Flags: W
LayerCount: 2
Fore
SplineSet
384 64 m 1,0,-1
 192 64 l 1,1,-1
 192 128 l 1,2,-1
 128 128 l 1,3,-1
 128 192 l 1,4,-1
 128 448 l 1,5,-1
 128 512 l 1,6,-1
 192 512 l 1,7,-1
 192 576 l 1,8,-1
 384 576 l 1,9,-1
 384 704 l 1,10,-1
 640 704 l 1,11,-1
 640 576 l 1,12,-1
 832 576 l 1,13,-1
 832 512 l 1,14,-1
 896 512 l 1,15,-1
 896 384 l 1,16,-1
 640 384 l 1,17,-1
 640 448 l 1,18,-1
 384 448 l 1,19,-1
 384 192 l 1,20,-1
 640 192 l 1,21,-1
 640 256 l 1,22,-1
 896 256 l 1,23,-1
 896 128 l 1,24,-1
 832 128 l 1,25,-1
 832 64 l 1,26,-1
 640 64 l 1,27,-1
 640 -64 l 1,28,-1
 384 -64 l 1,29,-1
 384 64 l 1,0,-1
EndSplineSet
Validated: 1
EndChar

StartChar: sterling
Encoding: 163 163 101
Width: 1024
GlyphClass: 2
Flags: W
LayerCount: 2
Fore
SplineSet
128 256 m 1,0,-1
 128 384 l 1,1,-1
 256 384 l 1,2,-1
 256 576 l 1,3,-1
 256 640 l 1,4,-1
 320 640 l 1,5,-1
 320 704 l 1,6,-1
 832 704 l 1,7,-1
 832 640 l 1,8,-1
 896 640 l 1,9,-1
 896 512 l 1,10,-1
 768 512 l 1,11,-1
 640 512 l 1,12,-1
 640 576 l 1,13,-1
 512 576 l 1,14,-1
 512 384 l 1,15,-1
 768 384 l 1,16,-1
 768 256 l 1,17,-1
 512 256 l 1,18,-1
 512 192 l 1,19,-1
 512 128 l 1,20,-1
 448 128 l 1,21,-1
 448 64 l 1,22,-1
 896 64 l 1,23,-1
 896 -64 l 1,24,-1
 448 -64 l 1,25,-1
 192 -64 l 1,26,-1
 192 0 l 1,27,-1
 128 0 l 1,28,-1
 128 128 l 1,29,-1
 192 128 l 1,30,-1
 192 192 l 1,31,-1
 256 192 l 1,32,-1
 256 256 l 1,33,-1
 128 256 l 1,0,-1
EndSplineSet
Validated: 1
EndChar

StartChar: yen
Encoding: 165 165 102
Width: 1024
GlyphClass: 2
Flags: W
LayerCount: 2
Fore
SplineSet
320 -64 m 1,0,-1
 320 64 l 1,1,-1
 384 64 l 1,2,-1
 384 128 l 1,3,-1
 192 128 l 1,4,-1
 192 192 l 1,5,-1
 384 192 l 1,6,-1
 384 256 l 1,7,-1
 192 256 l 1,8,-1
 192 320 l 1,9,-1
 320 320 l 1,10,-1
 320 384 l 1,11,-1
 256 384 l 1,12,-1
 256 448 l 1,13,-1
 192 448 l 1,14,-1
 192 512 l 1,15,-1
 128 512 l 1,16,-1
 128 704 l 1,17,-1
 384 704 l 1,18,-1
 384 576 l 1,19,-1
 448 576 l 1,20,-1
 448 512 l 1,21,-1
 576 512 l 1,22,-1
 576 576 l 1,23,-1
 640 576 l 1,24,-1
 640 704 l 1,25,-1
 896 704 l 1,26,-1
 896 576 l 1,27,-1
 896 512 l 1,28,-1
 832 512 l 1,29,-1
 832 448 l 1,30,-1
 768 448 l 1,31,-1
 768 384 l 1,32,-1
 704 384 l 1,33,-1
 704 320 l 1,34,-1
 832 320 l 1,35,-1
 832 256 l 1,36,-1
 704 256 l 1,37,-1
 640 256 l 1,38,-1
 640 192 l 1,39,-1
 832 192 l 1,40,-1
 832 128 l 1,41,-1
 640 128 l 1,42,-1
 640 64 l 1,43,-1
 704 64 l 1,44,-1
 704 -64 l 1,45,-1
 320 -64 l 1,0,-1
EndSplineSet
Validated: 1
EndChar

StartChar: section
Encoding: 167 167 103
Width: 1024
GlyphClass: 2
Flags: W
LayerCount: 2
Fore
SplineSet
704 384 m 1,0,-1
 320 384 l 1,1,-1
 320 256 l 1,2,-1
 704 256 l 1,3,-1
 704 384 l 1,0,-1
128 -64 m 1,4,-1
 128 64 l 1,5,-1
 320 64 l 1,6,-1
 320 0 l 1,7,-1
 576 0 l 1,8,-1
 704 0 l 1,9,-1
 704 64 l 1,10,-1
 768 64 l 1,11,-1
 768 192 l 1,12,-1
 704 192 l 1,13,-1
 704 128 l 1,14,-1
 192 128 l 1,15,-1
 192 192 l 1,16,-1
 128 192 l 1,17,-1
 128 256 l 1,18,-1
 128 384 l 1,19,-1
 128 448 l 1,20,-1
 128 576 l 1,21,-1
 128 640 l 1,22,-1
 128 704 l 1,23,-1
 192 704 l 1,24,-1
 192 768 l 1,25,-1
 832 768 l 1,26,-1
 832 704 l 1,27,-1
 896 704 l 1,28,-1
 896 640 l 1,29,-1
 896 576 l 1,30,-1
 704 576 l 1,31,-1
 704 640 l 1,32,-1
 320 640 l 1,33,-1
 320 576 l 1,34,-1
 256 576 l 1,35,-1
 256 448 l 1,36,-1
 320 448 l 1,37,-1
 320 512 l 1,38,-1
 832 512 l 1,39,-1
 832 448 l 1,40,-1
 896 448 l 1,41,-1
 896 384 l 1,42,-1
 896 256 l 1,43,-1
 896 192 l 1,44,-1
 896 64 l 1,45,-1
 896 -64 l 1,46,-1
 832 -64 l 1,47,-1
 832 -128 l 1,48,-1
 704 -128 l 1,49,-1
 576 -128 l 1,50,-1
 192 -128 l 1,51,-1
 192 -64 l 1,52,-1
 128 -64 l 1,4,-1
EndSplineSet
Validated: 1
EndChar

StartChar: ordfeminine
Encoding: 170 170 104
Width: 1024
GlyphClass: 2
Flags: W
LayerCount: 2
Fore
SplineSet
192 576 m 1,0,-1
 192 640 l 1,1,-1
 256 640 l 1,2,-1
 256 704 l 1,3,-1
 768 704 l 1,4,-1
 768 640 l 1,5,-1
 832 640 l 1,6,-1
 832 384 l 1,7,-1
 896 384 l 1,8,-1
 896 256 l 1,9,-1
 704 256 l 1,10,-1
 704 320 l 1,11,-1
 640 320 l 1,12,-1
 640 256 l 1,13,-1
 256 256 l 1,14,-1
 256 320 l 1,15,-1
 192 320 l 1,16,-1
 192 384 l 1,17,-1
 192 576 l 1,0,-1
576 576 m 1,18,-1
 448 576 l 1,19,-1
 448 384 l 1,20,-1
 576 384 l 1,21,-1
 576 576 l 1,18,-1
192 64 m 1,22,-1
 192 192 l 1,23,-1
 896 192 l 1,24,-1
 896 64 l 1,25,-1
 192 64 l 1,22,-1
EndSplineSet
Validated: 1
EndChar

StartChar: guillemotleft
Encoding: 171 171 105
Width: 1024
GlyphClass: 2
Flags: W
LayerCount: 2
Fore
SplineSet
64 256 m 1,0,-1
 64 384 l 1,1,-1
 128 384 l 1,2,-1
 128 448 l 1,3,-1
 192 448 l 1,4,-1
 192 512 l 1,5,-1
 256 512 l 1,6,-1
 256 576 l 1,7,-1
 320 576 l 1,8,-1
 320 640 l 1,9,-1
 384 640 l 1,10,-1
 384 704 l 1,11,-1
 576 704 l 1,12,-1
 576 640 l 1,13,-1
 512 640 l 1,14,-1
 512 576 l 1,15,-1
 448 576 l 1,16,-1
 448 512 l 1,17,-1
 384 512 l 1,18,-1
 384 448 l 1,19,-1
 320 448 l 1,20,-1
 320 384 l 1,21,-1
 256 384 l 1,22,-1
 256 256 l 1,23,-1
 320 256 l 1,24,-1
 320 192 l 1,25,-1
 384 192 l 1,26,-1
 384 128 l 1,27,-1
 448 128 l 1,28,-1
 448 64 l 1,29,-1
 512 64 l 1,30,-1
 512 0 l 1,31,-1
 576 0 l 1,32,-1
 576 -64 l 1,33,-1
 512 -64 l 1,34,-1
 448 -64 l 1,35,-1
 384 -64 l 1,36,-1
 384 0 l 1,37,-1
 320 0 l 1,38,-1
 320 64 l 1,39,-1
 256 64 l 1,40,-1
 256 128 l 1,41,-1
 192 128 l 1,42,-1
 192 192 l 1,43,-1
 128 192 l 1,44,-1
 128 256 l 1,45,-1
 64 256 l 1,0,-1
448 256 m 1,46,-1
 448 384 l 1,47,-1
 512 384 l 1,48,-1
 512 448 l 1,49,-1
 576 448 l 1,50,-1
 576 512 l 1,51,-1
 640 512 l 1,52,-1
 640 576 l 1,53,-1
 704 576 l 1,54,-1
 704 640 l 1,55,-1
 768 640 l 1,56,-1
 768 704 l 1,57,-1
 960 704 l 1,58,-1
 960 640 l 1,59,-1
 896 640 l 1,60,-1
 896 576 l 1,61,-1
 832 576 l 1,62,-1
 832 512 l 1,63,-1
 768 512 l 1,64,-1
 768 448 l 1,65,-1
 704 448 l 1,66,-1
 704 384 l 1,67,-1
 640 384 l 1,68,-1
 640 256 l 1,69,-1
 704 256 l 1,70,-1
 704 192 l 1,71,-1
 768 192 l 1,72,-1
 768 128 l 1,73,-1
 832 128 l 1,74,-1
 832 64 l 1,75,-1
 896 64 l 1,76,-1
 896 0 l 1,77,-1
 960 0 l 1,78,-1
 960 -64 l 1,79,-1
 896 -64 l 1,80,-1
 832 -64 l 1,81,-1
 768 -64 l 1,82,-1
 768 0 l 1,83,-1
 704 0 l 1,84,-1
 704 64 l 1,85,-1
 640 64 l 1,86,-1
 640 128 l 1,87,-1
 576 128 l 1,88,-1
 576 192 l 1,89,-1
 512 192 l 1,90,-1
 512 256 l 1,91,-1
 448 256 l 1,46,-1
EndSplineSet
Validated: 1
EndChar

StartChar: logicalnot
Encoding: 172 172 106
Width: 1024
GlyphClass: 2
Flags: W
LayerCount: 2
Fore
SplineSet
576 384 m 1,0,-1
 640 384 l 1,1,-1
 640 64 l 1,2,-1
 576 64 l 1,3,-1
 512 64 l 1,4,-1
 448 64 l 1,5,-1
 384 64 l 1,6,-1
 384 320 l 1,7,-1
 320 320 l 1,8,-1
 320 256 l 1,9,-1
 64 256 l 1,10,-1
 64 320 l 1,11,-1
 64 384 l 1,12,-1
 128 384 l 1,13,-1
 128 448 l 1,14,-1
 512 448 l 1,15,-1
 576 448 l 1,16,-1
 576 384 l 1,0,-1
EndSplineSet
Validated: 1
EndChar

StartChar: degree
Encoding: 176 176 107
Width: 1024
GlyphClass: 2
Flags: W
LayerCount: 2
Fore
SplineSet
576 576 m 1,0,-1
 448 576 l 1,1,-1
 448 384 l 1,2,-1
 576 384 l 1,3,-1
 576 576 l 1,0,-1
768 320 m 1,4,-1
 768 256 l 1,5,-1
 256 256 l 1,6,-1
 256 320 l 1,7,-1
 192 320 l 1,8,-1
 192 384 l 1,9,-1
 192 576 l 1,10,-1
 192 640 l 1,11,-1
 256 640 l 1,12,-1
 256 704 l 1,13,-1
 768 704 l 1,14,-1
 768 640 l 1,15,-1
 832 640 l 1,16,-1
 832 320 l 1,17,-1
 768 320 l 1,4,-1
EndSplineSet
Validated: 1
EndChar

StartChar: plusminus
Encoding: 177 177 108
Width: 1024
GlyphClass: 2
Flags: W
LayerCount: 2
Fore
SplineSet
256 384 m 1,0,-1
 256 512 l 1,1,-1
 448 512 l 1,2,-1
 448 704 l 1,3,-1
 576 704 l 1,4,-1
 576 512 l 1,5,-1
 768 512 l 1,6,-1
 768 384 l 1,7,-1
 576 384 l 1,8,-1
 576 192 l 1,9,-1
 448 192 l 1,10,-1
 448 384 l 1,11,-1
 256 384 l 1,0,-1
192 0 m 1,12,-1
 192 128 l 1,13,-1
 832 128 l 1,14,-1
 832 0 l 1,15,-1
 192 0 l 1,12,-1
EndSplineSet
Validated: 1
EndChar

StartChar: uni00B2
Encoding: 178 178 109
Width: 1024
GlyphClass: 2
Flags: W
LayerCount: 2
Fore
SplineSet
256 576 m 1,0,-1
 256 640 l 1,1,-1
 320 640 l 1,2,-1
 320 704 l 1,3,-1
 704 704 l 1,4,-1
 704 640 l 1,5,-1
 768 640 l 1,6,-1
 768 576 l 1,7,-1
 704 576 l 1,8,-1
 704 512 l 1,9,-1
 640 512 l 1,10,-1
 640 448 l 1,11,-1
 576 448 l 1,12,-1
 576 384 l 1,13,-1
 768 384 l 1,14,-1
 768 320 l 1,15,-1
 704 320 l 1,16,-1
 704 256 l 1,17,-1
 256 256 l 1,18,-1
 256 320 l 1,19,-1
 256 384 l 1,20,-1
 320 384 l 1,21,-1
 320 448 l 1,22,-1
 384 448 l 1,23,-1
 384 512 l 1,24,-1
 448 512 l 1,25,-1
 448 576 l 1,26,-1
 256 576 l 1,0,-1
EndSplineSet
Validated: 1
EndChar

StartChar: mu
Encoding: 181 181 110
Width: 1024
GlyphClass: 2
Flags: W
LayerCount: 2
Fore
SplineSet
832 128 m 1,0,-1
 832 64 l 1,1,-1
 384 64 l 1,2,-1
 384 0 l 1,3,-1
 320 0 l 1,4,-1
 320 -64 l 1,5,-1
 128 -64 l 1,6,-1
 128 0 l 1,7,-1
 128 64 l 1,8,-1
 128 128 l 1,9,-1
 128 192 l 1,10,-1
 128 576 l 1,11,-1
 384 576 l 1,12,-1
 384 192 l 1,13,-1
 640 192 l 1,14,-1
 640 576 l 1,15,-1
 896 576 l 1,16,-1
 896 128 l 1,17,-1
 832 128 l 1,0,-1
EndSplineSet
Validated: 1
EndChar

StartChar: paragraph
Encoding: 182 182 111
Width: 1024
GlyphClass: 2
Flags: W
LayerCount: 2
Fore
SplineSet
256 576 m 1,0,-1
 256 384 l 1,1,-1
 384 384 l 1,2,-1
 384 576 l 1,3,-1
 256 576 l 1,0,-1
832 -64 m 1,4,-1
 768 -64 l 1,5,-1
 704 -64 l 1,6,-1
 704 576 l 1,7,-1
 576 576 l 1,8,-1
 576 320 l 1,9,-1
 576 256 l 1,10,-1
 576 -64 l 1,11,-1
 384 -64 l 1,12,-1
 384 256 l 1,13,-1
 192 256 l 1,14,-1
 192 320 l 1,15,-1
 128 320 l 1,16,-1
 128 576 l 1,17,-1
 128 640 l 1,18,-1
 192 640 l 1,19,-1
 192 704 l 1,20,-1
 832 704 l 1,21,-1
 896 704 l 1,22,-1
 896 -64 l 1,23,-1
 832 -64 l 1,4,-1
EndSplineSet
Validated: 1
EndChar

StartChar: periodcentered
Encoding: 183 183 112
Width: 1024
GlyphClass: 2
Flags: W
LayerCount: 2
Fore
SplineSet
384 256 m 1,0,-1
 384 384 l 1,1,-1
 448 384 l 1,2,-1
 448 448 l 1,3,-1
 576 448 l 1,4,-1
 576 384 l 1,5,-1
 640 384 l 1,6,-1
 640 256 l 1,7,-1
 576 256 l 1,8,-1
 576 192 l 1,9,-1
 448 192 l 1,10,-1
 448 256 l 1,11,-1
 384 256 l 1,0,-1
EndSplineSet
Validated: 1
EndChar

StartChar: ordmasculine
Encoding: 186 186 113
Width: 1024
GlyphClass: 2
Flags: W
LayerCount: 2
Fore
SplineSet
576 576 m 1,0,-1
 448 576 l 1,1,-1
 448 384 l 1,2,-1
 576 384 l 1,3,-1
 576 576 l 1,0,-1
768 320 m 1,4,-1
 768 256 l 1,5,-1
 256 256 l 1,6,-1
 256 320 l 1,7,-1
 192 320 l 1,8,-1
 192 384 l 1,9,-1
 192 576 l 1,10,-1
 192 640 l 1,11,-1
 256 640 l 1,12,-1
 256 704 l 1,13,-1
 768 704 l 1,14,-1
 768 640 l 1,15,-1
 832 640 l 1,16,-1
 832 320 l 1,17,-1
 768 320 l 1,4,-1
192 64 m 1,18,-1
 192 192 l 1,19,-1
 832 192 l 1,20,-1
 832 64 l 1,21,-1
 192 64 l 1,18,-1
EndSplineSet
Validated: 1
EndChar

StartChar: guillemotright
Encoding: 187 187 114
Width: 1024
GlyphClass: 2
Flags: W
LayerCount: 2
Fore
SplineSet
64 -64 m 1,0,-1
 64 0 l 1,1,-1
 128 0 l 1,2,-1
 128 64 l 1,3,-1
 192 64 l 1,4,-1
 192 128 l 1,5,-1
 256 128 l 1,6,-1
 256 192 l 1,7,-1
 320 192 l 1,8,-1
 320 256 l 1,9,-1
 384 256 l 1,10,-1
 384 384 l 1,11,-1
 320 384 l 1,12,-1
 320 448 l 1,13,-1
 256 448 l 1,14,-1
 256 512 l 1,15,-1
 192 512 l 1,16,-1
 192 576 l 1,17,-1
 128 576 l 1,18,-1
 128 640 l 1,19,-1
 64 640 l 1,20,-1
 64 704 l 1,21,-1
 192 704 l 1,22,-1
 256 704 l 1,23,-1
 256 640 l 1,24,-1
 320 640 l 1,25,-1
 320 576 l 1,26,-1
 384 576 l 1,27,-1
 384 512 l 1,28,-1
 448 512 l 1,29,-1
 448 448 l 1,30,-1
 512 448 l 1,31,-1
 512 384 l 1,32,-1
 576 384 l 1,33,-1
 576 256 l 1,34,-1
 512 256 l 1,35,-1
 512 192 l 1,36,-1
 448 192 l 1,37,-1
 448 128 l 1,38,-1
 384 128 l 1,39,-1
 384 64 l 1,40,-1
 320 64 l 1,41,-1
 320 0 l 1,42,-1
 256 0 l 1,43,-1
 256 -64 l 1,44,-1
 64 -64 l 1,0,-1
448 -64 m 1,45,-1
 448 0 l 1,46,-1
 512 0 l 1,47,-1
 512 64 l 1,48,-1
 576 64 l 1,49,-1
 576 128 l 1,50,-1
 640 128 l 1,51,-1
 640 192 l 1,52,-1
 704 192 l 1,53,-1
 704 256 l 1,54,-1
 768 256 l 1,55,-1
 768 384 l 1,56,-1
 704 384 l 1,57,-1
 704 448 l 1,58,-1
 640 448 l 1,59,-1
 640 512 l 1,60,-1
 576 512 l 1,61,-1
 576 576 l 1,62,-1
 512 576 l 1,63,-1
 512 640 l 1,64,-1
 448 640 l 1,65,-1
 448 704 l 1,66,-1
 576 704 l 1,67,-1
 640 704 l 1,68,-1
 640 640 l 1,69,-1
 704 640 l 1,70,-1
 704 576 l 1,71,-1
 768 576 l 1,72,-1
 768 512 l 1,73,-1
 832 512 l 1,74,-1
 832 448 l 1,75,-1
 896 448 l 1,76,-1
 896 384 l 1,77,-1
 960 384 l 1,78,-1
 960 256 l 1,79,-1
 896 256 l 1,80,-1
 896 192 l 1,81,-1
 832 192 l 1,82,-1
 832 128 l 1,83,-1
 768 128 l 1,84,-1
 768 64 l 1,85,-1
 704 64 l 1,86,-1
 704 0 l 1,87,-1
 640 0 l 1,88,-1
 640 -64 l 1,89,-1
 448 -64 l 1,45,-1
EndSplineSet
Validated: 1
EndChar

StartChar: onequarter
Encoding: 188 188 115
Width: 1024
GlyphClass: 2
Flags: W
LayerCount: 2
Fore
SplineSet
768 128 m 1,0,-1
 832 128 l 1,1,-1
 832 192 l 1,2,-1
 768 192 l 1,3,-1
 768 128 l 1,0,-1
384 64 m 1,4,-1
 384 0 l 1,5,-1
 320 0 l 1,6,-1
 320 -64 l 1,7,-1
 192 -64 l 1,8,-1
 192 0 l 1,9,-1
 128 0 l 1,10,-1
 128 64 l 1,11,-1
 128 128 l 1,12,-1
 192 128 l 1,13,-1
 192 192 l 1,14,-1
 256 192 l 1,15,-1
 256 256 l 1,16,-1
 320 256 l 1,17,-1
 320 320 l 1,18,-1
 384 320 l 5,19,-1
 384 384 l 5,20,-1
 448 384 l 1,21,-1
 448 448 l 1,22,-1
 512 448 l 1,23,-1
 512 512 l 1,24,-1
 576 512 l 1,25,-1
 576 576 l 1,26,-1
 640 576 l 1,27,-1
 640 640 l 1,28,-1
 704 640 l 1,29,-1
 704 704 l 1,30,-1
 832 704 l 1,31,-1
 832 640 l 1,32,-1
 896 640 l 1,33,-1
 896 576 l 1,34,-1
 896 512 l 1,35,-1
 832 512 l 1,36,-1
 832 448 l 1,37,-1
 768 448 l 1,38,-1
 768 384 l 1,39,-1
 704 384 l 1,40,-1
 704 320 l 1,41,-1
 640 320 l 1,42,-1
 640 256 l 1,43,-1
 576 256 l 1,44,-1
 576 192 l 1,45,-1
 512 192 l 1,46,-1
 512 128 l 1,47,-1
 448 128 l 1,48,-1
 448 64 l 1,49,-1
 384 64 l 1,4,-1
640 64 m 1,50,-1
 640 192 l 1,51,-1
 704 192 l 1,52,-1
 704 256 l 1,53,-1
 768 256 l 1,54,-1
 768 320 l 1,55,-1
 896 320 l 1,56,-1
 896 256 l 1,57,-1
 896 128 l 1,58,-1
 960 128 l 1,59,-1
 960 64 l 1,60,-1
 896 64 l 1,61,-1
 896 -64 l 1,62,-1
 768 -64 l 1,63,-1
 768 64 l 1,64,-1
 640 64 l 1,50,-1
128 384 m 5,65,-1
 128 512 l 1,66,-1
 192 512 l 1,67,-1
 192 576 l 1,68,-1
 128 576 l 1,69,-1
 128 704 l 1,70,-1
 320 704 l 1,71,-1
 320 576 l 1,72,-1
 320 512 l 1,73,-1
 384 512 l 1,74,-1
 384 384 l 5,75,-1
 128 384 l 5,65,-1
EndSplineSet
Validated: 5
EndChar

StartChar: onehalf
Encoding: 189 189 116
Width: 1024
GlyphClass: 2
Flags: W
LayerCount: 2
Fore
SplineSet
640 -64 m 1,0,-1
 640 64 l 1,1,-1
 704 64 l 1,2,-1
 704 128 l 1,3,-1
 640 128 l 1,4,-1
 640 192 l 1,5,-1
 640 256 l 1,6,-1
 576 256 l 1,7,-1
 576 192 l 1,8,-1
 512 192 l 1,9,-1
 512 128 l 1,10,-1
 448 128 l 1,11,-1
 448 64 l 1,12,-1
 384 64 l 1,13,-1
 384 0 l 1,14,-1
 320 0 l 1,15,-1
 320 -64 l 1,16,-1
 192 -64 l 1,17,-1
 192 0 l 1,18,-1
 128 0 l 1,19,-1
 128 64 l 1,20,-1
 128 128 l 1,21,-1
 192 128 l 1,22,-1
 192 192 l 1,23,-1
 256 192 l 1,24,-1
 256 256 l 1,25,-1
 320 256 l 1,26,-1
 320 320 l 1,27,-1
 384 320 l 1,28,-1
 384 384 l 1,29,-1
 448 384 l 1,30,-1
 448 448 l 1,31,-1
 512 448 l 1,32,-1
 512 512 l 1,33,-1
 576 512 l 1,34,-1
 576 576 l 1,35,-1
 640 576 l 1,36,-1
 640 640 l 1,37,-1
 704 640 l 1,38,-1
 704 704 l 1,39,-1
 832 704 l 1,40,-1
 832 640 l 1,41,-1
 896 640 l 1,42,-1
 896 576 l 1,43,-1
 896 512 l 1,44,-1
 832 512 l 1,45,-1
 832 448 l 1,46,-1
 768 448 l 1,47,-1
 768 384 l 1,48,-1
 704 384 l 1,49,-1
 704 320 l 1,50,-1
 832 320 l 1,51,-1
 832 256 l 1,52,-1
 896 256 l 1,53,-1
 896 192 l 1,54,-1
 896 128 l 1,55,-1
 896 64 l 1,56,-1
 832 64 l 1,57,-1
 832 0 l 1,58,-1
 896 0 l 1,59,-1
 896 -64 l 1,60,-1
 832 -64 l 1,61,-1
 640 -64 l 1,0,-1
128 384 m 1,62,-1
 128 512 l 1,63,-1
 192 512 l 1,64,-1
 192 576 l 1,65,-1
 128 576 l 1,66,-1
 128 704 l 1,67,-1
 320 704 l 1,68,-1
 320 576 l 1,69,-1
 320 512 l 1,70,-1
 384 512 l 1,71,-1
 384 384 l 1,72,-1
 128 384 l 1,62,-1
704 320 m 1,73,-1
 640 320 l 1,74,-1
 640 256 l 1,75,-1
 704 256 l 1,76,-1
 704 320 l 1,73,-1
704 128 m 1,77,-1
 768 128 l 1,78,-1
 768 192 l 1,79,-1
 704 192 l 1,80,-1
 704 128 l 1,77,-1
EndSplineSet
Validated: 5
EndChar

StartChar: questiondown
Encoding: 191 191 117
Width: 1024
GlyphClass: 2
Flags: W
LayerCount: 2
Fore
SplineSet
192 -64 m 1,0,-1
 128 -64 l 1,1,-1
 128 192 l 1,2,-1
 128 256 l 1,3,-1
 192 256 l 1,4,-1
 192 320 l 1,5,-1
 320 320 l 1,6,-1
 320 384 l 1,7,-1
 384 384 l 1,8,-1
 384 448 l 1,9,-1
 640 448 l 1,10,-1
 640 384 l 1,11,-1
 704 384 l 1,12,-1
 704 256 l 1,13,-1
 640 256 l 1,14,-1
 640 192 l 1,15,-1
 384 192 l 1,16,-1
 384 0 l 1,17,-1
 640 0 l 1,18,-1
 640 128 l 1,19,-1
 704 128 l 1,20,-1
 704 192 l 1,21,-1
 832 192 l 1,22,-1
 832 128 l 1,23,-1
 896 128 l 1,24,-1
 896 0 l 1,25,-1
 896 -64 l 1,26,-1
 832 -64 l 1,27,-1
 832 -128 l 1,28,-1
 192 -128 l 1,29,-1
 192 -64 l 1,0,-1
320 576 m 1,30,-1
 320 704 l 1,31,-1
 384 704 l 1,32,-1
 384 768 l 1,33,-1
 640 768 l 1,34,-1
 640 704 l 1,35,-1
 704 704 l 1,36,-1
 704 576 l 1,37,-1
 640 576 l 1,38,-1
 640 512 l 1,39,-1
 384 512 l 1,40,-1
 384 576 l 1,41,-1
 320 576 l 1,30,-1
EndSplineSet
Validated: 1
EndChar

StartChar: Adieresis
Encoding: 196 196 118
Width: 1024
GlyphClass: 2
Flags: W
LayerCount: 2
Fore
SplineSet
640 320 m 1,0,-1
 640 448 l 1,1,-1
 384 448 l 1,2,-1
 384 320 l 1,3,-1
 640 320 l 1,0,-1
384 192 m 1,4,-1
 384 -64 l 1,5,-1
 128 -64 l 1,6,-1
 128 192 l 1,7,-1
 128 320 l 1,8,-1
 128 448 l 1,9,-1
 128 512 l 1,10,-1
 192 512 l 1,11,-1
 192 576 l 1,12,-1
 832 576 l 1,13,-1
 832 512 l 1,14,-1
 896 512 l 1,15,-1
 896 -64 l 1,16,-1
 640 -64 l 1,17,-1
 640 192 l 1,18,-1
 384 192 l 1,4,-1
192 640 m 1,19,-1
 192 768 l 1,20,-1
 448 768 l 1,21,-1
 448 640 l 1,22,-1
 192 640 l 1,19,-1
576 640 m 1,23,-1
 576 768 l 1,24,-1
 832 768 l 1,25,-1
 832 640 l 1,26,-1
 576 640 l 1,23,-1
EndSplineSet
Validated: 1
EndChar

StartChar: Aring
Encoding: 197 197 119
Width: 1024
GlyphClass: 2
Flags: W
LayerCount: 2
Fore
SplineSet
448 576 m 1,0,-1
 576 576 l 1,1,-1
 576 704 l 1,2,-1
 448 704 l 1,3,-1
 448 576 l 1,0,-1
640 320 m 1,4,-1
 640 448 l 1,5,-1
 384 448 l 1,6,-1
 384 320 l 1,7,-1
 640 320 l 1,4,-1
128 576 m 1,8,-1
 128 704 l 1,9,-1
 192 704 l 1,10,-1
 192 768 l 1,11,-1
 704 768 l 1,12,-1
 832 768 l 1,13,-1
 832 704 l 1,14,-1
 896 704 l 1,15,-1
 896 576 l 1,16,-1
 832 576 l 1,17,-1
 832 512 l 1,18,-1
 896 512 l 1,19,-1
 896 -64 l 1,20,-1
 640 -64 l 1,21,-1
 640 192 l 1,22,-1
 384 192 l 1,23,-1
 384 -64 l 1,24,-1
 128 -64 l 1,25,-1
 128 192 l 1,26,-1
 128 320 l 1,27,-1
 128 448 l 1,28,-1
 128 512 l 1,29,-1
 192 512 l 1,30,-1
 192 576 l 1,31,-1
 128 576 l 1,8,-1
EndSplineSet
Validated: 1
EndChar

StartChar: AE
Encoding: 198 198 120
Width: 1024
GlyphClass: 2
Flags: W
LayerCount: 2
Fore
SplineSet
320 576 m 1,0,-1
 320 384 l 1,1,-1
 448 384 l 1,2,-1
 448 576 l 1,3,-1
 320 576 l 1,0,-1
320 256 m 1,4,-1
 320 -64 l 1,5,-1
 128 -64 l 1,6,-1
 128 256 l 1,7,-1
 128 320 l 1,8,-1
 128 576 l 1,9,-1
 128 640 l 1,10,-1
 192 640 l 1,11,-1
 192 704 l 1,12,-1
 832 704 l 1,13,-1
 896 704 l 1,14,-1
 896 512 l 1,15,-1
 832 512 l 1,16,-1
 768 512 l 1,17,-1
 768 576 l 1,18,-1
 640 576 l 1,19,-1
 640 384 l 1,20,-1
 896 384 l 1,21,-1
 896 256 l 1,22,-1
 640 256 l 1,23,-1
 640 64 l 1,24,-1
 768 64 l 1,25,-1
 768 128 l 1,26,-1
 896 128 l 1,27,-1
 896 0 l 1,28,-1
 896 -64 l 1,29,-1
 448 -64 l 1,30,-1
 448 0 l 1,31,-1
 448 256 l 1,32,-1
 320 256 l 1,4,-1
EndSplineSet
Validated: 1
EndChar

StartChar: Ccedilla
Encoding: 199 199 121
Width: 1024
GlyphClass: 2
Flags: W
LayerCount: 2
Fore
SplineSet
320 -128 m 1,0,-1
 320 -64 l 1,1,-1
 384 -64 l 1,2,-1
 384 0 l 1,3,-1
 192 0 l 1,4,-1
 192 64 l 1,5,-1
 128 64 l 1,6,-1
 128 576 l 1,7,-1
 128 640 l 1,8,-1
 192 640 l 1,9,-1
 192 704 l 1,10,-1
 832 704 l 1,11,-1
 832 640 l 1,12,-1
 896 640 l 1,13,-1
 896 512 l 1,14,-1
 640 512 l 1,15,-1
 640 576 l 1,16,-1
 384 576 l 1,17,-1
 384 128 l 1,18,-1
 640 128 l 1,19,-1
 640 256 l 1,20,-1
 896 256 l 1,21,-1
 896 128 l 1,22,-1
 896 64 l 1,23,-1
 832 64 l 1,24,-1
 832 0 l 1,25,-1
 640 0 l 1,26,-1
 640 -64 l 1,27,-1
 576 -64 l 1,28,-1
 576 -128 l 1,29,-1
 320 -128 l 1,0,-1
EndSplineSet
Validated: 1
EndChar

StartChar: Eacute
Encoding: 201 201 122
Width: 1024
GlyphClass: 2
Flags: W
LayerCount: 2
Fore
SplineSet
384 64 m 1,0,-1
 576 64 l 1,1,-1
 576 128 l 1,2,-1
 832 128 l 1,3,-1
 832 64 l 1,4,-1
 832 -64 l 1,5,-1
 128 -64 l 1,6,-1
 128 64 l 1,7,-1
 128 192 l 1,8,-1
 128 320 l 1,9,-1
 128 448 l 1,10,-1
 128 576 l 1,11,-1
 832 576 l 1,12,-1
 832 448 l 1,13,-1
 832 384 l 1,14,-1
 576 384 l 1,15,-1
 576 448 l 1,16,-1
 384 448 l 1,17,-1
 384 320 l 1,18,-1
 576 320 l 1,19,-1
 576 192 l 1,20,-1
 384 192 l 1,21,-1
 384 64 l 1,0,-1
384 640 m 1,22,-1
 384 704 l 1,23,-1
 448 704 l 1,24,-1
 448 768 l 1,25,-1
 704 768 l 1,26,-1
 704 704 l 1,27,-1
 640 704 l 1,28,-1
 640 640 l 1,29,-1
 384 640 l 1,22,-1
EndSplineSet
Validated: 1
EndChar

StartChar: Ntilde
Encoding: 209 209 123
Width: 1024
GlyphClass: 2
Flags: W
LayerCount: 2
Fore
SplineSet
704 640 m 1,0,-1
 704 576 l 1,1,-1
 512 576 l 1,2,-1
 512 640 l 1,3,-1
 448 640 l 1,4,-1
 448 704 l 1,5,-1
 384 704 l 1,6,-1
 384 640 l 1,7,-1
 320 640 l 1,8,-1
 320 576 l 1,9,-1
 192 576 l 1,10,-1
 192 640 l 1,11,-1
 192 704 l 1,12,-1
 256 704 l 1,13,-1
 256 768 l 1,14,-1
 320 768 l 1,15,-1
 320 832 l 1,16,-1
 448 832 l 1,17,-1
 512 832 l 1,18,-1
 512 768 l 1,19,-1
 576 768 l 1,20,-1
 576 704 l 1,21,-1
 640 704 l 1,22,-1
 640 768 l 1,23,-1
 704 768 l 1,24,-1
 704 832 l 1,25,-1
 832 832 l 1,26,-1
 832 768 l 1,27,-1
 832 704 l 1,28,-1
 768 704 l 1,29,-1
 768 640 l 1,30,-1
 704 640 l 1,0,-1
128 -64 m 1,31,-1
 128 512 l 1,32,-1
 384 512 l 1,33,-1
 448 512 l 1,34,-1
 448 448 l 1,35,-1
 512 448 l 1,36,-1
 512 384 l 1,37,-1
 576 384 l 1,38,-1
 576 320 l 1,39,-1
 640 320 l 1,40,-1
 640 512 l 1,41,-1
 896 512 l 1,42,-1
 896 320 l 1,43,-1
 896 -64 l 1,44,-1
 832 -64 l 1,45,-1
 768 -64 l 1,46,-1
 704 -64 l 1,47,-1
 640 -64 l 1,48,-1
 640 0 l 1,49,-1
 576 0 l 1,50,-1
 576 64 l 1,51,-1
 512 64 l 1,52,-1
 512 128 l 1,53,-1
 448 128 l 1,54,-1
 448 192 l 1,55,-1
 384 192 l 1,56,-1
 384 -64 l 1,57,-1
 128 -64 l 1,31,-1
EndSplineSet
Validated: 1
EndChar

StartChar: Odieresis
Encoding: 214 214 124
Width: 1024
GlyphClass: 2
Flags: W
LayerCount: 2
Fore
SplineSet
640 64 m 1,0,-1
 640 512 l 1,1,-1
 384 512 l 1,2,-1
 384 64 l 1,3,-1
 640 64 l 1,0,-1
192 0 m 1,4,-1
 128 0 l 1,5,-1
 128 512 l 1,6,-1
 128 576 l 1,7,-1
 192 576 l 1,8,-1
 192 640 l 1,9,-1
 832 640 l 1,10,-1
 832 576 l 1,11,-1
 896 576 l 1,12,-1
 896 64 l 1,13,-1
 896 0 l 1,14,-1
 832 0 l 1,15,-1
 832 -64 l 1,16,-1
 192 -64 l 1,17,-1
 192 0 l 1,4,-1
192 704 m 1,18,-1
 192 832 l 1,19,-1
 448 832 l 1,20,-1
 448 704 l 1,21,-1
 192 704 l 1,18,-1
576 704 m 1,22,-1
 576 832 l 1,23,-1
 832 832 l 1,24,-1
 832 704 l 1,25,-1
 576 704 l 1,22,-1
EndSplineSet
Validated: 1
EndChar

StartChar: Udieresis
Encoding: 220 220 125
Width: 1024
GlyphClass: 2
Flags: W
LayerCount: 2
Fore
SplineSet
128 704 m 1,0,-1
 128 832 l 1,1,-1
 384 832 l 1,2,-1
 384 704 l 1,3,-1
 128 704 l 1,0,-1
640 704 m 1,4,-1
 640 832 l 1,5,-1
 896 832 l 1,6,-1
 896 704 l 1,7,-1
 640 704 l 1,4,-1
128 0 m 1,8,-1
 128 640 l 1,9,-1
 384 640 l 1,10,-1
 384 64 l 1,11,-1
 640 64 l 1,12,-1
 640 640 l 1,13,-1
 896 640 l 1,14,-1
 896 0 l 1,15,-1
 832 0 l 1,16,-1
 832 -64 l 1,17,-1
 192 -64 l 1,18,-1
 192 0 l 1,19,-1
 128 0 l 1,8,-1
EndSplineSet
Validated: 1
EndChar

StartChar: germandbls
Encoding: 223 223 126
Width: 1024
GlyphClass: 2
Flags: W
LayerCount: 2
Fore
SplineSet
832 64 m 1,0,-1
 832 0 l 1,1,-1
 384 0 l 1,2,-1
 384 -64 l 1,3,-1
 384 -128 l 1,4,-1
 192 -128 l 1,5,-1
 192 -64 l 1,6,-1
 128 -64 l 1,7,-1
 128 0 l 1,8,-1
 128 64 l 1,9,-1
 128 576 l 1,10,-1
 128 640 l 1,11,-1
 192 640 l 1,12,-1
 192 704 l 1,13,-1
 832 704 l 1,14,-1
 832 640 l 1,15,-1
 896 640 l 1,16,-1
 896 448 l 1,17,-1
 832 448 l 1,18,-1
 832 320 l 1,19,-1
 896 320 l 1,20,-1
 896 64 l 1,21,-1
 832 64 l 1,0,-1
576 320 m 1,22,-1
 576 448 l 1,23,-1
 640 448 l 1,24,-1
 640 576 l 1,25,-1
 384 576 l 1,26,-1
 384 128 l 1,27,-1
 640 128 l 1,28,-1
 640 320 l 1,29,-1
 576 320 l 1,22,-1
EndSplineSet
Validated: 1
EndChar

StartChar: agrave
Encoding: 224 224 127
Width: 1024
GlyphClass: 2
Flags: W
LayerCount: 2
Fore
SplineSet
384 64 m 1,0,-1
 640 64 l 1,1,-1
 640 192 l 1,2,-1
 384 192 l 1,3,-1
 384 64 l 1,0,-1
256 704 m 1,4,-1
 256 768 l 1,5,-1
 512 768 l 1,6,-1
 512 704 l 1,7,-1
 576 704 l 1,8,-1
 576 640 l 1,9,-1
 640 640 l 1,10,-1
 640 576 l 1,11,-1
 384 576 l 1,12,-1
 384 640 l 1,13,-1
 320 640 l 1,14,-1
 320 704 l 1,15,-1
 256 704 l 1,4,-1
128 384 m 1,16,-1
 128 448 l 1,17,-1
 192 448 l 1,18,-1
 192 512 l 1,19,-1
 832 512 l 1,20,-1
 832 448 l 1,21,-1
 896 448 l 1,22,-1
 896 320 l 1,23,-1
 896 64 l 1,24,-1
 960 64 l 1,25,-1
 960 -64 l 1,26,-1
 832 -64 l 1,27,-1
 192 -64 l 1,28,-1
 192 0 l 1,29,-1
 128 0 l 1,30,-1
 128 64 l 1,31,-1
 128 192 l 1,32,-1
 128 256 l 1,33,-1
 192 256 l 1,34,-1
 192 320 l 1,35,-1
 640 320 l 1,36,-1
 640 384 l 1,37,-1
 128 384 l 1,16,-1
EndSplineSet
Validated: 1
EndChar

StartChar: acircumflex
Encoding: 226 226 128
Width: 1024
GlyphClass: 2
Flags: W
LayerCount: 2
Fore
SplineSet
640 640 m 1,0,-1
 384 640 l 1,1,-1
 384 576 l 1,2,-1
 128 576 l 1,3,-1
 128 640 l 1,4,-1
 128 704 l 1,5,-1
 192 704 l 1,6,-1
 192 768 l 1,7,-1
 832 768 l 1,8,-1
 832 704 l 1,9,-1
 896 704 l 1,10,-1
 896 576 l 1,11,-1
 640 576 l 1,12,-1
 640 640 l 1,0,-1
384 64 m 1,13,-1
 640 64 l 1,14,-1
 640 192 l 1,15,-1
 384 192 l 1,16,-1
 384 64 l 1,13,-1
128 384 m 1,17,-1
 128 448 l 1,18,-1
 192 448 l 1,19,-1
 192 512 l 1,20,-1
 832 512 l 1,21,-1
 832 448 l 1,22,-1
 896 448 l 1,23,-1
 896 320 l 1,24,-1
 896 64 l 1,25,-1
 960 64 l 1,26,-1
 960 -64 l 1,27,-1
 832 -64 l 1,28,-1
 192 -64 l 1,29,-1
 192 0 l 1,30,-1
 128 0 l 1,31,-1
 128 64 l 1,32,-1
 128 192 l 1,33,-1
 128 256 l 1,34,-1
 192 256 l 1,35,-1
 192 320 l 1,36,-1
 640 320 l 1,37,-1
 640 384 l 1,38,-1
 128 384 l 1,17,-1
EndSplineSet
Validated: 1
EndChar

StartChar: adieresis
Encoding: 228 228 129
Width: 1024
GlyphClass: 2
Flags: W
LayerCount: 2
Fore
SplineSet
384 64 m 1,0,-1
 640 64 l 1,1,-1
 640 192 l 1,2,-1
 384 192 l 1,3,-1
 384 64 l 1,0,-1
192 576 m 1,4,-1
 192 768 l 1,5,-1
 448 768 l 1,6,-1
 448 576 l 1,7,-1
 192 576 l 1,4,-1
576 576 m 1,8,-1
 576 768 l 1,9,-1
 832 768 l 1,10,-1
 832 576 l 1,11,-1
 576 576 l 1,8,-1
128 384 m 1,12,-1
 128 448 l 1,13,-1
 192 448 l 1,14,-1
 192 512 l 1,15,-1
 832 512 l 1,16,-1
 832 448 l 1,17,-1
 896 448 l 1,18,-1
 896 320 l 1,19,-1
 896 64 l 1,20,-1
 960 64 l 1,21,-1
 960 -64 l 1,22,-1
 832 -64 l 1,23,-1
 192 -64 l 1,24,-1
 192 0 l 1,25,-1
 128 0 l 1,26,-1
 128 64 l 1,27,-1
 128 192 l 1,28,-1
 128 256 l 1,29,-1
 192 256 l 1,30,-1
 192 320 l 1,31,-1
 640 320 l 1,32,-1
 640 384 l 1,33,-1
 128 384 l 1,12,-1
EndSplineSet
Validated: 1
EndChar

StartChar: aring
Encoding: 229 229 130
Width: 1024
GlyphClass: 2
Flags: W
LayerCount: 2
Fore
SplineSet
576 704 m 1,0,-1
 448 704 l 1,1,-1
 448 512 l 1,2,-1
 576 512 l 1,3,-1
 576 704 l 1,0,-1
384 64 m 1,4,-1
 640 64 l 1,5,-1
 640 192 l 1,6,-1
 384 192 l 1,7,-1
 384 64 l 1,4,-1
128 512 m 1,8,-1
 128 704 l 1,9,-1
 192 704 l 1,10,-1
 192 768 l 1,11,-1
 704 768 l 1,12,-1
 832 768 l 1,13,-1
 832 704 l 1,14,-1
 896 704 l 1,15,-1
 896 512 l 1,16,-1
 832 512 l 1,17,-1
 832 448 l 1,18,-1
 896 448 l 1,19,-1
 896 384 l 1,20,-1
 896 320 l 1,21,-1
 896 64 l 1,22,-1
 960 64 l 1,23,-1
 960 -64 l 1,24,-1
 832 -64 l 1,25,-1
 192 -64 l 1,26,-1
 192 0 l 1,27,-1
 128 0 l 1,28,-1
 128 64 l 1,29,-1
 128 192 l 1,30,-1
 128 256 l 1,31,-1
 192 256 l 1,32,-1
 192 320 l 1,33,-1
 640 320 l 1,34,-1
 640 384 l 1,35,-1
 384 384 l 1,36,-1
 320 384 l 1,37,-1
 128 384 l 1,38,-1
 128 448 l 1,39,-1
 192 448 l 1,40,-1
 192 512 l 1,41,-1
 128 512 l 1,8,-1
EndSplineSet
Validated: 1
EndChar

StartChar: ae
Encoding: 230 230 131
Width: 1024
GlyphClass: 2
Flags: W
LayerCount: 2
Fore
SplineSet
704 384 m 1,0,-1
 576 384 l 1,1,-1
 576 320 l 1,2,-1
 704 320 l 1,3,-1
 704 384 l 1,0,-1
384 64 m 1,4,-1
 384 128 l 1,5,-1
 384 192 l 1,6,-1
 256 192 l 1,7,-1
 256 64 l 1,8,-1
 384 64 l 1,4,-1
128 384 m 1,9,-1
 128 448 l 1,10,-1
 192 448 l 1,11,-1
 192 512 l 1,12,-1
 832 512 l 1,13,-1
 832 448 l 1,14,-1
 896 448 l 1,15,-1
 896 384 l 1,16,-1
 896 256 l 1,17,-1
 832 256 l 1,18,-1
 832 192 l 1,19,-1
 576 192 l 1,20,-1
 576 128 l 1,21,-1
 576 64 l 1,22,-1
 704 64 l 1,23,-1
 704 128 l 1,24,-1
 896 128 l 1,25,-1
 896 0 l 1,26,-1
 832 0 l 1,27,-1
 832 -64 l 1,28,-1
 704 -64 l 1,29,-1
 576 -64 l 1,30,-1
 192 -64 l 1,31,-1
 192 0 l 1,32,-1
 128 0 l 1,33,-1
 128 64 l 1,34,-1
 128 192 l 1,35,-1
 128 256 l 1,36,-1
 192 256 l 1,37,-1
 192 320 l 1,38,-1
 384 320 l 1,39,-1
 384 384 l 1,40,-1
 128 384 l 1,9,-1
EndSplineSet
Validated: 1
EndChar

StartChar: ccedilla
Encoding: 231 231 132
Width: 1024
GlyphClass: 2
Flags: W
LayerCount: 2
Fore
SplineSet
320 -128 m 1,0,-1
 320 -64 l 1,1,-1
 384 -64 l 1,2,-1
 384 0 l 1,3,-1
 192 0 l 1,4,-1
 192 64 l 1,5,-1
 128 64 l 1,6,-1
 128 128 l 1,7,-1
 128 384 l 1,8,-1
 128 448 l 1,9,-1
 192 448 l 1,10,-1
 192 512 l 1,11,-1
 832 512 l 1,12,-1
 832 448 l 1,13,-1
 896 448 l 1,14,-1
 896 320 l 1,15,-1
 640 320 l 1,16,-1
 640 384 l 1,17,-1
 384 384 l 1,18,-1
 384 128 l 1,19,-1
 640 128 l 1,20,-1
 640 192 l 1,21,-1
 896 192 l 1,22,-1
 896 64 l 1,23,-1
 832 64 l 1,24,-1
 832 0 l 1,25,-1
 640 0 l 1,26,-1
 640 -64 l 1,27,-1
 576 -64 l 1,28,-1
 576 -128 l 1,29,-1
 320 -128 l 1,0,-1
EndSplineSet
Validated: 1
EndChar

StartChar: egrave
Encoding: 232 232 133
Width: 1024
GlyphClass: 2
Flags: W
LayerCount: 2
Fore
SplineSet
384 320 m 1,0,-1
 640 320 l 1,1,-1
 640 384 l 1,2,-1
 384 384 l 1,3,-1
 384 320 l 1,0,-1
192 0 m 1,4,-1
 128 0 l 1,5,-1
 128 64 l 1,6,-1
 128 192 l 1,7,-1
 128 256 l 1,8,-1
 128 384 l 1,9,-1
 128 448 l 1,10,-1
 192 448 l 1,11,-1
 192 512 l 1,12,-1
 832 512 l 1,13,-1
 832 448 l 1,14,-1
 896 448 l 1,15,-1
 896 320 l 1,16,-1
 896 256 l 1,17,-1
 832 256 l 1,18,-1
 832 192 l 1,19,-1
 384 192 l 1,20,-1
 384 64 l 1,21,-1
 640 64 l 1,22,-1
 640 128 l 1,23,-1
 896 128 l 1,24,-1
 896 0 l 1,25,-1
 832 0 l 1,26,-1
 832 -64 l 1,27,-1
 192 -64 l 1,28,-1
 192 0 l 1,4,-1
256 704 m 1,29,-1
 256 768 l 1,30,-1
 512 768 l 1,31,-1
 512 704 l 1,32,-1
 576 704 l 1,33,-1
 576 640 l 1,34,-1
 640 640 l 1,35,-1
 640 576 l 1,36,-1
 384 576 l 1,37,-1
 384 640 l 1,38,-1
 320 640 l 1,39,-1
 320 704 l 1,40,-1
 256 704 l 1,29,-1
EndSplineSet
Validated: 1
EndChar

StartChar: eacute
Encoding: 233 233 134
Width: 1024
GlyphClass: 2
Flags: W
LayerCount: 2
Fore
SplineSet
384 320 m 1,0,-1
 640 320 l 1,1,-1
 640 384 l 1,2,-1
 384 384 l 1,3,-1
 384 320 l 1,0,-1
192 0 m 1,4,-1
 128 0 l 1,5,-1
 128 64 l 1,6,-1
 128 192 l 1,7,-1
 128 256 l 1,8,-1
 128 384 l 1,9,-1
 128 448 l 1,10,-1
 192 448 l 1,11,-1
 192 512 l 1,12,-1
 832 512 l 1,13,-1
 832 448 l 1,14,-1
 896 448 l 1,15,-1
 896 320 l 1,16,-1
 896 256 l 1,17,-1
 832 256 l 1,18,-1
 832 192 l 1,19,-1
 384 192 l 1,20,-1
 384 64 l 1,21,-1
 640 64 l 1,22,-1
 640 128 l 1,23,-1
 896 128 l 1,24,-1
 896 0 l 1,25,-1
 832 0 l 1,26,-1
 832 -64 l 1,27,-1
 192 -64 l 1,28,-1
 192 0 l 1,4,-1
384 576 m 1,29,-1
 384 640 l 1,30,-1
 448 640 l 1,31,-1
 448 704 l 1,32,-1
 512 704 l 1,33,-1
 512 768 l 1,34,-1
 768 768 l 1,35,-1
 768 704 l 1,36,-1
 704 704 l 1,37,-1
 704 640 l 1,38,-1
 640 640 l 1,39,-1
 640 576 l 1,40,-1
 384 576 l 1,29,-1
EndSplineSet
Validated: 1
EndChar

StartChar: ecircumflex
Encoding: 234 234 135
Width: 1024
GlyphClass: 2
Flags: W
LayerCount: 2
Fore
SplineSet
640 640 m 1,0,-1
 384 640 l 1,1,-1
 384 576 l 1,2,-1
 128 576 l 1,3,-1
 128 640 l 1,4,-1
 128 704 l 1,5,-1
 192 704 l 1,6,-1
 192 768 l 1,7,-1
 832 768 l 1,8,-1
 832 704 l 1,9,-1
 896 704 l 1,10,-1
 896 576 l 1,11,-1
 640 576 l 1,12,-1
 640 640 l 1,0,-1
384 320 m 1,13,-1
 640 320 l 1,14,-1
 640 384 l 1,15,-1
 384 384 l 1,16,-1
 384 320 l 1,13,-1
192 0 m 1,17,-1
 128 0 l 1,18,-1
 128 64 l 1,19,-1
 128 192 l 1,20,-1
 128 256 l 1,21,-1
 128 384 l 1,22,-1
 128 448 l 1,23,-1
 192 448 l 1,24,-1
 192 512 l 1,25,-1
 832 512 l 1,26,-1
 832 448 l 1,27,-1
 896 448 l 1,28,-1
 896 320 l 1,29,-1
 896 256 l 1,30,-1
 832 256 l 1,31,-1
 832 192 l 1,32,-1
 384 192 l 1,33,-1
 384 64 l 1,34,-1
 640 64 l 1,35,-1
 640 128 l 1,36,-1
 896 128 l 1,37,-1
 896 0 l 1,38,-1
 832 0 l 1,39,-1
 832 -64 l 1,40,-1
 192 -64 l 1,41,-1
 192 0 l 1,17,-1
EndSplineSet
Validated: 1
EndChar

StartChar: edieresis
Encoding: 235 235 136
Width: 1024
GlyphClass: 2
Flags: W
LayerCount: 2
Fore
SplineSet
384 320 m 1,0,-1
 640 320 l 1,1,-1
 640 384 l 1,2,-1
 384 384 l 1,3,-1
 384 320 l 1,0,-1
192 0 m 1,4,-1
 128 0 l 1,5,-1
 128 64 l 1,6,-1
 128 192 l 1,7,-1
 128 256 l 1,8,-1
 128 384 l 1,9,-1
 128 448 l 1,10,-1
 192 448 l 1,11,-1
 192 512 l 1,12,-1
 832 512 l 1,13,-1
 832 448 l 1,14,-1
 896 448 l 1,15,-1
 896 320 l 1,16,-1
 896 256 l 1,17,-1
 832 256 l 1,18,-1
 832 192 l 1,19,-1
 384 192 l 1,20,-1
 384 64 l 1,21,-1
 640 64 l 1,22,-1
 640 128 l 1,23,-1
 896 128 l 1,24,-1
 896 0 l 1,25,-1
 832 0 l 1,26,-1
 832 -64 l 1,27,-1
 192 -64 l 1,28,-1
 192 0 l 1,4,-1
192 576 m 1,29,-1
 192 768 l 1,30,-1
 448 768 l 1,31,-1
 448 576 l 1,32,-1
 192 576 l 1,29,-1
576 576 m 1,33,-1
 576 768 l 1,34,-1
 832 768 l 1,35,-1
 832 576 l 1,36,-1
 576 576 l 1,33,-1
EndSplineSet
Validated: 1
EndChar

StartChar: igrave
Encoding: 236 236 137
Width: 1024
GlyphClass: 2
Flags: W
LayerCount: 2
Fore
SplineSet
256 704 m 1,0,-1
 256 768 l 1,1,-1
 512 768 l 1,2,-1
 512 704 l 1,3,-1
 576 704 l 1,4,-1
 576 640 l 1,5,-1
 640 640 l 1,6,-1
 640 576 l 1,7,-1
 384 576 l 1,8,-1
 384 640 l 1,9,-1
 320 640 l 1,10,-1
 320 704 l 1,11,-1
 256 704 l 1,0,-1
192 -64 m 1,12,-1
 192 64 l 1,13,-1
 384 64 l 1,14,-1
 384 384 l 1,15,-1
 256 384 l 1,16,-1
 256 512 l 1,17,-1
 640 512 l 1,18,-1
 640 384 l 1,19,-1
 640 64 l 1,20,-1
 832 64 l 1,21,-1
 832 -64 l 1,22,-1
 192 -64 l 1,12,-1
EndSplineSet
Validated: 1
EndChar

StartChar: iacute
Encoding: 237 237 138
Width: 1024
GlyphClass: 2
Flags: W
LayerCount: 2
Fore
SplineSet
384 576 m 1,0,-1
 384 640 l 1,1,-1
 448 640 l 1,2,-1
 448 704 l 1,3,-1
 512 704 l 1,4,-1
 512 768 l 1,5,-1
 768 768 l 1,6,-1
 768 704 l 1,7,-1
 704 704 l 1,8,-1
 704 640 l 1,9,-1
 640 640 l 1,10,-1
 640 576 l 1,11,-1
 384 576 l 1,0,-1
192 -64 m 1,12,-1
 192 64 l 1,13,-1
 384 64 l 1,14,-1
 384 384 l 1,15,-1
 256 384 l 1,16,-1
 256 512 l 1,17,-1
 640 512 l 1,18,-1
 640 384 l 1,19,-1
 640 64 l 1,20,-1
 832 64 l 1,21,-1
 832 -64 l 1,22,-1
 192 -64 l 1,12,-1
EndSplineSet
Validated: 1
EndChar

StartChar: icircumflex
Encoding: 238 238 139
Width: 1024
GlyphClass: 2
Flags: W
LayerCount: 2
Fore
SplineSet
192 576 m 1,0,-1
 192 768 l 1,1,-1
 448 768 l 1,2,-1
 448 576 l 1,3,-1
 192 576 l 1,0,-1
576 576 m 1,4,-1
 576 768 l 1,5,-1
 832 768 l 1,6,-1
 832 576 l 1,7,-1
 576 576 l 1,4,-1
192 -64 m 1,8,-1
 192 64 l 1,9,-1
 384 64 l 1,10,-1
 384 384 l 1,11,-1
 256 384 l 1,12,-1
 256 512 l 1,13,-1
 640 512 l 1,14,-1
 640 384 l 1,15,-1
 640 64 l 1,16,-1
 832 64 l 1,17,-1
 832 -64 l 1,18,-1
 192 -64 l 1,8,-1
EndSplineSet
Validated: 1
EndChar

StartChar: idieresis
Encoding: 239 239 140
Width: 1024
GlyphClass: 2
Flags: W
LayerCount: 2
Fore
SplineSet
640 640 m 1,0,-1
 384 640 l 1,1,-1
 384 576 l 1,2,-1
 128 576 l 1,3,-1
 128 640 l 1,4,-1
 128 704 l 1,5,-1
 192 704 l 1,6,-1
 192 768 l 1,7,-1
 832 768 l 1,8,-1
 832 704 l 1,9,-1
 896 704 l 1,10,-1
 896 576 l 1,11,-1
 640 576 l 1,12,-1
 640 640 l 1,0,-1
192 -64 m 1,13,-1
 192 64 l 1,14,-1
 384 64 l 1,15,-1
 384 384 l 1,16,-1
 256 384 l 1,17,-1
 256 512 l 1,18,-1
 640 512 l 1,19,-1
 640 384 l 1,20,-1
 640 64 l 1,21,-1
 832 64 l 1,22,-1
 832 -64 l 1,23,-1
 192 -64 l 1,13,-1
EndSplineSet
Validated: 1
EndChar

StartChar: ntilde
Encoding: 241 241 141
Width: 1024
GlyphClass: 2
Flags: W
LayerCount: 2
Fore
SplineSet
704 640 m 1,0,-1
 704 576 l 1,1,-1
 512 576 l 1,2,-1
 512 640 l 1,3,-1
 448 640 l 1,4,-1
 448 704 l 1,5,-1
 384 704 l 1,6,-1
 384 640 l 1,7,-1
 320 640 l 1,8,-1
 320 576 l 1,9,-1
 192 576 l 1,10,-1
 192 640 l 1,11,-1
 192 704 l 1,12,-1
 256 704 l 1,13,-1
 256 768 l 1,14,-1
 320 768 l 1,15,-1
 320 832 l 1,16,-1
 448 832 l 1,17,-1
 512 832 l 1,18,-1
 512 768 l 1,19,-1
 576 768 l 1,20,-1
 576 704 l 1,21,-1
 640 704 l 1,22,-1
 640 768 l 1,23,-1
 704 768 l 1,24,-1
 704 832 l 1,25,-1
 832 832 l 1,26,-1
 832 768 l 1,27,-1
 832 704 l 1,28,-1
 768 704 l 1,29,-1
 768 640 l 1,30,-1
 704 640 l 1,0,-1
384 384 m 1,31,-1
 384 -64 l 1,32,-1
 128 -64 l 1,33,-1
 128 384 l 1,34,-1
 128 448 l 1,35,-1
 192 448 l 1,36,-1
 192 512 l 1,37,-1
 832 512 l 1,38,-1
 832 448 l 1,39,-1
 896 448 l 1,40,-1
 896 -64 l 1,41,-1
 640 -64 l 1,42,-1
 640 384 l 1,43,-1
 384 384 l 1,31,-1
EndSplineSet
Validated: 1
EndChar

StartChar: ograve
Encoding: 242 242 142
Width: 1024
GlyphClass: 2
Flags: W
LayerCount: 2
Fore
SplineSet
640 64 m 1,0,-1
 640 384 l 1,1,-1
 384 384 l 1,2,-1
 384 64 l 1,3,-1
 640 64 l 1,0,-1
192 0 m 1,4,-1
 128 0 l 1,5,-1
 128 384 l 1,6,-1
 128 448 l 1,7,-1
 192 448 l 1,8,-1
 192 512 l 1,9,-1
 832 512 l 1,10,-1
 832 448 l 1,11,-1
 896 448 l 1,12,-1
 896 64 l 1,13,-1
 896 0 l 1,14,-1
 832 0 l 1,15,-1
 832 -64 l 1,16,-1
 192 -64 l 1,17,-1
 192 0 l 1,4,-1
256 704 m 1,18,-1
 256 768 l 1,19,-1
 512 768 l 1,20,-1
 512 704 l 1,21,-1
 576 704 l 1,22,-1
 576 640 l 1,23,-1
 640 640 l 1,24,-1
 640 576 l 1,25,-1
 384 576 l 1,26,-1
 384 640 l 1,27,-1
 320 640 l 1,28,-1
 320 704 l 1,29,-1
 256 704 l 1,18,-1
EndSplineSet
Validated: 1
EndChar

StartChar: oacute
Encoding: 243 243 143
Width: 1024
GlyphClass: 2
Flags: W
LayerCount: 2
Fore
SplineSet
640 64 m 1,0,-1
 640 384 l 1,1,-1
 384 384 l 1,2,-1
 384 64 l 1,3,-1
 640 64 l 1,0,-1
192 0 m 1,4,-1
 128 0 l 1,5,-1
 128 384 l 1,6,-1
 128 448 l 1,7,-1
 192 448 l 1,8,-1
 192 512 l 1,9,-1
 832 512 l 1,10,-1
 832 448 l 1,11,-1
 896 448 l 1,12,-1
 896 64 l 1,13,-1
 896 0 l 1,14,-1
 832 0 l 1,15,-1
 832 -64 l 1,16,-1
 192 -64 l 1,17,-1
 192 0 l 1,4,-1
384 576 m 1,18,-1
 384 640 l 1,19,-1
 448 640 l 1,20,-1
 448 704 l 1,21,-1
 512 704 l 1,22,-1
 512 768 l 1,23,-1
 768 768 l 1,24,-1
 768 704 l 1,25,-1
 704 704 l 1,26,-1
 704 640 l 1,27,-1
 640 640 l 1,28,-1
 640 576 l 1,29,-1
 384 576 l 1,18,-1
EndSplineSet
Validated: 1
EndChar

StartChar: ocircumflex
Encoding: 244 244 144
Width: 1024
GlyphClass: 2
Flags: W
LayerCount: 2
Fore
SplineSet
640 640 m 1,0,-1
 384 640 l 1,1,-1
 384 576 l 1,2,-1
 128 576 l 1,3,-1
 128 640 l 1,4,-1
 128 704 l 1,5,-1
 192 704 l 1,6,-1
 192 768 l 1,7,-1
 832 768 l 1,8,-1
 832 704 l 1,9,-1
 896 704 l 1,10,-1
 896 576 l 1,11,-1
 640 576 l 1,12,-1
 640 640 l 1,0,-1
640 64 m 1,13,-1
 640 384 l 1,14,-1
 384 384 l 1,15,-1
 384 64 l 1,16,-1
 640 64 l 1,13,-1
192 0 m 1,17,-1
 128 0 l 1,18,-1
 128 384 l 1,19,-1
 128 448 l 1,20,-1
 192 448 l 1,21,-1
 192 512 l 1,22,-1
 832 512 l 1,23,-1
 832 448 l 1,24,-1
 896 448 l 1,25,-1
 896 64 l 1,26,-1
 896 0 l 1,27,-1
 832 0 l 1,28,-1
 832 -64 l 1,29,-1
 192 -64 l 1,30,-1
 192 0 l 1,17,-1
EndSplineSet
Validated: 1
EndChar

StartChar: odieresis
Encoding: 246 246 145
Width: 1024
GlyphClass: 2
Flags: W
LayerCount: 2
Fore
SplineSet
640 64 m 1,0,-1
 640 384 l 1,1,-1
 384 384 l 1,2,-1
 384 64 l 1,3,-1
 640 64 l 1,0,-1
192 0 m 1,4,-1
 128 0 l 1,5,-1
 128 384 l 1,6,-1
 128 448 l 1,7,-1
 192 448 l 1,8,-1
 192 512 l 1,9,-1
 832 512 l 1,10,-1
 832 448 l 1,11,-1
 896 448 l 1,12,-1
 896 64 l 1,13,-1
 896 0 l 1,14,-1
 832 0 l 1,15,-1
 832 -64 l 1,16,-1
 192 -64 l 1,17,-1
 192 0 l 1,4,-1
192 576 m 1,18,-1
 192 768 l 1,19,-1
 448 768 l 1,20,-1
 448 576 l 1,21,-1
 192 576 l 1,18,-1
576 576 m 1,22,-1
 576 768 l 1,23,-1
 832 768 l 1,24,-1
 832 576 l 1,25,-1
 576 576 l 1,22,-1
EndSplineSet
Validated: 1
EndChar

StartChar: divide
Encoding: 247 247 146
Width: 1024
GlyphClass: 2
Flags: W
LayerCount: 2
Fore
SplineSet
384 576 m 1,0,-1
 384 704 l 1,1,-1
 448 704 l 1,2,-1
 448 768 l 1,3,-1
 576 768 l 1,4,-1
 576 704 l 1,5,-1
 640 704 l 1,6,-1
 640 576 l 1,7,-1
 576 576 l 1,8,-1
 576 512 l 1,9,-1
 448 512 l 1,10,-1
 448 576 l 1,11,-1
 384 576 l 1,0,-1
384 -64 m 1,12,-1
 384 64 l 1,13,-1
 448 64 l 1,14,-1
 448 128 l 1,15,-1
 576 128 l 1,16,-1
 576 64 l 1,17,-1
 640 64 l 1,18,-1
 640 -64 l 1,19,-1
 576 -64 l 1,20,-1
 576 -128 l 1,21,-1
 448 -128 l 1,22,-1
 448 -64 l 1,23,-1
 384 -64 l 1,12,-1
128 192 m 1,24,-1
 128 448 l 1,25,-1
 896 448 l 1,26,-1
 896 192 l 1,27,-1
 128 192 l 1,24,-1
EndSplineSet
Validated: 1
EndChar

StartChar: ugrave
Encoding: 249 249 147
Width: 1024
GlyphClass: 2
Flags: W
LayerCount: 2
Fore
SplineSet
256 704 m 1,0,-1
 256 768 l 1,1,-1
 512 768 l 1,2,-1
 512 704 l 1,3,-1
 576 704 l 1,4,-1
 576 640 l 1,5,-1
 640 640 l 1,6,-1
 640 576 l 1,7,-1
 384 576 l 1,8,-1
 384 640 l 1,9,-1
 320 640 l 1,10,-1
 320 704 l 1,11,-1
 256 704 l 1,0,-1
128 0 m 1,12,-1
 128 512 l 1,13,-1
 384 512 l 1,14,-1
 384 64 l 1,15,-1
 640 64 l 1,16,-1
 640 512 l 1,17,-1
 896 512 l 1,18,-1
 896 0 l 1,19,-1
 832 0 l 1,20,-1
 832 -64 l 1,21,-1
 192 -64 l 1,22,-1
 192 0 l 1,23,-1
 128 0 l 1,12,-1
EndSplineSet
Validated: 1
EndChar

StartChar: uacute
Encoding: 250 250 148
Width: 1024
GlyphClass: 2
Flags: W
LayerCount: 2
Fore
SplineSet
384 576 m 1,0,-1
 384 640 l 1,1,-1
 448 640 l 1,2,-1
 448 704 l 1,3,-1
 512 704 l 1,4,-1
 512 768 l 1,5,-1
 768 768 l 1,6,-1
 768 704 l 1,7,-1
 704 704 l 1,8,-1
 704 640 l 1,9,-1
 640 640 l 1,10,-1
 640 576 l 1,11,-1
 384 576 l 1,0,-1
128 0 m 1,12,-1
 128 512 l 1,13,-1
 384 512 l 1,14,-1
 384 64 l 1,15,-1
 640 64 l 1,16,-1
 640 512 l 1,17,-1
 896 512 l 1,18,-1
 896 0 l 1,19,-1
 832 0 l 1,20,-1
 832 -64 l 1,21,-1
 192 -64 l 1,22,-1
 192 0 l 1,23,-1
 128 0 l 1,12,-1
EndSplineSet
Validated: 1
EndChar

StartChar: ucircumflex
Encoding: 251 251 149
Width: 1024
GlyphClass: 2
Flags: W
LayerCount: 2
Fore
SplineSet
640 640 m 1,0,-1
 384 640 l 1,1,-1
 384 576 l 1,2,-1
 128 576 l 1,3,-1
 128 640 l 1,4,-1
 128 704 l 1,5,-1
 192 704 l 1,6,-1
 192 768 l 1,7,-1
 832 768 l 1,8,-1
 832 704 l 1,9,-1
 896 704 l 1,10,-1
 896 576 l 1,11,-1
 640 576 l 1,12,-1
 640 640 l 1,0,-1
128 0 m 1,13,-1
 128 512 l 1,14,-1
 384 512 l 1,15,-1
 384 64 l 1,16,-1
 640 64 l 1,17,-1
 640 512 l 1,18,-1
 896 512 l 1,19,-1
 896 0 l 1,20,-1
 832 0 l 1,21,-1
 832 -64 l 1,22,-1
 192 -64 l 1,23,-1
 192 0 l 1,24,-1
 128 0 l 1,13,-1
EndSplineSet
Validated: 1
EndChar

StartChar: udieresis
Encoding: 252 252 150
Width: 1024
GlyphClass: 2
Flags: W
LayerCount: 2
Fore
SplineSet
128 576 m 1,0,-1
 128 768 l 1,1,-1
 384 768 l 1,2,-1
 384 576 l 1,3,-1
 128 576 l 1,0,-1
640 576 m 1,4,-1
 640 768 l 1,5,-1
 896 768 l 1,6,-1
 896 576 l 1,7,-1
 640 576 l 1,4,-1
128 0 m 1,8,-1
 128 512 l 1,9,-1
 384 512 l 1,10,-1
 384 64 l 1,11,-1
 640 64 l 1,12,-1
 640 512 l 1,13,-1
 896 512 l 1,14,-1
 896 0 l 1,15,-1
 832 0 l 1,16,-1
 832 -64 l 1,17,-1
 192 -64 l 1,18,-1
 192 0 l 1,19,-1
 128 0 l 1,8,-1
EndSplineSet
Validated: 1
EndChar

StartChar: ydieresis
Encoding: 255 255 151
Width: 1024
GlyphClass: 2
Flags: W
LayerCount: 2
Fore
SplineSet
128 576 m 1,0,-1
 128 768 l 1,1,-1
 384 768 l 1,2,-1
 384 576 l 1,3,-1
 128 576 l 1,0,-1
640 576 m 1,4,-1
 640 768 l 1,5,-1
 896 768 l 1,6,-1
 896 576 l 1,7,-1
 640 576 l 1,4,-1
128 -64 m 1,8,-1
 128 64 l 1,9,-1
 384 64 l 1,10,-1
 384 0 l 1,11,-1
 640 0 l 1,12,-1
 640 128 l 1,13,-1
 192 128 l 1,14,-1
 192 192 l 1,15,-1
 128 192 l 1,16,-1
 128 256 l 1,17,-1
 128 512 l 1,18,-1
 384 512 l 1,19,-1
 384 256 l 1,20,-1
 640 256 l 1,21,-1
 640 512 l 1,22,-1
 896 512 l 1,23,-1
 896 192 l 1,24,-1
 896 -64 l 1,25,-1
 832 -64 l 1,26,-1
 832 -128 l 1,27,-1
 768 -128 l 1,28,-1
 192 -128 l 1,29,-1
 192 -64 l 1,30,-1
 128 -64 l 1,8,-1
EndSplineSet
Validated: 1
EndChar

StartChar: florin
Encoding: 402 402 152
Width: 1024
GlyphClass: 2
Flags: W
LayerCount: 2
Fore
SplineSet
256 256 m 1,0,-1
 256 384 l 1,1,-1
 384 384 l 1,2,-1
 384 576 l 1,3,-1
 384 704 l 1,4,-1
 448 704 l 1,5,-1
 448 768 l 1,6,-1
 704 768 l 1,7,-1
 704 704 l 1,8,-1
 768 704 l 1,9,-1
 768 576 l 1,10,-1
 640 576 l 1,11,-1
 640 384 l 1,12,-1
 768 384 l 1,13,-1
 768 256 l 1,14,-1
 640 256 l 1,15,-1
 640 64 l 1,16,-1
 640 -64 l 1,17,-1
 576 -64 l 1,18,-1
 576 -128 l 1,19,-1
 320 -128 l 1,20,-1
 320 -64 l 1,21,-1
 256 -64 l 1,22,-1
 256 64 l 1,23,-1
 384 64 l 1,24,-1
 384 256 l 1,25,-1
 256 256 l 1,0,-1
EndSplineSet
Validated: 1
EndChar

StartChar: Gamma
Encoding: 915 915 153
Width: 1024
GlyphClass: 2
Flags: W
LayerCount: 2
Fore
SplineSet
64 -64 m 1,0,-1
 64 64 l 1,1,-1
 128 64 l 1,2,-1
 128 576 l 1,3,-1
 128 704 l 1,4,-1
 640 704 l 1,5,-1
 896 704 l 1,6,-1
 896 448 l 1,7,-1
 640 448 l 1,8,-1
 640 576 l 1,9,-1
 384 576 l 1,10,-1
 384 64 l 1,11,-1
 448 64 l 1,12,-1
 448 -64 l 1,13,-1
 64 -64 l 1,0,-1
EndSplineSet
Validated: 1
EndChar

StartChar: Theta
Encoding: 920 920 154
Width: 1024
GlyphClass: 2
Flags: W
LayerCount: 2
Fore
SplineSet
640 384 m 1,0,-1
 640 576 l 1,1,-1
 384 576 l 1,2,-1
 384 384 l 1,3,-1
 640 384 l 1,0,-1
640 64 m 1,4,-1
 640 256 l 1,5,-1
 384 256 l 1,6,-1
 384 64 l 1,7,-1
 640 64 l 1,4,-1
192 0 m 1,8,-1
 128 0 l 1,9,-1
 128 256 l 1,10,-1
 128 320 l 1,11,-1
 128 576 l 1,12,-1
 128 640 l 1,13,-1
 192 640 l 1,14,-1
 192 704 l 1,15,-1
 832 704 l 1,16,-1
 832 640 l 1,17,-1
 896 640 l 1,18,-1
 896 384 l 1,19,-1
 896 320 l 1,20,-1
 896 64 l 1,21,-1
 896 0 l 1,22,-1
 832 0 l 1,23,-1
 832 -64 l 1,24,-1
 192 -64 l 1,25,-1
 192 0 l 1,8,-1
EndSplineSet
Validated: 1
EndChar

StartChar: Sigma
Encoding: 931 931 155
Width: 1024
GlyphClass: 2
Flags: W
LayerCount: 2
Fore
SplineSet
128 0 m 1,0,-1
 128 128 l 1,1,-1
 192 128 l 1,2,-1
 192 192 l 1,3,-1
 256 192 l 1,4,-1
 256 256 l 1,5,-1
 320 256 l 1,6,-1
 320 384 l 1,7,-1
 256 384 l 1,8,-1
 256 448 l 1,9,-1
 192 448 l 1,10,-1
 192 512 l 1,11,-1
 128 512 l 1,12,-1
 128 576 l 1,13,-1
 128 704 l 1,14,-1
 640 704 l 1,15,-1
 896 704 l 1,16,-1
 896 512 l 1,17,-1
 640 512 l 1,18,-1
 640 576 l 1,19,-1
 448 576 l 1,20,-1
 448 512 l 1,21,-1
 512 512 l 1,22,-1
 512 448 l 1,23,-1
 576 448 l 1,24,-1
 576 384 l 1,25,-1
 640 384 l 1,26,-1
 640 256 l 1,27,-1
 576 256 l 1,28,-1
 576 192 l 1,29,-1
 512 192 l 1,30,-1
 512 128 l 1,31,-1
 448 128 l 1,32,-1
 448 64 l 1,33,-1
 640 64 l 1,34,-1
 640 128 l 1,35,-1
 896 128 l 1,36,-1
 896 64 l 1,37,-1
 896 -64 l 1,38,-1
 832 -64 l 1,39,-1
 128 -64 l 1,40,-1
 128 0 l 1,0,-1
EndSplineSet
Validated: 1
EndChar

StartChar: Phi
Encoding: 934 934 156
Width: 1024
GlyphClass: 2
Flags: W
LayerCount: 2
Fore
SplineSet
576 384 m 1,0,-1
 448 384 l 1,1,-1
 448 256 l 1,2,-1
 576 256 l 1,3,-1
 576 384 l 1,0,-1
192 -64 m 1,4,-1
 192 64 l 1,5,-1
 384 64 l 1,6,-1
 384 128 l 1,7,-1
 320 128 l 1,8,-1
 320 192 l 1,9,-1
 256 192 l 1,10,-1
 256 256 l 1,11,-1
 256 384 l 1,12,-1
 256 448 l 1,13,-1
 320 448 l 1,14,-1
 320 512 l 1,15,-1
 384 512 l 1,16,-1
 384 576 l 1,17,-1
 192 576 l 1,18,-1
 192 704 l 1,19,-1
 832 704 l 1,20,-1
 832 576 l 1,21,-1
 640 576 l 1,22,-1
 640 512 l 1,23,-1
 704 512 l 1,24,-1
 704 448 l 1,25,-1
 768 448 l 1,26,-1
 768 384 l 1,27,-1
 768 256 l 1,28,-1
 768 192 l 1,29,-1
 704 192 l 1,30,-1
 704 128 l 1,31,-1
 640 128 l 1,32,-1
 640 64 l 1,33,-1
 832 64 l 1,34,-1
 832 -64 l 1,35,-1
 192 -64 l 1,4,-1
EndSplineSet
Validated: 1
EndChar

StartChar: uni03A9
Encoding: 937 937 157
Width: 1024
GlyphClass: 2
Flags: W
LayerCount: 2
Fore
SplineSet
128 -64 m 1,0,-1
 128 128 l 1,1,-1
 320 128 l 1,2,-1
 320 192 l 1,3,-1
 192 192 l 1,4,-1
 192 256 l 1,5,-1
 128 256 l 1,6,-1
 128 576 l 1,7,-1
 128 640 l 1,8,-1
 192 640 l 1,9,-1
 192 704 l 1,10,-1
 832 704 l 1,11,-1
 832 640 l 1,12,-1
 896 640 l 1,13,-1
 896 320 l 1,14,-1
 896 256 l 1,15,-1
 832 256 l 1,16,-1
 832 192 l 1,17,-1
 704 192 l 1,18,-1
 704 128 l 1,19,-1
 896 128 l 1,20,-1
 896 -64 l 1,21,-1
 704 -64 l 1,22,-1
 576 -64 l 1,23,-1
 576 192 l 1,24,-1
 576 256 l 1,25,-1
 576 320 l 1,26,-1
 640 320 l 1,27,-1
 640 576 l 1,28,-1
 384 576 l 1,29,-1
 384 320 l 1,30,-1
 448 320 l 1,31,-1
 448 -64 l 1,32,-1
 384 -64 l 1,33,-1
 128 -64 l 1,0,-1
EndSplineSet
Validated: 1
EndChar

StartChar: alpha
Encoding: 945 945 158
Width: 1024
GlyphClass: 2
Flags: W
LayerCount: 2
Fore
SplineSet
128 64 m 1,0,-1
 128 448 l 1,1,-1
 128 512 l 1,2,-1
 192 512 l 1,3,-1
 192 576 l 1,4,-1
 576 576 l 1,5,-1
 576 512 l 1,6,-1
 640 512 l 1,7,-1
 640 448 l 1,8,-1
 704 448 l 1,9,-1
 704 512 l 1,10,-1
 768 512 l 1,11,-1
 768 576 l 1,12,-1
 896 576 l 1,13,-1
 960 576 l 1,14,-1
 960 448 l 1,15,-1
 896 448 l 1,16,-1
 896 384 l 1,17,-1
 832 384 l 1,18,-1
 832 128 l 1,19,-1
 896 128 l 1,20,-1
 896 64 l 1,21,-1
 960 64 l 1,22,-1
 960 -64 l 1,23,-1
 896 -64 l 1,24,-1
 768 -64 l 1,25,-1
 768 0 l 1,26,-1
 704 0 l 1,27,-1
 704 64 l 1,28,-1
 640 64 l 1,29,-1
 640 0 l 1,30,-1
 576 0 l 1,31,-1
 576 -64 l 1,32,-1
 192 -64 l 1,33,-1
 192 0 l 1,34,-1
 128 0 l 1,35,-1
 128 64 l 1,0,-1
320 64 m 1,36,-1
 448 64 l 1,37,-1
 448 128 l 1,38,-1
 512 128 l 1,39,-1
 512 384 l 1,40,-1
 448 384 l 1,41,-1
 448 448 l 1,42,-1
 320 448 l 1,43,-1
 320 64 l 1,36,-1
EndSplineSet
Validated: 1
EndChar

StartChar: delta
Encoding: 948 948 159
Width: 1024
GlyphClass: 2
Flags: W
LayerCount: 2
Fore
SplineSet
192 320 m 1,0,-1
 192 448 l 1,1,-1
 128 448 l 1,2,-1
 128 576 l 1,3,-1
 128 640 l 1,4,-1
 192 640 l 1,5,-1
 192 704 l 1,6,-1
 832 704 l 1,7,-1
 832 640 l 1,8,-1
 896 640 l 1,9,-1
 896 512 l 1,10,-1
 640 512 l 1,11,-1
 640 576 l 1,12,-1
 384 576 l 1,13,-1
 384 448 l 1,14,-1
 832 448 l 1,15,-1
 832 384 l 1,16,-1
 896 384 l 1,17,-1
 896 0 l 1,18,-1
 832 0 l 1,19,-1
 832 -64 l 1,20,-1
 768 -64 l 1,21,-1
 192 -64 l 1,22,-1
 192 0 l 1,23,-1
 128 0 l 1,24,-1
 128 64 l 1,25,-1
 128 320 l 1,26,-1
 192 320 l 1,0,-1
384 320 m 1,27,-1
 384 64 l 1,28,-1
 640 64 l 1,29,-1
 640 320 l 1,30,-1
 384 320 l 1,27,-1
EndSplineSet
Validated: 1
EndChar

StartChar: epsilon
Encoding: 949 949 160
Width: 1024
GlyphClass: 2
Flags: W
LayerCount: 2
Fore
SplineSet
192 0 m 1,0,-1
 128 0 l 1,1,-1
 128 64 l 1,2,-1
 128 192 l 1,3,-1
 192 192 l 1,4,-1
 192 320 l 1,5,-1
 128 320 l 1,6,-1
 128 448 l 1,7,-1
 128 512 l 1,8,-1
 192 512 l 1,9,-1
 192 576 l 1,10,-1
 832 576 l 1,11,-1
 832 512 l 1,12,-1
 896 512 l 1,13,-1
 896 384 l 1,14,-1
 640 384 l 1,15,-1
 640 448 l 1,16,-1
 384 448 l 1,17,-1
 384 320 l 1,18,-1
 640 320 l 1,19,-1
 640 192 l 1,20,-1
 384 192 l 1,21,-1
 384 64 l 1,22,-1
 640 64 l 1,23,-1
 640 128 l 1,24,-1
 896 128 l 1,25,-1
 896 0 l 1,26,-1
 832 0 l 1,27,-1
 832 -64 l 1,28,-1
 192 -64 l 1,29,-1
 192 0 l 1,0,-1
EndSplineSet
Validated: 1
EndChar

StartChar: pi
Encoding: 960 960 161
Width: 1024
GlyphClass: 2
Flags: W
LayerCount: 2
Fore
SplineSet
128 448 m 1,0,-1
 128 512 l 1,1,-1
 192 512 l 1,2,-1
 192 576 l 1,3,-1
 960 576 l 1,4,-1
 960 512 l 1,5,-1
 896 512 l 1,6,-1
 896 448 l 1,7,-1
 832 448 l 1,8,-1
 832 -64 l 1,9,-1
 768 -64 l 1,10,-1
 704 -64 l 1,11,-1
 704 0 l 1,12,-1
 640 0 l 1,13,-1
 640 448 l 1,14,-1
 448 448 l 1,15,-1
 448 0 l 1,16,-1
 384 0 l 1,17,-1
 384 -64 l 1,18,-1
 256 -64 l 1,19,-1
 256 448 l 1,20,-1
 128 448 l 1,0,-1
EndSplineSet
Validated: 1
EndChar

StartChar: sigma
Encoding: 963 963 162
Width: 1024
GlyphClass: 2
Flags: W
LayerCount: 2
Fore
SplineSet
192 0 m 1,0,-1
 128 0 l 1,1,-1
 128 64 l 1,2,-1
 128 448 l 1,3,-1
 128 512 l 1,4,-1
 192 512 l 1,5,-1
 192 576 l 1,6,-1
 960 576 l 1,7,-1
 960 512 l 1,8,-1
 960 448 l 1,9,-1
 384 448 l 1,10,-1
 384 64 l 1,11,-1
 512 64 l 1,12,-1
 512 384 l 1,13,-1
 768 384 l 1,14,-1
 768 64 l 1,15,-1
 768 0 l 1,16,-1
 704 0 l 1,17,-1
 704 -64 l 1,18,-1
 192 -64 l 1,19,-1
 192 0 l 1,0,-1
EndSplineSet
Validated: 1
EndChar

StartChar: tau
Encoding: 964 964 163
Width: 1024
GlyphClass: 2
Flags: W
LayerCount: 2
Fore
SplineSet
128 448 m 1,0,-1
 128 512 l 1,1,-1
 192 512 l 1,2,-1
 192 576 l 1,3,-1
 832 576 l 1,4,-1
 832 512 l 1,5,-1
 768 512 l 1,6,-1
 768 448 l 1,7,-1
 576 448 l 1,8,-1
 576 -64 l 1,9,-1
 512 -64 l 1,10,-1
 448 -64 l 1,11,-1
 448 0 l 1,12,-1
 384 0 l 1,13,-1
 384 448 l 1,14,-1
 128 448 l 1,0,-1
EndSplineSet
Validated: 1
EndChar

StartChar: phi
Encoding: 966 966 164
Width: 1024
GlyphClass: 2
Flags: W
LayerCount: 2
Fore
SplineSet
576 128 m 1,0,-1
 704 128 l 1,1,-1
 704 448 l 1,2,-1
 576 448 l 1,3,-1
 576 128 l 1,0,-1
192 64 m 1,4,-1
 128 64 l 1,5,-1
 128 128 l 1,6,-1
 128 512 l 1,7,-1
 192 512 l 1,8,-1
 192 576 l 1,9,-1
 320 576 l 1,10,-1
 384 576 l 1,11,-1
 384 448 l 1,12,-1
 320 448 l 1,13,-1
 320 128 l 1,14,-1
 448 128 l 1,15,-1
 448 448 l 1,16,-1
 448 512 l 1,17,-1
 512 512 l 1,18,-1
 512 576 l 1,19,-1
 768 576 l 1,20,-1
 832 576 l 1,21,-1
 832 512 l 1,22,-1
 896 512 l 1,23,-1
 896 64 l 1,24,-1
 832 64 l 1,25,-1
 832 0 l 1,26,-1
 576 0 l 1,27,-1
 576 -128 l 1,28,-1
 448 -128 l 1,29,-1
 448 0 l 1,30,-1
 192 0 l 1,31,-1
 192 64 l 1,4,-1
EndSplineSet
Validated: 1
EndChar

StartChar: bullet
Encoding: 8226 8226 165
Width: 1024
GlyphClass: 2
Flags: W
LayerCount: 2
Fore
SplineSet
256 128 m 1,0,-1
 256 512 l 1,1,-1
 320 512 l 1,2,-1
 320 576 l 1,3,-1
 704 576 l 1,4,-1
 704 512 l 1,5,-1
 768 512 l 1,6,-1
 768 128 l 1,7,-1
 704 128 l 1,8,-1
 704 64 l 1,9,-1
 320 64 l 1,10,-1
 320 128 l 1,11,-1
 256 128 l 1,0,-1
EndSplineSet
Validated: 1
EndChar

StartChar: exclamdbl
Encoding: 8252 8252 166
Width: 1024
GlyphClass: 2
Flags: W
LayerCount: 2
Fore
SplineSet
640 -64 m 1,0,-1
 640 192 l 1,1,-1
 896 192 l 1,2,-1
 896 -64 l 1,3,-1
 640 -64 l 1,0,-1
128 -64 m 1,4,-1
 128 192 l 1,5,-1
 384 192 l 1,6,-1
 384 -64 l 1,7,-1
 128 -64 l 1,4,-1
640 320 m 1,8,-1
 640 704 l 1,9,-1
 896 704 l 1,10,-1
 896 320 l 1,11,-1
 640 320 l 1,8,-1
128 320 m 1,12,-1
 128 704 l 1,13,-1
 384 704 l 1,14,-1
 384 320 l 1,15,-1
 128 320 l 1,12,-1
EndSplineSet
Validated: 1
EndChar

StartChar: uni207F
Encoding: 8319 8319 167
Width: 1024
GlyphClass: 2
Flags: W
LayerCount: 2
Fore
SplineSet
448 576 m 1,0,-1
 448 256 l 1,1,-1
 256 256 l 1,2,-1
 256 576 l 1,3,-1
 256 640 l 1,4,-1
 320 640 l 1,5,-1
 320 704 l 1,6,-1
 704 704 l 1,7,-1
 704 640 l 1,8,-1
 768 640 l 1,9,-1
 768 576 l 1,10,-1
 768 256 l 1,11,-1
 576 256 l 1,12,-1
 576 576 l 1,13,-1
 448 576 l 1,0,-1
EndSplineSet
Validated: 1
EndChar

StartChar: peseta
Encoding: 8359 8359 168
Width: 1024
GlyphClass: 2
Flags: W
LayerCount: 2
Fore
SplineSet
448 64 m 1,0,-1
 448 192 l 1,1,-1
 576 192 l 1,2,-1
 576 256 l 1,3,-1
 768 256 l 1,4,-1
 768 192 l 1,5,-1
 896 192 l 1,6,-1
 896 128 l 1,7,-1
 896 64 l 1,8,-1
 768 64 l 1,9,-1
 768 0 l 1,10,-1
 896 0 l 1,11,-1
 896 -128 l 1,12,-1
 768 -128 l 1,13,-1
 640 -128 l 1,14,-1
 640 -64 l 1,15,-1
 576 -64 l 1,16,-1
 576 64 l 1,17,-1
 448 64 l 1,0,-1
384 640 m 1,18,-1
 384 448 l 1,19,-1
 640 448 l 1,20,-1
 640 640 l 1,21,-1
 384 640 l 1,18,-1
128 640 m 1,22,-1
 128 768 l 1,23,-1
 640 768 l 1,24,-1
 832 768 l 1,25,-1
 832 704 l 1,26,-1
 896 704 l 1,27,-1
 896 384 l 1,28,-1
 832 384 l 1,29,-1
 832 320 l 1,30,-1
 640 320 l 1,31,-1
 384 320 l 1,32,-1
 384 -128 l 1,33,-1
 128 -128 l 1,34,-1
 128 640 l 1,22,-1
EndSplineSet
Validated: 1
EndChar

StartChar: arrowleft
Encoding: 8592 8592 169
Width: 1024
GlyphClass: 2
Flags: W
LayerCount: 2
Fore
SplineSet
64 256 m 1,0,-1
 64 384 l 1,1,-1
 128 384 l 1,2,-1
 128 448 l 1,3,-1
 192 448 l 1,4,-1
 192 512 l 1,5,-1
 256 512 l 1,6,-1
 256 576 l 1,7,-1
 320 576 l 1,8,-1
 320 640 l 1,9,-1
 576 640 l 1,10,-1
 576 576 l 1,11,-1
 512 576 l 1,12,-1
 512 512 l 1,13,-1
 448 512 l 1,14,-1
 448 448 l 1,15,-1
 896 448 l 1,16,-1
 960 448 l 1,17,-1
 960 192 l 1,18,-1
 896 192 l 1,19,-1
 448 192 l 1,20,-1
 448 128 l 1,21,-1
 512 128 l 1,22,-1
 512 64 l 1,23,-1
 576 64 l 1,24,-1
 576 0 l 1,25,-1
 320 0 l 1,26,-1
 320 64 l 1,27,-1
 256 64 l 1,28,-1
 256 128 l 1,29,-1
 192 128 l 1,30,-1
 192 192 l 1,31,-1
 128 192 l 1,32,-1
 128 256 l 1,33,-1
 64 256 l 1,0,-1
EndSplineSet
Validated: 1
EndChar

StartChar: arrowup
Encoding: 8593 8593 170
Width: 1024
GlyphClass: 2
Flags: W
LayerCount: 2
Fore
SplineSet
384 384 m 1,0,-1
 320 384 l 1,1,-1
 320 320 l 1,2,-1
 256 320 l 1,3,-1
 256 256 l 1,4,-1
 192 256 l 1,5,-1
 192 320 l 1,6,-1
 192 384 l 1,7,-1
 192 512 l 1,8,-1
 256 512 l 1,9,-1
 256 576 l 1,10,-1
 320 576 l 1,11,-1
 320 640 l 1,12,-1
 384 640 l 1,13,-1
 384 704 l 1,14,-1
 448 704 l 1,15,-1
 448 768 l 1,16,-1
 576 768 l 1,17,-1
 576 704 l 1,18,-1
 640 704 l 1,19,-1
 640 640 l 1,20,-1
 704 640 l 1,21,-1
 704 576 l 1,22,-1
 768 576 l 1,23,-1
 768 512 l 1,24,-1
 832 512 l 1,25,-1
 832 320 l 1,26,-1
 832 256 l 1,27,-1
 768 256 l 1,28,-1
 768 320 l 1,29,-1
 704 320 l 1,30,-1
 704 384 l 1,31,-1
 640 384 l 1,32,-1
 640 -128 l 1,33,-1
 384 -128 l 1,34,-1
 384 384 l 1,0,-1
EndSplineSet
Validated: 1
EndChar

StartChar: arrowright
Encoding: 8594 8594 171
Width: 1024
GlyphClass: 2
Flags: W
LayerCount: 2
Fore
SplineSet
64 192 m 1,0,-1
 64 448 l 1,1,-1
 576 448 l 1,2,-1
 576 512 l 1,3,-1
 512 512 l 1,4,-1
 512 576 l 1,5,-1
 448 576 l 1,6,-1
 448 640 l 1,7,-1
 704 640 l 1,8,-1
 704 576 l 1,9,-1
 768 576 l 1,10,-1
 768 512 l 1,11,-1
 832 512 l 1,12,-1
 832 448 l 1,13,-1
 896 448 l 1,14,-1
 896 384 l 1,15,-1
 960 384 l 1,16,-1
 960 256 l 1,17,-1
 896 256 l 1,18,-1
 896 192 l 1,19,-1
 832 192 l 1,20,-1
 832 128 l 1,21,-1
 768 128 l 1,22,-1
 768 64 l 1,23,-1
 704 64 l 1,24,-1
 704 0 l 1,25,-1
 448 0 l 1,26,-1
 448 64 l 1,27,-1
 512 64 l 1,28,-1
 512 128 l 1,29,-1
 576 128 l 1,30,-1
 576 192 l 1,31,-1
 64 192 l 1,0,-1
EndSplineSet
Validated: 1
EndChar

StartChar: arrowdown
Encoding: 8595 8595 172
Width: 1024
GlyphClass: 2
Flags: W
LayerCount: 2
Fore
SplineSet
192 128 m 1,0,-1
 192 384 l 1,1,-1
 256 384 l 1,2,-1
 256 320 l 1,3,-1
 320 320 l 1,4,-1
 320 256 l 1,5,-1
 384 256 l 1,6,-1
 384 768 l 1,7,-1
 640 768 l 1,8,-1
 640 256 l 1,9,-1
 704 256 l 1,10,-1
 704 320 l 1,11,-1
 768 320 l 1,12,-1
 768 384 l 1,13,-1
 832 384 l 1,14,-1
 832 128 l 1,15,-1
 768 128 l 1,16,-1
 768 64 l 1,17,-1
 704 64 l 1,18,-1
 704 0 l 1,19,-1
 640 0 l 1,20,-1
 640 -64 l 1,21,-1
 576 -64 l 1,22,-1
 576 -128 l 1,23,-1
 448 -128 l 1,24,-1
 448 -64 l 1,25,-1
 384 -64 l 1,26,-1
 384 0 l 1,27,-1
 320 0 l 1,28,-1
 320 64 l 1,29,-1
 256 64 l 1,30,-1
 256 128 l 1,31,-1
 192 128 l 1,0,-1
EndSplineSet
Validated: 1
EndChar

StartChar: arrowboth
Encoding: 8596 8596 173
Width: 1024
GlyphClass: 2
Flags: W
LayerCount: 2
Fore
SplineSet
64 256 m 1,0,-1
 64 384 l 1,1,-1
 128 384 l 1,2,-1
 128 448 l 1,3,-1
 192 448 l 1,4,-1
 192 512 l 1,5,-1
 256 512 l 1,6,-1
 256 576 l 1,7,-1
 384 576 l 1,8,-1
 384 512 l 1,9,-1
 384 448 l 1,10,-1
 640 448 l 1,11,-1
 640 576 l 1,12,-1
 768 576 l 1,13,-1
 768 512 l 1,14,-1
 832 512 l 1,15,-1
 832 448 l 1,16,-1
 896 448 l 1,17,-1
 896 384 l 1,18,-1
 960 384 l 1,19,-1
 960 256 l 1,20,-1
 896 256 l 1,21,-1
 896 192 l 1,22,-1
 832 192 l 1,23,-1
 832 128 l 1,24,-1
 768 128 l 1,25,-1
 768 64 l 1,26,-1
 640 64 l 1,27,-1
 640 128 l 1,28,-1
 640 192 l 1,29,-1
 384 192 l 1,30,-1
 384 64 l 1,31,-1
 320 64 l 1,32,-1
 256 64 l 1,33,-1
 256 128 l 1,34,-1
 192 128 l 1,35,-1
 192 192 l 1,36,-1
 128 192 l 1,37,-1
 128 256 l 1,38,-1
 64 256 l 1,0,-1
EndSplineSet
Validated: 1
EndChar

StartChar: arrowupdn
Encoding: 8597 8597 174
Width: 1024
GlyphClass: 2
Flags: W
LayerCount: 2
Fore
SplineSet
256 64 m 1,0,-1
 256 192 l 1,1,-1
 384 192 l 1,2,-1
 384 448 l 1,3,-1
 256 448 l 1,4,-1
 256 576 l 1,5,-1
 320 576 l 1,6,-1
 320 640 l 1,7,-1
 384 640 l 1,8,-1
 384 704 l 1,9,-1
 448 704 l 1,10,-1
 448 768 l 1,11,-1
 576 768 l 1,12,-1
 576 704 l 1,13,-1
 640 704 l 1,14,-1
 640 640 l 1,15,-1
 704 640 l 1,16,-1
 704 576 l 1,17,-1
 768 576 l 1,18,-1
 768 448 l 1,19,-1
 640 448 l 1,20,-1
 640 192 l 1,21,-1
 768 192 l 1,22,-1
 768 64 l 1,23,-1
 704 64 l 1,24,-1
 704 0 l 1,25,-1
 640 0 l 1,26,-1
 640 -64 l 1,27,-1
 576 -64 l 1,28,-1
 576 -128 l 1,29,-1
 448 -128 l 1,30,-1
 448 -64 l 1,31,-1
 384 -64 l 1,32,-1
 384 0 l 1,33,-1
 320 0 l 1,34,-1
 320 64 l 1,35,-1
 256 64 l 1,0,-1
EndSplineSet
Validated: 1
EndChar

StartChar: arrowupdnbse
Encoding: 8616 8616 175
Width: 1024
GlyphClass: 2
Flags: W
LayerCount: 2
Fore
SplineSet
256 192 m 1,0,-1
 256 256 l 1,1,-1
 384 256 l 1,2,-1
 384 512 l 1,3,-1
 256 512 l 1,4,-1
 256 576 l 1,5,-1
 320 576 l 1,6,-1
 320 640 l 1,7,-1
 384 640 l 1,8,-1
 384 704 l 1,9,-1
 448 704 l 1,10,-1
 448 768 l 1,11,-1
 576 768 l 1,12,-1
 576 704 l 1,13,-1
 640 704 l 1,14,-1
 640 640 l 1,15,-1
 704 640 l 1,16,-1
 704 576 l 1,17,-1
 768 576 l 1,18,-1
 768 512 l 1,19,-1
 640 512 l 1,20,-1
 640 256 l 1,21,-1
 768 256 l 1,22,-1
 768 192 l 1,23,-1
 704 192 l 1,24,-1
 704 128 l 1,25,-1
 640 128 l 1,26,-1
 640 64 l 1,27,-1
 576 64 l 1,28,-1
 576 0 l 1,29,-1
 704 0 l 1,30,-1
 704 -128 l 1,31,-1
 576 -128 l 1,32,-1
 448 -128 l 1,33,-1
 320 -128 l 1,34,-1
 320 0 l 1,35,-1
 448 0 l 1,36,-1
 448 64 l 1,37,-1
 384 64 l 1,38,-1
 384 128 l 1,39,-1
 320 128 l 1,40,-1
 320 192 l 1,41,-1
 256 192 l 1,0,-1
EndSplineSet
Validated: 1
EndChar

StartChar: uni2219
Encoding: 8729 8729 176
Width: 1024
GlyphClass: 2
Flags: W
LayerCount: 2
Fore
SplineSet
320 192 m 1,0,-1
 320 448 l 1,1,-1
 384 448 l 1,2,-1
 384 512 l 1,3,-1
 640 512 l 1,4,-1
 640 448 l 1,5,-1
 704 448 l 1,6,-1
 704 192 l 1,7,-1
 640 192 l 1,8,-1
 640 128 l 1,9,-1
 384 128 l 1,10,-1
 384 192 l 1,11,-1
 320 192 l 1,0,-1
EndSplineSet
Validated: 1
EndChar

StartChar: radical
Encoding: 8730 8730 177
Width: 1024
GlyphClass: 2
Flags: W
LayerCount: 2
Fore
SplineSet
64 192 m 1,0,-1
 64 320 l 1,1,-1
 256 320 l 1,2,-1
 256 256 l 1,3,-1
 320 256 l 1,4,-1
 320 192 l 1,5,-1
 384 192 l 1,6,-1
 384 384 l 1,7,-1
 384 448 l 1,8,-1
 384 576 l 1,9,-1
 448 576 l 1,10,-1
 448 640 l 1,11,-1
 960 640 l 1,12,-1
 960 576 l 1,13,-1
 960 448 l 1,14,-1
 640 448 l 1,15,-1
 640 384 l 1,16,-1
 576 384 l 1,17,-1
 576 0 l 1,18,-1
 576 -64 l 1,19,-1
 320 -64 l 1,20,-1
 320 0 l 1,21,-1
 256 0 l 1,22,-1
 256 64 l 1,23,-1
 192 64 l 1,24,-1
 192 128 l 1,25,-1
 128 128 l 1,26,-1
 128 192 l 1,27,-1
 64 192 l 1,0,-1
EndSplineSet
Validated: 1
EndChar

StartChar: infinity
Encoding: 8734 8734 178
Width: 1024
GlyphClass: 2
Flags: W
LayerCount: 2
Fore
SplineSet
320 128 m 1,0,-1
 448 128 l 1,1,-1
 448 512 l 1,2,-1
 320 512 l 1,3,-1
 320 128 l 1,0,-1
64 128 m 1,4,-1
 64 512 l 1,5,-1
 64 576 l 1,6,-1
 128 576 l 1,7,-1
 128 640 l 1,8,-1
 512 640 l 1,9,-1
 512 576 l 1,10,-1
 576 576 l 1,11,-1
 576 640 l 1,12,-1
 832 640 l 1,13,-1
 896 640 l 1,14,-1
 896 576 l 1,15,-1
 960 576 l 1,16,-1
 960 64 l 1,17,-1
 896 64 l 1,18,-1
 896 0 l 1,19,-1
 832 0 l 1,20,-1
 512 0 l 1,21,-1
 512 64 l 1,22,-1
 448 64 l 1,23,-1
 448 0 l 1,24,-1
 128 0 l 1,25,-1
 128 64 l 1,26,-1
 64 64 l 1,27,-1
 64 128 l 1,4,-1
704 128 m 1,28,-1
 704 512 l 1,29,-1
 576 512 l 1,30,-1
 576 128 l 1,31,-1
 704 128 l 1,28,-1
EndSplineSet
Validated: 1
EndChar

StartChar: orthogonal
Encoding: 8735 8735 179
Width: 1024
GlyphClass: 2
Flags: W
LayerCount: 2
Fore
SplineSet
320 256 m 1,0,-1
 832 256 l 1,1,-1
 832 128 l 1,2,-1
 128 128 l 1,3,-1
 128 256 l 1,4,-1
 128 512 l 1,5,-1
 320 512 l 1,6,-1
 320 256 l 1,0,-1
EndSplineSet
Validated: 1
EndChar

StartChar: intersection
Encoding: 8745 8745 180
Width: 1024
GlyphClass: 2
Flags: W
LayerCount: 2
Fore
SplineSet
384 576 m 1,0,-1
 384 -64 l 1,1,-1
 128 -64 l 1,2,-1
 128 576 l 1,3,-1
 128 640 l 1,4,-1
 192 640 l 1,5,-1
 192 704 l 1,6,-1
 832 704 l 1,7,-1
 832 640 l 1,8,-1
 896 640 l 1,9,-1
 896 -64 l 1,10,-1
 640 -64 l 1,11,-1
 640 576 l 1,12,-1
 384 576 l 1,0,-1
EndSplineSet
Validated: 1
EndChar

StartChar: approxequal
Encoding: 8776 8776 181
Width: 1024
GlyphClass: 2
Flags: W
LayerCount: 2
Fore
SplineSet
768 0 m 1,0,-1
 768 -64 l 1,1,-1
 704 -64 l 1,2,-1
 704 -128 l 1,3,-1
 512 -128 l 1,4,-1
 512 -64 l 1,5,-1
 448 -64 l 1,6,-1
 448 0 l 1,7,-1
 384 0 l 1,8,-1
 384 64 l 1,9,-1
 320 64 l 1,10,-1
 256 64 l 1,11,-1
 192 64 l 1,12,-1
 192 0 l 1,13,-1
 64 0 l 1,14,-1
 64 64 l 1,15,-1
 64 128 l 1,16,-1
 128 128 l 1,17,-1
 128 192 l 1,18,-1
 192 192 l 1,19,-1
 192 256 l 1,20,-1
 256 256 l 1,21,-1
 256 320 l 1,22,-1
 384 320 l 1,23,-1
 448 320 l 1,24,-1
 448 256 l 1,25,-1
 512 256 l 1,26,-1
 512 192 l 1,27,-1
 576 192 l 1,28,-1
 576 128 l 1,29,-1
 768 128 l 1,30,-1
 768 192 l 1,31,-1
 896 192 l 1,32,-1
 896 128 l 1,33,-1
 896 64 l 1,34,-1
 832 64 l 1,35,-1
 832 0 l 1,36,-1
 768 0 l 1,0,-1
832 448 m 1,37,-1
 832 384 l 1,38,-1
 768 384 l 1,39,-1
 768 320 l 1,40,-1
 576 320 l 1,41,-1
 576 384 l 1,42,-1
 512 384 l 1,43,-1
 512 448 l 1,44,-1
 448 448 l 1,45,-1
 448 512 l 1,46,-1
 384 512 l 1,47,-1
 320 512 l 1,48,-1
 256 512 l 1,49,-1
 256 448 l 1,50,-1
 128 448 l 1,51,-1
 128 512 l 1,52,-1
 128 576 l 1,53,-1
 192 576 l 1,54,-1
 192 640 l 1,55,-1
 256 640 l 1,56,-1
 256 704 l 1,57,-1
 320 704 l 1,58,-1
 320 768 l 1,59,-1
 448 768 l 1,60,-1
 512 768 l 1,61,-1
 512 704 l 1,62,-1
 576 704 l 1,63,-1
 576 640 l 1,64,-1
 640 640 l 1,65,-1
 640 576 l 1,66,-1
 832 576 l 1,67,-1
 832 640 l 1,68,-1
 960 640 l 1,69,-1
 960 576 l 1,70,-1
 960 512 l 1,71,-1
 896 512 l 1,72,-1
 896 448 l 1,73,-1
 832 448 l 1,37,-1
EndSplineSet
Validated: 1
EndChar

StartChar: equivalence
Encoding: 8801 8801 182
Width: 1024
GlyphClass: 2
Flags: W
LayerCount: 2
Fore
SplineSet
192 0 m 1,0,-1
 192 192 l 1,1,-1
 832 192 l 1,2,-1
 832 0 l 1,3,-1
 192 0 l 1,0,-1
192 256 m 1,4,-1
 192 448 l 1,5,-1
 832 448 l 1,6,-1
 832 256 l 1,7,-1
 192 256 l 1,4,-1
192 512 m 1,8,-1
 192 704 l 1,9,-1
 832 704 l 1,10,-1
 832 512 l 1,11,-1
 192 512 l 1,8,-1
EndSplineSet
Validated: 1
EndChar

StartChar: lessequal
Encoding: 8804 8804 183
Width: 1024
GlyphClass: 2
Flags: W
LayerCount: 2
Fore
SplineSet
192 0 m 1,0,-1
 192 128 l 1,1,-1
 832 128 l 1,2,-1
 832 0 l 1,3,-1
 192 0 l 1,0,-1
256 384 m 1,4,-1
 256 512 l 1,5,-1
 320 512 l 1,6,-1
 320 576 l 1,7,-1
 384 576 l 1,8,-1
 384 640 l 1,9,-1
 448 640 l 1,10,-1
 448 704 l 1,11,-1
 768 704 l 1,12,-1
 768 640 l 1,13,-1
 704 640 l 1,14,-1
 704 576 l 1,15,-1
 640 576 l 1,16,-1
 640 512 l 1,17,-1
 576 512 l 1,18,-1
 576 384 l 1,19,-1
 640 384 l 1,20,-1
 640 320 l 1,21,-1
 704 320 l 1,22,-1
 704 256 l 1,23,-1
 768 256 l 1,24,-1
 768 192 l 1,25,-1
 704 192 l 1,26,-1
 640 192 l 1,27,-1
 576 192 l 1,28,-1
 512 192 l 1,29,-1
 448 192 l 1,30,-1
 448 256 l 1,31,-1
 384 256 l 1,32,-1
 384 320 l 1,33,-1
 320 320 l 1,34,-1
 320 384 l 1,35,-1
 256 384 l 1,4,-1
EndSplineSet
Validated: 1
EndChar

StartChar: greaterequal
Encoding: 8805 8805 184
Width: 1024
GlyphClass: 2
Flags: W
LayerCount: 2
Fore
SplineSet
192 0 m 1,0,-1
 192 128 l 1,1,-1
 832 128 l 1,2,-1
 832 0 l 1,3,-1
 192 0 l 1,0,-1
256 192 m 1,4,-1
 256 256 l 1,5,-1
 320 256 l 1,6,-1
 320 320 l 1,7,-1
 384 320 l 1,8,-1
 384 384 l 1,9,-1
 448 384 l 1,10,-1
 448 512 l 1,11,-1
 384 512 l 1,12,-1
 384 576 l 1,13,-1
 320 576 l 1,14,-1
 320 640 l 1,15,-1
 256 640 l 1,16,-1
 256 704 l 1,17,-1
 512 704 l 1,18,-1
 576 704 l 1,19,-1
 576 640 l 1,20,-1
 640 640 l 1,21,-1
 640 576 l 1,22,-1
 704 576 l 1,23,-1
 704 512 l 1,24,-1
 768 512 l 1,25,-1
 768 384 l 1,26,-1
 704 384 l 1,27,-1
 704 320 l 1,28,-1
 640 320 l 1,29,-1
 640 256 l 1,30,-1
 576 256 l 1,31,-1
 576 192 l 1,32,-1
 256 192 l 1,4,-1
EndSplineSet
Validated: 1
EndChar

StartChar: house
Encoding: 8962 8962 185
Width: 1024
GlyphClass: 2
Flags: W
LayerCount: 2
Fore
SplineSet
896 192 m 1,0,-1
 896 0 l 1,1,-1
 128 0 l 1,2,-1
 128 192 l 1,3,-1
 128 320 l 1,4,-1
 128 384 l 1,5,-1
 192 384 l 1,6,-1
 192 448 l 1,7,-1
 256 448 l 1,8,-1
 256 512 l 1,9,-1
 320 512 l 1,10,-1
 320 576 l 1,11,-1
 384 576 l 1,12,-1
 384 640 l 1,13,-1
 448 640 l 1,14,-1
 448 704 l 1,15,-1
 576 704 l 1,16,-1
 576 640 l 1,17,-1
 640 640 l 1,18,-1
 640 576 l 1,19,-1
 704 576 l 1,20,-1
 704 512 l 1,21,-1
 768 512 l 1,22,-1
 768 448 l 1,23,-1
 832 448 l 1,24,-1
 832 384 l 1,25,-1
 896 384 l 1,26,-1
 896 320 l 1,27,-1
 896 192 l 1,0,-1
704 192 m 1,28,-1
 704 320 l 1,29,-1
 640 320 l 1,30,-1
 640 384 l 1,31,-1
 576 384 l 1,32,-1
 576 448 l 1,33,-1
 448 448 l 1,34,-1
 448 384 l 1,35,-1
 384 384 l 1,36,-1
 384 320 l 1,37,-1
 320 320 l 1,38,-1
 320 192 l 1,39,-1
 704 192 l 1,28,-1
EndSplineSet
Validated: 1
EndChar

StartChar: revlogicalnot
Encoding: 8976 8976 186
Width: 1024
GlyphClass: 2
Flags: W
LayerCount: 2
Fore
SplineSet
640 320 m 1,0,-1
 640 64 l 1,1,-1
 384 64 l 1,2,-1
 384 320 l 1,3,-1
 384 384 l 1,4,-1
 448 384 l 1,5,-1
 448 448 l 1,6,-1
 832 448 l 1,7,-1
 896 448 l 1,8,-1
 896 384 l 1,9,-1
 960 384 l 1,10,-1
 960 256 l 1,11,-1
 896 256 l 1,12,-1
 832 256 l 1,13,-1
 768 256 l 1,14,-1
 704 256 l 1,15,-1
 704 320 l 1,16,-1
 640 320 l 1,0,-1
EndSplineSet
Validated: 1
EndChar

StartChar: integraltp
Encoding: 8992 8992 187
Width: 1024
GlyphClass: 2
Flags: W
LayerCount: 2
Fore
SplineSet
640 640 m 1,0,-1
 640 -192 l 1,1,-1
 384 -192 l 1,2,-1
 384 640 l 1,3,-1
 384 704 l 1,4,-1
 448 704 l 1,5,-1
 448 768 l 1,6,-1
 832 768 l 1,7,-1
 896 768 l 1,8,-1
 896 704 l 1,9,-1
 960 704 l 1,10,-1
 960 512 l 1,11,-1
 896 512 l 1,12,-1
 832 512 l 1,13,-1
 768 512 l 1,14,-1
 768 640 l 1,15,-1
 640 640 l 1,0,-1
EndSplineSet
Validated: 1
EndChar

StartChar: integralbt
Encoding: 8993 8993 188
Width: 1024
GlyphClass: 2
Flags: W
LayerCount: 2
Fore
SplineSet
640 0 m 1,0,-1
 640 -64 l 1,1,-1
 576 -64 l 1,2,-1
 576 -128 l 1,3,-1
 128 -128 l 1,4,-1
 128 -64 l 1,5,-1
 64 -64 l 1,6,-1
 64 0 l 1,7,-1
 64 128 l 1,8,-1
 256 128 l 1,9,-1
 256 0 l 1,10,-1
 384 0 l 1,11,-1
 384 832 l 1,12,-1
 640 832 l 1,13,-1
 640 0 l 1,0,-1
EndSplineSet
Validated: 1
EndChar

StartChar: SF100000
Encoding: 9472 9472 189
Width: 1024
GlyphClass: 2
Flags: W
LayerCount: 2
Fore
SplineSet
0 192 m 1,0,-1
 0 448 l 1,1,-1
 1024 448 l 1,2,-1
 1024 192 l 1,3,-1
 0 192 l 1,0,-1
EndSplineSet
Validated: 1
EndChar

StartChar: SF110000
Encoding: 9474 9474 190
Width: 1024
GlyphClass: 2
Flags: W
LayerCount: 2
Fore
SplineSet
384 -192 m 1,0,-1
 384 832 l 1,1,-1
 640 832 l 1,2,-1
 640 -192 l 1,3,-1
 384 -192 l 1,0,-1
EndSplineSet
Validated: 1
EndChar

StartChar: SF010000
Encoding: 9484 9484 191
Width: 1024
GlyphClass: 2
Flags: W
LayerCount: 2
Fore
SplineSet
640 192 m 1,0,-1
 640 -192 l 1,1,-1
 384 -192 l 1,2,-1
 384 192 l 1,3,-1
 384 448 l 1,4,-1
 1024 448 l 1,5,-1
 1024 192 l 1,6,-1
 640 192 l 1,0,-1
EndSplineSet
Validated: 1
EndChar

StartChar: SF030000
Encoding: 9488 9488 192
Width: 1024
GlyphClass: 2
Flags: W
LayerCount: 2
Fore
SplineSet
0 192 m 1,0,-1
 0 448 l 1,1,-1
 640 448 l 1,2,-1
 640 192 l 1,3,-1
 640 -192 l 1,4,-1
 384 -192 l 1,5,-1
 384 192 l 1,6,-1
 0 192 l 1,0,-1
EndSplineSet
Validated: 1
EndChar

StartChar: SF020000
Encoding: 9492 9492 193
Width: 1024
GlyphClass: 2
Flags: W
LayerCount: 2
Fore
SplineSet
640 448 m 1,0,-1
 1024 448 l 1,1,-1
 1024 192 l 1,2,-1
 384 192 l 1,3,-1
 384 448 l 1,4,-1
 384 832 l 1,5,-1
 640 832 l 1,6,-1
 640 448 l 1,0,-1
EndSplineSet
Validated: 1
EndChar

StartChar: SF040000
Encoding: 9496 9496 194
Width: 1024
GlyphClass: 2
Flags: W
LayerCount: 2
Fore
SplineSet
0 192 m 1,0,-1
 0 448 l 1,1,-1
 384 448 l 1,2,-1
 384 832 l 1,3,-1
 640 832 l 1,4,-1
 640 448 l 1,5,-1
 640 192 l 1,6,-1
 0 192 l 1,0,-1
EndSplineSet
Validated: 1
EndChar

StartChar: SF080000
Encoding: 9500 9500 195
Width: 1024
GlyphClass: 2
Flags: W
LayerCount: 2
Fore
SplineSet
640 192 m 1,0,-1
 640 -192 l 1,1,-1
 384 -192 l 1,2,-1
 384 192 l 1,3,-1
 384 448 l 1,4,-1
 384 832 l 1,5,-1
 640 832 l 1,6,-1
 640 448 l 1,7,-1
 1024 448 l 1,8,-1
 1024 192 l 1,9,-1
 640 192 l 1,0,-1
EndSplineSet
Validated: 1
EndChar

StartChar: SF090000
Encoding: 9508 9508 196
Width: 1024
GlyphClass: 2
Flags: W
LayerCount: 2
Fore
SplineSet
0 192 m 1,0,-1
 0 448 l 1,1,-1
 384 448 l 1,2,-1
 384 832 l 1,3,-1
 640 832 l 1,4,-1
 640 448 l 1,5,-1
 640 192 l 1,6,-1
 640 -192 l 1,7,-1
 384 -192 l 1,8,-1
 384 192 l 1,9,-1
 0 192 l 1,0,-1
EndSplineSet
Validated: 1
EndChar

StartChar: SF060000
Encoding: 9516 9516 197
Width: 1024
GlyphClass: 2
Flags: W
LayerCount: 2
Fore
SplineSet
0 192 m 1,0,-1
 0 448 l 1,1,-1
 1024 448 l 1,2,-1
 1024 192 l 1,3,-1
 640 192 l 1,4,-1
 640 -192 l 1,5,-1
 384 -192 l 1,6,-1
 384 192 l 1,7,-1
 0 192 l 1,0,-1
EndSplineSet
Validated: 1
EndChar

StartChar: SF070000
Encoding: 9524 9524 198
Width: 1024
GlyphClass: 2
Flags: W
LayerCount: 2
Fore
SplineSet
0 192 m 1,0,-1
 0 448 l 1,1,-1
 384 448 l 1,2,-1
 384 832 l 1,3,-1
 640 832 l 1,4,-1
 640 448 l 1,5,-1
 1024 448 l 1,6,-1
 1024 192 l 1,7,-1
 0 192 l 1,0,-1
EndSplineSet
Validated: 1
EndChar

StartChar: SF050000
Encoding: 9532 9532 199
Width: 1024
GlyphClass: 2
Flags: W
LayerCount: 2
Fore
SplineSet
0 192 m 1,0,-1
 0 448 l 1,1,-1
 384 448 l 1,2,-1
 384 832 l 1,3,-1
 640 832 l 1,4,-1
 640 448 l 1,5,-1
 1024 448 l 1,6,-1
 1024 192 l 1,7,-1
 640 192 l 1,8,-1
 640 -192 l 1,9,-1
 384 -192 l 1,10,-1
 384 192 l 1,11,-1
 0 192 l 1,0,-1
EndSplineSet
Validated: 1
EndChar

StartChar: SF430000
Encoding: 9552 9552 200
Width: 1024
GlyphClass: 2
Flags: W
LayerCount: 2
Fore
SplineSet
0 -64 m 1,0,-1
 0 192 l 1,1,-1
 1024 192 l 1,2,-1
 1024 -64 l 1,3,-1
 0 -64 l 1,0,-1
0 448 m 1,4,-1
 0 704 l 1,5,-1
 1024 704 l 1,6,-1
 1024 448 l 1,7,-1
 0 448 l 1,4,-1
EndSplineSet
Validated: 1
EndChar

StartChar: SF240000
Encoding: 9553 9553 201
Width: 1024
GlyphClass: 2
Flags: W
LayerCount: 2
Fore
SplineSet
640 -192 m 1,0,-1
 640 832 l 1,1,-1
 896 832 l 1,2,-1
 896 -192 l 1,3,-1
 640 -192 l 1,0,-1
128 -192 m 1,4,-1
 128 832 l 1,5,-1
 384 832 l 1,6,-1
 384 -192 l 1,7,-1
 128 -192 l 1,4,-1
EndSplineSet
Validated: 1
EndChar

StartChar: SF510000
Encoding: 9554 9554 202
Width: 1024
GlyphClass: 2
Flags: W
LayerCount: 2
Fore
SplineSet
640 192 m 1,0,-1
 1024 192 l 1,1,-1
 1024 -64 l 1,2,-1
 640 -64 l 1,3,-1
 640 -192 l 1,4,-1
 384 -192 l 1,5,-1
 384 -64 l 1,6,-1
 384 192 l 1,7,-1
 384 448 l 1,8,-1
 384 704 l 1,9,-1
 1024 704 l 1,10,-1
 1024 448 l 1,11,-1
 640 448 l 1,12,-1
 640 192 l 1,0,-1
EndSplineSet
Validated: 1
EndChar

StartChar: SF520000
Encoding: 9555 9555 203
Width: 1024
GlyphClass: 2
Flags: W
LayerCount: 2
Fore
SplineSet
896 192 m 1,0,-1
 896 -192 l 1,1,-1
 640 -192 l 1,2,-1
 640 192 l 1,3,-1
 384 192 l 1,4,-1
 384 -192 l 1,5,-1
 128 -192 l 1,6,-1
 128 192 l 1,7,-1
 128 448 l 1,8,-1
 1024 448 l 1,9,-1
 1024 192 l 1,10,-1
 896 192 l 1,0,-1
EndSplineSet
Validated: 1
EndChar

StartChar: SF390000
Encoding: 9556 9556 204
Width: 1024
GlyphClass: 2
Flags: W
LayerCount: 2
Fore
SplineSet
384 448 m 1,0,-1
 384 -192 l 1,1,-1
 128 -192 l 1,2,-1
 128 448 l 1,3,-1
 128 704 l 1,4,-1
 1024 704 l 1,5,-1
 1024 448 l 1,6,-1
 384 448 l 1,0,-1
896 -64 m 1,7,-1
 896 -192 l 1,8,-1
 640 -192 l 1,9,-1
 640 -64 l 1,10,-1
 640 192 l 1,11,-1
 1024 192 l 1,12,-1
 1024 -64 l 1,13,-1
 896 -64 l 1,7,-1
EndSplineSet
Validated: 1
EndChar

StartChar: SF220000
Encoding: 9557 9557 205
Width: 1024
GlyphClass: 2
Flags: W
LayerCount: 2
Fore
SplineSet
0 -64 m 1,0,-1
 0 192 l 1,1,-1
 384 192 l 1,2,-1
 384 448 l 1,3,-1
 0 448 l 1,4,-1
 0 704 l 1,5,-1
 640 704 l 1,6,-1
 640 448 l 1,7,-1
 640 192 l 1,8,-1
 640 -64 l 1,9,-1
 640 -192 l 1,10,-1
 384 -192 l 1,11,-1
 384 -64 l 1,12,-1
 0 -64 l 1,0,-1
EndSplineSet
Validated: 1
EndChar

StartChar: SF210000
Encoding: 9558 9558 206
Width: 1024
GlyphClass: 2
Flags: W
LayerCount: 2
Fore
SplineSet
0 192 m 1,0,-1
 0 448 l 1,1,-1
 896 448 l 1,2,-1
 896 192 l 1,3,-1
 896 -192 l 1,4,-1
 640 -192 l 1,5,-1
 640 192 l 1,6,-1
 384 192 l 1,7,-1
 384 -192 l 1,8,-1
 128 -192 l 1,9,-1
 128 192 l 1,10,-1
 0 192 l 1,0,-1
EndSplineSet
Validated: 1
EndChar

StartChar: SF250000
Encoding: 9559 9559 207
Width: 1024
GlyphClass: 2
Flags: W
LayerCount: 2
Fore
SplineSet
0 448 m 1,0,-1
 0 704 l 1,1,-1
 896 704 l 1,2,-1
 896 448 l 1,3,-1
 896 -192 l 1,4,-1
 640 -192 l 1,5,-1
 640 448 l 1,6,-1
 0 448 l 1,0,-1
0 -64 m 1,7,-1
 0 192 l 1,8,-1
 384 192 l 1,9,-1
 384 -64 l 1,10,-1
 384 -192 l 1,11,-1
 128 -192 l 1,12,-1
 128 -64 l 1,13,-1
 0 -64 l 1,7,-1
EndSplineSet
Validated: 1
EndChar

StartChar: SF500000
Encoding: 9560 9560 208
Width: 1024
GlyphClass: 2
Flags: W
LayerCount: 2
Fore
SplineSet
640 192 m 1,0,-1
 1024 192 l 1,1,-1
 1024 -64 l 1,2,-1
 384 -64 l 1,3,-1
 384 192 l 1,4,-1
 384 448 l 1,5,-1
 384 704 l 1,6,-1
 384 832 l 1,7,-1
 640 832 l 1,8,-1
 640 704 l 1,9,-1
 1024 704 l 1,10,-1
 1024 448 l 1,11,-1
 640 448 l 1,12,-1
 640 192 l 1,0,-1
EndSplineSet
Validated: 1
EndChar

StartChar: SF490000
Encoding: 9561 9561 209
Width: 1024
GlyphClass: 2
Flags: W
LayerCount: 2
Fore
SplineSet
640 448 m 1,0,-1
 640 832 l 1,1,-1
 896 832 l 1,2,-1
 896 448 l 1,3,-1
 1024 448 l 1,4,-1
 1024 192 l 1,5,-1
 896 192 l 1,6,-1
 640 192 l 1,7,-1
 128 192 l 1,8,-1
 128 448 l 1,9,-1
 128 832 l 1,10,-1
 384 832 l 1,11,-1
 384 448 l 1,12,-1
 640 448 l 1,0,-1
EndSplineSet
Validated: 1
EndChar

StartChar: SF380000
Encoding: 9562 9562 210
Width: 1024
GlyphClass: 2
Flags: W
LayerCount: 2
Fore
SplineSet
640 448 m 1,0,-1
 640 832 l 1,1,-1
 896 832 l 1,2,-1
 896 704 l 1,3,-1
 1024 704 l 1,4,-1
 1024 448 l 1,5,-1
 896 448 l 1,6,-1
 640 448 l 1,0,-1
384 192 m 1,7,-1
 1024 192 l 1,8,-1
 1024 -64 l 1,9,-1
 128 -64 l 1,10,-1
 128 192 l 1,11,-1
 128 832 l 1,12,-1
 384 832 l 1,13,-1
 384 192 l 1,7,-1
EndSplineSet
Validated: 1
EndChar

StartChar: SF280000
Encoding: 9563 9563 211
Width: 1024
GlyphClass: 2
Flags: W
LayerCount: 2
Fore
SplineSet
0 -64 m 1,0,-1
 0 192 l 1,1,-1
 384 192 l 1,2,-1
 384 448 l 1,3,-1
 0 448 l 1,4,-1
 0 704 l 1,5,-1
 384 704 l 1,6,-1
 384 832 l 1,7,-1
 640 832 l 1,8,-1
 640 704 l 1,9,-1
 640 448 l 1,10,-1
 640 192 l 1,11,-1
 640 -64 l 1,12,-1
 0 -64 l 1,0,-1
EndSplineSet
Validated: 1
EndChar

StartChar: SF270000
Encoding: 9564 9564 212
Width: 1024
GlyphClass: 2
Flags: W
LayerCount: 2
Fore
SplineSet
0 192 m 1,0,-1
 0 448 l 1,1,-1
 128 448 l 1,2,-1
 128 832 l 1,3,-1
 384 832 l 1,4,-1
 384 448 l 1,5,-1
 640 448 l 1,6,-1
 640 832 l 1,7,-1
 896 832 l 1,8,-1
 896 448 l 1,9,-1
 896 192 l 1,10,-1
 0 192 l 1,0,-1
EndSplineSet
Validated: 1
EndChar

StartChar: SF260000
Encoding: 9565 9565 213
Width: 1024
GlyphClass: 2
Flags: W
LayerCount: 2
Fore
SplineSet
0 -64 m 1,0,-1
 0 192 l 1,1,-1
 640 192 l 1,2,-1
 640 832 l 1,3,-1
 896 832 l 1,4,-1
 896 192 l 1,5,-1
 896 -64 l 1,6,-1
 0 -64 l 1,0,-1
0 448 m 1,7,-1
 0 704 l 1,8,-1
 128 704 l 1,9,-1
 128 832 l 1,10,-1
 384 832 l 1,11,-1
 384 704 l 1,12,-1
 384 448 l 1,13,-1
 0 448 l 1,7,-1
EndSplineSet
Validated: 1
EndChar

StartChar: SF360000
Encoding: 9566 9566 214
Width: 1024
GlyphClass: 2
Flags: W
LayerCount: 2
Fore
SplineSet
640 192 m 1,0,-1
 1024 192 l 1,1,-1
 1024 -64 l 1,2,-1
 640 -64 l 1,3,-1
 640 -192 l 1,4,-1
 384 -192 l 1,5,-1
 384 -64 l 1,6,-1
 384 192 l 1,7,-1
 384 448 l 1,8,-1
 384 704 l 1,9,-1
 384 832 l 1,10,-1
 640 832 l 1,11,-1
 640 704 l 1,12,-1
 1024 704 l 1,13,-1
 1024 448 l 1,14,-1
 640 448 l 1,15,-1
 640 192 l 1,0,-1
EndSplineSet
Validated: 1
EndChar

StartChar: SF370000
Encoding: 9567 9567 215
Width: 1024
GlyphClass: 2
Flags: W
LayerCount: 2
Fore
SplineSet
640 -192 m 1,0,-1
 640 832 l 1,1,-1
 896 832 l 1,2,-1
 896 448 l 1,3,-1
 1024 448 l 1,4,-1
 1024 192 l 1,5,-1
 896 192 l 1,6,-1
 896 -192 l 1,7,-1
 640 -192 l 1,0,-1
128 -192 m 1,8,-1
 128 832 l 1,9,-1
 384 832 l 1,10,-1
 384 -192 l 1,11,-1
 128 -192 l 1,8,-1
EndSplineSet
Validated: 1
EndChar

StartChar: SF420000
Encoding: 9568 9568 216
Width: 1024
GlyphClass: 2
Flags: W
LayerCount: 2
Fore
SplineSet
128 -192 m 1,0,-1
 128 832 l 1,1,-1
 384 832 l 1,2,-1
 384 -192 l 1,3,-1
 128 -192 l 1,0,-1
640 448 m 1,4,-1
 640 832 l 1,5,-1
 896 832 l 1,6,-1
 896 704 l 1,7,-1
 1024 704 l 1,8,-1
 1024 448 l 1,9,-1
 896 448 l 1,10,-1
 640 448 l 1,4,-1
896 -64 m 1,11,-1
 896 -192 l 1,12,-1
 640 -192 l 1,13,-1
 640 -64 l 1,14,-1
 640 192 l 1,15,-1
 1024 192 l 1,16,-1
 1024 -64 l 1,17,-1
 896 -64 l 1,11,-1
EndSplineSet
Validated: 1
EndChar

StartChar: SF190000
Encoding: 9569 9569 217
Width: 1024
GlyphClass: 2
Flags: W
LayerCount: 2
Fore
SplineSet
0 -64 m 1,0,-1
 0 192 l 1,1,-1
 384 192 l 1,2,-1
 384 448 l 1,3,-1
 0 448 l 1,4,-1
 0 704 l 1,5,-1
 384 704 l 1,6,-1
 384 832 l 1,7,-1
 640 832 l 1,8,-1
 640 704 l 1,9,-1
 640 448 l 1,10,-1
 640 192 l 1,11,-1
 640 -64 l 1,12,-1
 640 -192 l 1,13,-1
 384 -192 l 1,14,-1
 384 -64 l 1,15,-1
 0 -64 l 1,0,-1
EndSplineSet
Validated: 1
EndChar

StartChar: SF200000
Encoding: 9570 9570 218
Width: 1024
GlyphClass: 2
Flags: W
LayerCount: 2
Fore
SplineSet
640 -192 m 1,0,-1
 640 832 l 1,1,-1
 896 832 l 1,2,-1
 896 -192 l 1,3,-1
 640 -192 l 1,0,-1
0 192 m 1,4,-1
 0 448 l 1,5,-1
 128 448 l 1,6,-1
 128 832 l 1,7,-1
 384 832 l 1,8,-1
 384 448 l 1,9,-1
 384 192 l 1,10,-1
 384 -192 l 1,11,-1
 128 -192 l 1,12,-1
 128 192 l 1,13,-1
 0 192 l 1,4,-1
EndSplineSet
Validated: 1
EndChar

StartChar: SF230000
Encoding: 9571 9571 219
Width: 1024
GlyphClass: 2
Flags: W
LayerCount: 2
Fore
SplineSet
640 -192 m 1,0,-1
 640 832 l 1,1,-1
 896 832 l 1,2,-1
 896 -192 l 1,3,-1
 640 -192 l 1,0,-1
0 -64 m 1,4,-1
 0 192 l 1,5,-1
 384 192 l 1,6,-1
 384 -64 l 1,7,-1
 384 -192 l 1,8,-1
 128 -192 l 1,9,-1
 128 -64 l 1,10,-1
 0 -64 l 1,4,-1
0 448 m 1,11,-1
 0 704 l 1,12,-1
 128 704 l 1,13,-1
 128 832 l 1,14,-1
 384 832 l 1,15,-1
 384 704 l 1,16,-1
 384 448 l 1,17,-1
 0 448 l 1,11,-1
EndSplineSet
Validated: 1
EndChar

StartChar: SF470000
Encoding: 9572 9572 220
Width: 1024
GlyphClass: 2
Flags: W
LayerCount: 2
Fore
SplineSet
0 -64 m 1,0,-1
 0 192 l 1,1,-1
 1024 192 l 1,2,-1
 1024 -64 l 1,3,-1
 640 -64 l 1,4,-1
 640 -192 l 1,5,-1
 384 -192 l 1,6,-1
 384 -64 l 1,7,-1
 0 -64 l 1,0,-1
0 448 m 1,8,-1
 0 704 l 1,9,-1
 1024 704 l 1,10,-1
 1024 448 l 1,11,-1
 0 448 l 1,8,-1
EndSplineSet
Validated: 1
EndChar

StartChar: SF480000
Encoding: 9573 9573 221
Width: 1024
GlyphClass: 2
Flags: W
LayerCount: 2
Fore
SplineSet
0 192 m 1,0,-1
 0 448 l 1,1,-1
 1024 448 l 1,2,-1
 1024 192 l 1,3,-1
 896 192 l 1,4,-1
 896 -192 l 1,5,-1
 640 -192 l 1,6,-1
 640 192 l 1,7,-1
 384 192 l 1,8,-1
 384 -192 l 1,9,-1
 128 -192 l 1,10,-1
 128 192 l 1,11,-1
 0 192 l 1,0,-1
EndSplineSet
Validated: 1
EndChar

StartChar: SF410000
Encoding: 9574 9574 222
Width: 1024
GlyphClass: 2
Flags: W
LayerCount: 2
Fore
SplineSet
0 448 m 1,0,-1
 0 704 l 1,1,-1
 1024 704 l 1,2,-1
 1024 448 l 1,3,-1
 0 448 l 1,0,-1
0 -64 m 1,4,-1
 0 192 l 1,5,-1
 384 192 l 1,6,-1
 384 -64 l 1,7,-1
 384 -192 l 1,8,-1
 128 -192 l 1,9,-1
 128 -64 l 1,10,-1
 0 -64 l 1,4,-1
896 -64 m 1,11,-1
 896 -192 l 1,12,-1
 640 -192 l 1,13,-1
 640 -64 l 1,14,-1
 640 192 l 1,15,-1
 1024 192 l 1,16,-1
 1024 -64 l 1,17,-1
 896 -64 l 1,11,-1
EndSplineSet
Validated: 1
EndChar

StartChar: SF450000
Encoding: 9575 9575 223
Width: 1024
GlyphClass: 2
Flags: W
LayerCount: 2
Fore
SplineSet
0 -64 m 1,0,-1
 0 192 l 1,1,-1
 1024 192 l 1,2,-1
 1024 -64 l 1,3,-1
 0 -64 l 1,0,-1
0 448 m 1,4,-1
 0 704 l 1,5,-1
 384 704 l 1,6,-1
 384 832 l 1,7,-1
 640 832 l 1,8,-1
 640 704 l 1,9,-1
 1024 704 l 1,10,-1
 1024 448 l 1,11,-1
 0 448 l 1,4,-1
EndSplineSet
Validated: 1
EndChar

StartChar: SF460000
Encoding: 9576 9576 224
Width: 1024
GlyphClass: 2
Flags: W
LayerCount: 2
Fore
SplineSet
0 192 m 1,0,-1
 0 448 l 1,1,-1
 128 448 l 1,2,-1
 128 832 l 1,3,-1
 384 832 l 1,4,-1
 384 448 l 1,5,-1
 640 448 l 1,6,-1
 640 832 l 1,7,-1
 896 832 l 1,8,-1
 896 448 l 1,9,-1
 1024 448 l 1,10,-1
 1024 192 l 1,11,-1
 0 192 l 1,0,-1
EndSplineSet
Validated: 1
EndChar

StartChar: SF400000
Encoding: 9577 9577 225
Width: 1024
GlyphClass: 2
Flags: W
LayerCount: 2
Fore
SplineSet
0 -64 m 1,0,-1
 0 192 l 1,1,-1
 1024 192 l 1,2,-1
 1024 -64 l 1,3,-1
 0 -64 l 1,0,-1
640 448 m 1,4,-1
 640 832 l 1,5,-1
 896 832 l 1,6,-1
 896 704 l 1,7,-1
 1024 704 l 1,8,-1
 1024 448 l 1,9,-1
 896 448 l 1,10,-1
 640 448 l 1,4,-1
0 448 m 1,11,-1
 0 704 l 1,12,-1
 128 704 l 1,13,-1
 128 832 l 1,14,-1
 384 832 l 1,15,-1
 384 704 l 1,16,-1
 384 448 l 1,17,-1
 0 448 l 1,11,-1
EndSplineSet
Validated: 1
EndChar

StartChar: SF540000
Encoding: 9578 9578 226
Width: 1024
GlyphClass: 2
Flags: W
LayerCount: 2
Fore
SplineSet
0 -64 m 1,0,-1
 0 192 l 1,1,-1
 1024 192 l 1,2,-1
 1024 -64 l 1,3,-1
 640 -64 l 1,4,-1
 640 -192 l 1,5,-1
 384 -192 l 1,6,-1
 384 -64 l 1,7,-1
 0 -64 l 1,0,-1
0 448 m 1,8,-1
 0 704 l 1,9,-1
 384 704 l 1,10,-1
 384 832 l 1,11,-1
 640 832 l 1,12,-1
 640 704 l 1,13,-1
 1024 704 l 1,14,-1
 1024 448 l 1,15,-1
 0 448 l 1,8,-1
EndSplineSet
Validated: 1
EndChar

StartChar: SF530000
Encoding: 9579 9579 227
Width: 1024
GlyphClass: 2
Flags: W
LayerCount: 2
Fore
SplineSet
640 -192 m 1,0,-1
 640 832 l 1,1,-1
 896 832 l 1,2,-1
 896 448 l 1,3,-1
 1024 448 l 1,4,-1
 1024 192 l 1,5,-1
 896 192 l 1,6,-1
 896 -192 l 1,7,-1
 640 -192 l 1,0,-1
0 192 m 1,8,-1
 0 448 l 1,9,-1
 128 448 l 1,10,-1
 128 832 l 1,11,-1
 384 832 l 1,12,-1
 384 448 l 1,13,-1
 384 192 l 1,14,-1
 384 -192 l 1,15,-1
 128 -192 l 1,16,-1
 128 192 l 1,17,-1
 0 192 l 1,8,-1
EndSplineSet
Validated: 1
EndChar

StartChar: SF440000
Encoding: 9580 9580 228
Width: 1024
GlyphClass: 2
Flags: W
LayerCount: 2
Fore
SplineSet
0 -64 m 1,0,-1
 0 192 l 1,1,-1
 384 192 l 1,2,-1
 384 -64 l 1,3,-1
 384 -192 l 1,4,-1
 128 -192 l 1,5,-1
 128 -64 l 1,6,-1
 0 -64 l 1,0,-1
640 448 m 1,7,-1
 640 832 l 1,8,-1
 896 832 l 1,9,-1
 896 704 l 1,10,-1
 1024 704 l 1,11,-1
 1024 448 l 1,12,-1
 896 448 l 1,13,-1
 640 448 l 1,7,-1
0 448 m 1,14,-1
 0 704 l 1,15,-1
 128 704 l 1,16,-1
 128 832 l 1,17,-1
 384 832 l 1,18,-1
 384 704 l 1,19,-1
 384 448 l 1,20,-1
 0 448 l 1,14,-1
896 -64 m 1,21,-1
 896 -192 l 1,22,-1
 640 -192 l 1,23,-1
 640 -64 l 1,24,-1
 640 192 l 1,25,-1
 1024 192 l 1,26,-1
 1024 -64 l 1,27,-1
 896 -64 l 1,21,-1
EndSplineSet
Validated: 1
EndChar

StartChar: upblock
Encoding: 9600 9600 229
Width: 1024
GlyphClass: 2
Flags: W
LayerCount: 2
Fore
SplineSet
0 320 m 1,0,-1
 0 832 l 1,1,-1
 1024 832 l 1,2,-1
 1024 320 l 1,3,-1
 0 320 l 1,0,-1
EndSplineSet
Validated: 1
EndChar

StartChar: dnblock
Encoding: 9604 9604 230
Width: 1024
GlyphClass: 2
Flags: W
LayerCount: 2
Fore
SplineSet
0 -192 m 1,0,-1
 0 320 l 1,1,-1
 1024 320 l 1,2,-1
 1024 -192 l 1,3,-1
 0 -192 l 1,0,-1
EndSplineSet
Validated: 1
EndChar

StartChar: block
Encoding: 9608 9608 231
Width: 1024
GlyphClass: 2
Flags: W
LayerCount: 2
Fore
SplineSet
0 -192 m 1,0,-1
 0 832 l 1,1,-1
 1024 832 l 1,2,-1
 1024 -192 l 1,3,-1
 0 -192 l 1,0,-1
EndSplineSet
Validated: 1
EndChar

StartChar: lfblock
Encoding: 9612 9612 232
Width: 1024
GlyphClass: 2
Flags: W
LayerCount: 2
Fore
SplineSet
0 -192 m 1,0,-1
 0 832 l 1,1,-1
 512 832 l 1,2,-1
 512 -192 l 1,3,-1
 0 -192 l 1,0,-1
EndSplineSet
Validated: 1
EndChar

StartChar: rtblock
Encoding: 9616 9616 233
Width: 1024
GlyphClass: 2
Flags: W
LayerCount: 2
Fore
SplineSet
512 -192 m 1,0,-1
 512 832 l 1,1,-1
 1024 832 l 1,2,-1
 1024 -192 l 1,3,-1
 512 -192 l 1,0,-1
EndSplineSet
Validated: 1
EndChar

StartChar: ltshade
Encoding: 9617 9617 234
Width: 1024
GlyphClass: 2
Flags: W
LayerCount: 2
Fore
SplineSet
768 -192 m 1,0,-1
 768 -128 l 1,1,-1
 832 -128 l 1,2,-1
 832 -192 l 1,3,-1
 768 -192 l 1,0,-1
512 -192 m 1,4,-1
 512 -128 l 1,5,-1
 576 -128 l 1,6,-1
 576 -192 l 1,7,-1
 512 -192 l 1,4,-1
256 -192 m 1,8,-1
 256 -128 l 1,9,-1
 320 -128 l 1,10,-1
 320 -192 l 1,11,-1
 256 -192 l 1,8,-1
0 -192 m 1,12,-1
 0 -128 l 1,13,-1
 64 -128 l 1,14,-1
 64 -192 l 1,15,-1
 0 -192 l 1,12,-1
832 -64 m 5,16,-1
 832 0 l 1,17,-1
 896 0 l 5,18,-1
 896 -64 l 5,19,-1
 960 -64 l 1,20,-1
 960 -128 l 1,21,-1
 896 -128 l 1,22,-1
 896 -64 l 5,23,-1
 832 -64 l 5,16,-1
576 -64 m 1,24,-1
 576 0 l 1,25,-1
 640 0 l 1,26,-1
 640 -64 l 1,27,-1
 704 -64 l 1,28,-1
 704 -128 l 1,29,-1
 640 -128 l 1,30,-1
 640 -64 l 1,31,-1
 576 -64 l 1,24,-1
320 -64 m 1,32,-1
 320 0 l 1,33,-1
 384 0 l 1,34,-1
 384 -64 l 1,35,-1
 448 -64 l 1,36,-1
 448 -128 l 1,37,-1
 384 -128 l 1,38,-1
 384 -64 l 1,39,-1
 320 -64 l 1,32,-1
64 -64 m 1,40,-1
 64 0 l 1,41,-1
 128 0 l 1,42,-1
 128 -64 l 1,43,-1
 192 -64 l 1,44,-1
 192 -128 l 1,45,-1
 128 -128 l 1,46,-1
 128 -64 l 1,47,-1
 64 -64 l 1,40,-1
960 0 m 1,48,-1
 960 64 l 1,49,-1
 1024 64 l 1,50,-1
 1024 0 l 1,51,-1
 960 0 l 1,48,-1
704 0 m 1,52,-1
 704 64 l 1,53,-1
 768 64 l 1,54,-1
 768 0 l 1,55,-1
 704 0 l 1,52,-1
448 0 m 1,56,-1
 448 64 l 1,57,-1
 512 64 l 1,58,-1
 512 0 l 1,59,-1
 448 0 l 1,56,-1
192 0 m 1,60,-1
 192 64 l 1,61,-1
 256 64 l 1,62,-1
 256 0 l 1,63,-1
 192 0 l 1,60,-1
0 64 m 1,64,-1
 0 128 l 1,65,-1
 64 128 l 1,66,-1
 64 64 l 1,67,-1
 0 64 l 1,64,-1
832 192 m 1,68,-1
 832 256 l 1,69,-1
 896 256 l 1,70,-1
 896 192 l 1,71,-1
 960 192 l 1,72,-1
 960 128 l 1,73,-1
 896 128 l 1,74,-1
 896 192 l 1,75,-1
 832 192 l 1,68,-1
576 192 m 1,76,-1
 576 256 l 1,77,-1
 640 256 l 1,78,-1
 640 192 l 1,79,-1
 704 192 l 1,80,-1
 704 128 l 1,81,-1
 640 128 l 1,82,-1
 640 192 l 1,83,-1
 576 192 l 1,76,-1
320 192 m 1,84,-1
 320 256 l 1,85,-1
 384 256 l 1,86,-1
 384 192 l 1,87,-1
 448 192 l 1,88,-1
 448 128 l 1,89,-1
 384 128 l 1,90,-1
 384 192 l 1,91,-1
 320 192 l 1,84,-1
64 192 m 1,92,-1
 64 256 l 1,93,-1
 128 256 l 1,94,-1
 128 192 l 1,95,-1
 192 192 l 1,96,-1
 192 128 l 1,97,-1
 128 128 l 1,98,-1
 128 192 l 1,99,-1
 64 192 l 1,92,-1
960 256 m 1,100,-1
 960 320 l 1,101,-1
 1024 320 l 1,102,-1
 1024 256 l 1,103,-1
 960 256 l 1,100,-1
704 256 m 1,104,-1
 704 320 l 1,105,-1
 768 320 l 1,106,-1
 768 256 l 1,107,-1
 704 256 l 1,104,-1
448 256 m 1,108,-1
 448 320 l 1,109,-1
 512 320 l 1,110,-1
 512 256 l 1,111,-1
 448 256 l 1,108,-1
192 256 m 1,112,-1
 192 320 l 1,113,-1
 256 320 l 1,114,-1
 256 256 l 1,115,-1
 192 256 l 1,112,-1
0 320 m 1,116,-1
 0 384 l 1,117,-1
 64 384 l 1,118,-1
 64 320 l 1,119,-1
 0 320 l 1,116,-1
832 448 m 1,120,-1
 832 512 l 1,121,-1
 896 512 l 1,122,-1
 896 448 l 1,123,-1
 960 448 l 1,124,-1
 960 384 l 1,125,-1
 896 384 l 1,126,-1
 896 448 l 1,127,-1
 832 448 l 1,120,-1
576 448 m 1,128,-1
 576 512 l 1,129,-1
 640 512 l 1,130,-1
 640 448 l 1,131,-1
 704 448 l 1,132,-1
 704 384 l 1,133,-1
 640 384 l 1,134,-1
 640 448 l 1,135,-1
 576 448 l 1,128,-1
320 448 m 1,136,-1
 320 512 l 1,137,-1
 384 512 l 1,138,-1
 384 448 l 1,139,-1
 448 448 l 1,140,-1
 448 384 l 1,141,-1
 384 384 l 1,142,-1
 384 448 l 1,143,-1
 320 448 l 1,136,-1
64 448 m 1,144,-1
 64 512 l 1,145,-1
 128 512 l 1,146,-1
 128 448 l 1,147,-1
 192 448 l 1,148,-1
 192 384 l 1,149,-1
 128 384 l 1,150,-1
 128 448 l 1,151,-1
 64 448 l 1,144,-1
960 512 m 1,152,-1
 960 576 l 1,153,-1
 1024 576 l 1,154,-1
 1024 512 l 1,155,-1
 960 512 l 1,152,-1
704 512 m 1,156,-1
 704 576 l 1,157,-1
 768 576 l 1,158,-1
 768 512 l 1,159,-1
 704 512 l 1,156,-1
448 512 m 1,160,-1
 448 576 l 1,161,-1
 512 576 l 1,162,-1
 512 512 l 1,163,-1
 448 512 l 1,160,-1
192 512 m 1,164,-1
 192 576 l 1,165,-1
 256 576 l 1,166,-1
 256 512 l 1,167,-1
 192 512 l 1,164,-1
0 576 m 1,168,-1
 0 640 l 1,169,-1
 64 640 l 1,170,-1
 64 576 l 1,171,-1
 0 576 l 1,168,-1
832 704 m 1,172,-1
 832 768 l 1,173,-1
 896 768 l 1,174,-1
 896 704 l 1,175,-1
 960 704 l 1,176,-1
 960 640 l 1,177,-1
 896 640 l 1,178,-1
 896 704 l 1,179,-1
 832 704 l 1,172,-1
576 704 m 1,180,-1
 576 768 l 1,181,-1
 640 768 l 1,182,-1
 640 704 l 1,183,-1
 704 704 l 1,184,-1
 704 640 l 1,185,-1
 640 640 l 1,186,-1
 640 704 l 1,187,-1
 576 704 l 1,180,-1
320 704 m 1,188,-1
 320 768 l 1,189,-1
 384 768 l 1,190,-1
 384 704 l 1,191,-1
 448 704 l 1,192,-1
 448 640 l 1,193,-1
 384 640 l 1,194,-1
 384 704 l 1,195,-1
 320 704 l 1,188,-1
64 704 m 1,196,-1
 64 768 l 1,197,-1
 128 768 l 1,198,-1
 128 704 l 1,199,-1
 192 704 l 1,200,-1
 192 640 l 1,201,-1
 128 640 l 1,202,-1
 128 704 l 1,203,-1
 64 704 l 1,196,-1
960 768 m 1,204,-1
 960 832 l 1,205,-1
 1024 832 l 1,206,-1
 1024 768 l 1,207,-1
 960 768 l 1,204,-1
704 768 m 1,208,-1
 704 832 l 1,209,-1
 768 832 l 1,210,-1
 768 768 l 1,211,-1
 704 768 l 1,208,-1
448 768 m 1,212,-1
 448 832 l 1,213,-1
 512 832 l 1,214,-1
 512 768 l 1,215,-1
 448 768 l 1,212,-1
192 768 m 1,216,-1
 192 832 l 1,217,-1
 256 832 l 1,218,-1
 256 768 l 1,219,-1
 192 768 l 1,216,-1
768 64 m 1,220,-1
 768 128 l 1,221,-1
 832 128 l 1,222,-1
 832 64 l 1,223,-1
 768 64 l 1,220,-1
512 64 m 1,224,-1
 512 128 l 1,225,-1
 576 128 l 1,226,-1
 576 64 l 1,227,-1
 512 64 l 1,224,-1
256 64 m 1,228,-1
 256 128 l 1,229,-1
 320 128 l 1,230,-1
 320 64 l 1,231,-1
 256 64 l 1,228,-1
768 320 m 1,232,-1
 768 384 l 1,233,-1
 832 384 l 1,234,-1
 832 320 l 1,235,-1
 768 320 l 1,232,-1
512 320 m 1,236,-1
 512 384 l 1,237,-1
 576 384 l 1,238,-1
 576 320 l 1,239,-1
 512 320 l 1,236,-1
256 320 m 1,240,-1
 256 384 l 1,241,-1
 320 384 l 1,242,-1
 320 320 l 1,243,-1
 256 320 l 1,240,-1
768 576 m 1,244,-1
 768 640 l 1,245,-1
 832 640 l 1,246,-1
 832 576 l 1,247,-1
 768 576 l 1,244,-1
512 576 m 1,248,-1
 512 640 l 1,249,-1
 576 640 l 1,250,-1
 576 576 l 1,251,-1
 512 576 l 1,248,-1
256 576 m 1,252,-1
 256 640 l 1,253,-1
 320 640 l 1,254,-1
 320 576 l 1,255,-1
 256 576 l 1,252,-1
EndSplineSet
Validated: 5
EndChar

StartChar: shade
Encoding: 9618 9618 235
Width: 1024
GlyphClass: 2
Flags: W
LayerCount: 2
Fore
SplineSet
768 -192 m 1,0,-1
 768 -128 l 5,1,-1
 832 -128 l 5,2,-1
 832 -64 l 1,3,-1
 960 -64 l 1,4,-1
 960 -128 l 1,5,-1
 960 -192 l 1,6,-1
 896 -192 l 1,7,-1
 896 -128 l 1,8,-1
 832 -128 l 5,9,-1
 832 -192 l 5,10,-1
 768 -192 l 1,0,-1
512 -192 m 1,11,-1
 512 -128 l 1,12,-1
 576 -128 l 1,13,-1
 576 -64 l 1,14,-1
 704 -64 l 1,15,-1
 704 -128 l 1,16,-1
 704 -192 l 1,17,-1
 640 -192 l 1,18,-1
 640 -128 l 1,19,-1
 576 -128 l 1,20,-1
 576 -192 l 1,21,-1
 512 -192 l 1,11,-1
256 -192 m 1,22,-1
 256 -128 l 1,23,-1
 320 -128 l 1,24,-1
 320 -64 l 1,25,-1
 448 -64 l 1,26,-1
 448 -128 l 1,27,-1
 448 -192 l 1,28,-1
 384 -192 l 1,29,-1
 384 -128 l 1,30,-1
 320 -128 l 1,31,-1
 320 -192 l 1,32,-1
 256 -192 l 1,22,-1
0 -192 m 1,33,-1
 0 -128 l 1,34,-1
 64 -128 l 1,35,-1
 64 -64 l 1,36,-1
 192 -64 l 1,37,-1
 192 -128 l 1,38,-1
 192 -192 l 1,39,-1
 128 -192 l 1,40,-1
 128 -128 l 1,41,-1
 64 -128 l 1,42,-1
 64 -192 l 1,43,-1
 0 -192 l 1,33,-1
0 -64 m 1,44,-1
 0 0 l 1,45,-1
 64 0 l 1,46,-1
 64 -64 l 1,47,-1
 0 -64 l 1,44,-1
0 64 m 1,48,-1
 0 128 l 1,49,-1
 64 128 l 1,50,-1
 64 192 l 1,51,-1
 192 192 l 1,52,-1
 192 128 l 1,53,-1
 192 64 l 1,54,-1
 256 64 l 1,55,-1
 256 0 l 1,56,-1
 320 0 l 1,57,-1
 320 -64 l 1,58,-1
 256 -64 l 1,59,-1
 192 -64 l 1,60,-1
 192 64 l 1,61,-1
 128 64 l 1,62,-1
 128 0 l 1,63,-1
 64 0 l 1,64,-1
 64 64 l 1,65,-1
 128 64 l 1,66,-1
 128 128 l 1,67,-1
 64 128 l 1,68,-1
 64 64 l 1,69,-1
 0 64 l 1,48,-1
0 192 m 1,70,-1
 0 256 l 1,71,-1
 64 256 l 1,72,-1
 64 192 l 1,73,-1
 0 192 l 1,70,-1
0 320 m 1,74,-1
 0 384 l 1,75,-1
 64 384 l 1,76,-1
 64 448 l 1,77,-1
 192 448 l 1,78,-1
 192 384 l 1,79,-1
 192 320 l 1,80,-1
 256 320 l 1,81,-1
 256 256 l 1,82,-1
 320 256 l 1,83,-1
 320 192 l 1,84,-1
 448 192 l 1,85,-1
 448 128 l 1,86,-1
 448 64 l 1,87,-1
 512 64 l 1,88,-1
 512 0 l 1,89,-1
 576 0 l 1,90,-1
 576 -64 l 1,91,-1
 512 -64 l 1,92,-1
 448 -64 l 1,93,-1
 448 64 l 1,94,-1
 384 64 l 1,95,-1
 384 0 l 1,96,-1
 320 0 l 1,97,-1
 320 64 l 1,98,-1
 384 64 l 1,99,-1
 384 128 l 1,100,-1
 320 128 l 1,101,-1
 320 192 l 1,102,-1
 256 192 l 1,103,-1
 192 192 l 1,104,-1
 192 320 l 1,105,-1
 128 320 l 1,106,-1
 128 256 l 1,107,-1
 64 256 l 1,108,-1
 64 320 l 1,109,-1
 128 320 l 1,110,-1
 128 384 l 1,111,-1
 64 384 l 1,112,-1
 64 320 l 1,113,-1
 0 320 l 1,74,-1
0 448 m 1,114,-1
 0 512 l 1,115,-1
 64 512 l 1,116,-1
 64 448 l 1,117,-1
 0 448 l 1,114,-1
0 576 m 1,118,-1
 0 640 l 1,119,-1
 64 640 l 1,120,-1
 64 704 l 1,121,-1
 192 704 l 1,122,-1
 192 640 l 1,123,-1
 192 576 l 1,124,-1
 256 576 l 1,125,-1
 256 512 l 1,126,-1
 320 512 l 1,127,-1
 320 448 l 1,128,-1
 448 448 l 1,129,-1
 448 384 l 1,130,-1
 448 320 l 1,131,-1
 512 320 l 1,132,-1
 512 256 l 1,133,-1
 576 256 l 1,134,-1
 576 192 l 1,135,-1
 704 192 l 1,136,-1
 704 128 l 1,137,-1
 704 64 l 1,138,-1
 768 64 l 1,139,-1
 768 0 l 1,140,-1
 832 0 l 1,141,-1
 832 -64 l 1,142,-1
 768 -64 l 1,143,-1
 704 -64 l 1,144,-1
 704 64 l 1,145,-1
 640 64 l 1,146,-1
 640 0 l 1,147,-1
 576 0 l 1,148,-1
 576 64 l 1,149,-1
 640 64 l 1,150,-1
 640 128 l 1,151,-1
 576 128 l 1,152,-1
 576 192 l 1,153,-1
 512 192 l 1,154,-1
 448 192 l 1,155,-1
 448 320 l 1,156,-1
 384 320 l 1,157,-1
 384 256 l 1,158,-1
 320 256 l 1,159,-1
 320 320 l 1,160,-1
 384 320 l 1,161,-1
 384 384 l 1,162,-1
 320 384 l 1,163,-1
 320 448 l 1,164,-1
 256 448 l 1,165,-1
 192 448 l 1,166,-1
 192 576 l 1,167,-1
 128 576 l 1,168,-1
 128 512 l 1,169,-1
 64 512 l 1,170,-1
 64 576 l 1,171,-1
 128 576 l 1,172,-1
 128 640 l 1,173,-1
 64 640 l 1,174,-1
 64 576 l 1,175,-1
 0 576 l 1,118,-1
0 704 m 1,176,-1
 0 768 l 1,177,-1
 64 768 l 1,178,-1
 64 704 l 1,179,-1
 0 704 l 1,176,-1
960 -64 m 1,180,-1
 960 64 l 1,181,-1
 1024 64 l 1,182,-1
 1024 -64 l 1,183,-1
 960 -64 l 1,180,-1
960 192 m 1,184,-1
 960 128 l 1,185,-1
 960 64 l 1,186,-1
 896 64 l 1,187,-1
 896 0 l 1,188,-1
 832 0 l 1,189,-1
 832 64 l 1,190,-1
 896 64 l 1,191,-1
 896 128 l 1,192,-1
 832 128 l 1,193,-1
 832 192 l 1,194,-1
 960 192 l 1,184,-1
960 192 m 1,195,-1
 960 320 l 1,196,-1
 1024 320 l 1,197,-1
 1024 192 l 1,198,-1
 960 192 l 1,195,-1
704 192 m 1,199,-1
 704 320 l 1,200,-1
 768 320 l 1,201,-1
 768 256 l 1,202,-1
 832 256 l 1,203,-1
 832 192 l 1,204,-1
 768 192 l 1,205,-1
 704 192 l 1,199,-1
960 448 m 1,206,-1
 960 384 l 1,207,-1
 960 320 l 1,208,-1
 896 320 l 1,209,-1
 896 256 l 1,210,-1
 832 256 l 1,211,-1
 832 320 l 1,212,-1
 896 320 l 1,213,-1
 896 384 l 1,214,-1
 832 384 l 1,215,-1
 832 448 l 1,216,-1
 960 448 l 1,206,-1
960 448 m 1,217,-1
 960 576 l 1,218,-1
 1024 576 l 1,219,-1
 1024 448 l 1,220,-1
 960 448 l 1,217,-1
704 448 m 1,221,-1
 704 384 l 1,222,-1
 704 320 l 1,223,-1
 640 320 l 1,224,-1
 640 256 l 1,225,-1
 576 256 l 1,226,-1
 576 320 l 1,227,-1
 640 320 l 1,228,-1
 640 384 l 1,229,-1
 576 384 l 1,230,-1
 576 448 l 1,231,-1
 704 448 l 1,221,-1
704 448 m 1,232,-1
 704 576 l 1,233,-1
 768 576 l 1,234,-1
 768 512 l 1,235,-1
 832 512 l 1,236,-1
 832 448 l 1,237,-1
 768 448 l 1,238,-1
 704 448 l 1,232,-1
448 448 m 1,239,-1
 448 576 l 1,240,-1
 512 576 l 1,241,-1
 512 512 l 1,242,-1
 576 512 l 1,243,-1
 576 448 l 1,244,-1
 512 448 l 1,245,-1
 448 448 l 1,239,-1
960 704 m 1,246,-1
 960 640 l 1,247,-1
 960 576 l 1,248,-1
 896 576 l 1,249,-1
 896 512 l 1,250,-1
 832 512 l 1,251,-1
 832 576 l 1,252,-1
 896 576 l 1,253,-1
 896 640 l 1,254,-1
 832 640 l 1,255,-1
 832 704 l 1,256,-1
 960 704 l 1,246,-1
960 704 m 1,257,-1
 960 832 l 1,258,-1
 1024 832 l 1,259,-1
 1024 704 l 1,260,-1
 960 704 l 1,257,-1
704 704 m 1,261,-1
 704 640 l 1,262,-1
 704 576 l 1,263,-1
 640 576 l 1,264,-1
 640 512 l 1,265,-1
 576 512 l 1,266,-1
 576 576 l 1,267,-1
 640 576 l 1,268,-1
 640 640 l 1,269,-1
 576 640 l 1,270,-1
 576 704 l 1,271,-1
 704 704 l 1,261,-1
704 704 m 1,272,-1
 704 832 l 1,273,-1
 768 832 l 1,274,-1
 768 768 l 1,275,-1
 832 768 l 1,276,-1
 832 704 l 1,277,-1
 768 704 l 1,278,-1
 704 704 l 1,272,-1
448 704 m 1,279,-1
 448 640 l 1,280,-1
 448 576 l 1,281,-1
 384 576 l 1,282,-1
 384 512 l 1,283,-1
 320 512 l 1,284,-1
 320 576 l 1,285,-1
 384 576 l 1,286,-1
 384 640 l 1,287,-1
 320 640 l 1,288,-1
 320 704 l 1,289,-1
 448 704 l 1,279,-1
448 704 m 1,290,-1
 448 832 l 1,291,-1
 512 832 l 1,292,-1
 512 768 l 1,293,-1
 576 768 l 1,294,-1
 576 704 l 1,295,-1
 512 704 l 1,296,-1
 448 704 l 1,290,-1
192 704 m 1,297,-1
 192 832 l 1,298,-1
 256 832 l 1,299,-1
 256 768 l 1,300,-1
 320 768 l 1,301,-1
 320 704 l 1,302,-1
 256 704 l 1,303,-1
 192 704 l 1,297,-1
832 64 m 1,304,-1
 768 64 l 1,305,-1
 768 128 l 1,306,-1
 832 128 l 1,307,-1
 832 64 l 1,304,-1
576 64 m 1,308,-1
 512 64 l 1,309,-1
 512 128 l 1,310,-1
 576 128 l 1,311,-1
 576 64 l 1,308,-1
320 64 m 1,312,-1
 256 64 l 1,313,-1
 256 128 l 1,314,-1
 320 128 l 1,315,-1
 320 64 l 1,312,-1
832 320 m 1,316,-1
 768 320 l 1,317,-1
 768 384 l 1,318,-1
 832 384 l 1,319,-1
 832 320 l 1,316,-1
576 320 m 1,320,-1
 512 320 l 1,321,-1
 512 384 l 1,322,-1
 576 384 l 1,323,-1
 576 320 l 1,320,-1
320 320 m 1,324,-1
 256 320 l 1,325,-1
 256 384 l 1,326,-1
 320 384 l 1,327,-1
 320 320 l 1,324,-1
832 576 m 1,328,-1
 768 576 l 1,329,-1
 768 640 l 1,330,-1
 832 640 l 1,331,-1
 832 576 l 1,328,-1
576 576 m 1,332,-1
 512 576 l 1,333,-1
 512 640 l 1,334,-1
 576 640 l 1,335,-1
 576 576 l 1,332,-1
320 576 m 1,336,-1
 256 576 l 1,337,-1
 256 640 l 1,338,-1
 320 640 l 1,339,-1
 320 576 l 1,336,-1
832 768 m 1,340,-1
 832 832 l 1,341,-1
 896 832 l 1,342,-1
 896 768 l 1,343,-1
 832 768 l 1,340,-1
576 768 m 1,344,-1
 576 832 l 1,345,-1
 640 832 l 1,346,-1
 640 768 l 1,347,-1
 576 768 l 1,344,-1
320 768 m 1,348,-1
 320 832 l 1,349,-1
 384 832 l 1,350,-1
 384 768 l 1,351,-1
 320 768 l 1,348,-1
64 768 m 1,352,-1
 64 832 l 1,353,-1
 128 832 l 1,354,-1
 128 768 l 1,355,-1
 64 768 l 1,352,-1
EndSplineSet
Validated: 5
EndChar

StartChar: dkshade
Encoding: 9619 9619 236
Width: 1024
GlyphClass: 2
Flags: W
LayerCount: 2
Fore
SplineSet
832 -128 m 1,0,-1
 832 -192 l 1,1,-1
 704 -192 l 1,2,-1
 640 -192 l 1,3,-1
 640 -128 l 1,4,-1
 576 -128 l 1,5,-1
 576 -192 l 1,6,-1
 448 -192 l 1,7,-1
 384 -192 l 1,8,-1
 384 -128 l 1,9,-1
 320 -128 l 1,10,-1
 320 -192 l 1,11,-1
 192 -192 l 1,12,-1
 128 -192 l 1,13,-1
 128 -128 l 1,14,-1
 64 -128 l 1,15,-1
 64 -192 l 1,16,-1
 0 -192 l 1,17,-1
 0 -128 l 1,18,-1
 0 0 l 1,19,-1
 64 0 l 1,20,-1
 64 64 l 1,21,-1
 128 64 l 1,22,-1
 128 128 l 1,23,-1
 64 128 l 1,24,-1
 64 64 l 1,25,-1
 0 64 l 1,26,-1
 0 128 l 1,27,-1
 0 256 l 1,28,-1
 64 256 l 1,29,-1
 64 320 l 1,30,-1
 128 320 l 1,31,-1
 128 384 l 1,32,-1
 64 384 l 1,33,-1
 64 320 l 1,34,-1
 0 320 l 1,35,-1
 0 384 l 1,36,-1
 0 512 l 1,37,-1
 64 512 l 1,38,-1
 64 576 l 1,39,-1
 128 576 l 1,40,-1
 128 640 l 1,41,-1
 64 640 l 1,42,-1
 64 576 l 1,43,-1
 0 576 l 1,44,-1
 0 640 l 1,45,-1
 0 768 l 1,46,-1
 64 768 l 1,47,-1
 64 832 l 1,48,-1
 192 832 l 1,49,-1
 256 832 l 1,50,-1
 256 768 l 1,51,-1
 320 768 l 1,52,-1
 320 832 l 1,53,-1
 448 832 l 1,54,-1
 512 832 l 1,55,-1
 512 768 l 1,56,-1
 576 768 l 1,57,-1
 576 832 l 1,58,-1
 704 832 l 1,59,-1
 768 832 l 1,60,-1
 768 768 l 1,61,-1
 832 768 l 1,62,-1
 832 832 l 1,63,-1
 960 832 l 1,64,-1
 1024 832 l 1,65,-1
 1024 704 l 1,66,-1
 960 704 l 1,67,-1
 960 640 l 1,68,-1
 1024 640 l 1,69,-1
 1024 448 l 1,70,-1
 960 448 l 1,71,-1
 960 384 l 1,72,-1
 1024 384 l 1,73,-1
 1024 192 l 1,74,-1
 960 192 l 1,75,-1
 960 128 l 1,76,-1
 1024 128 l 1,77,-1
 1024 -64 l 1,78,-1
 960 -64 l 1,79,-1
 960 -128 l 1,80,-1
 1024 -128 l 1,81,-1
 1024 -192 l 1,82,-1
 960 -192 l 1,83,-1
 896 -192 l 1,84,-1
 896 -128 l 1,85,-1
 832 -128 l 1,0,-1
768 -128 m 1,86,-1
 768 -64 l 1,87,-1
 704 -64 l 1,88,-1
 704 -128 l 1,89,-1
 768 -128 l 1,86,-1
512 -128 m 1,90,-1
 512 -64 l 1,91,-1
 448 -64 l 1,92,-1
 448 -128 l 1,93,-1
 512 -128 l 1,90,-1
256 -128 m 1,94,-1
 256 -64 l 1,95,-1
 192 -64 l 1,96,-1
 192 -128 l 1,97,-1
 256 -128 l 1,94,-1
896 -64 m 1,98,-1
 960 -64 l 1,99,-1
 960 0 l 1,100,-1
 896 0 l 1,101,-1
 896 -64 l 1,98,-1
640 -64 m 1,102,-1
 704 -64 l 1,103,-1
 704 0 l 1,104,-1
 640 0 l 1,105,-1
 640 -64 l 1,102,-1
384 -64 m 1,106,-1
 448 -64 l 1,107,-1
 448 0 l 1,108,-1
 384 0 l 1,109,-1
 384 -64 l 1,106,-1
128 -64 m 1,110,-1
 192 -64 l 1,111,-1
 192 0 l 1,112,-1
 128 0 l 1,113,-1
 128 -64 l 1,110,-1
832 0 m 1,114,-1
 832 64 l 1,115,-1
 896 64 l 1,116,-1
 896 128 l 1,117,-1
 832 128 l 1,118,-1
 832 64 l 1,119,-1
 768 64 l 1,120,-1
 768 0 l 1,121,-1
 832 0 l 1,114,-1
576 0 m 1,122,-1
 576 64 l 1,123,-1
 640 64 l 1,124,-1
 640 128 l 1,125,-1
 576 128 l 1,126,-1
 576 64 l 1,127,-1
 512 64 l 1,128,-1
 512 0 l 1,129,-1
 576 0 l 1,122,-1
320 0 m 1,130,-1
 320 64 l 1,131,-1
 384 64 l 1,132,-1
 384 128 l 1,133,-1
 320 128 l 1,134,-1
 320 64 l 1,135,-1
 256 64 l 1,136,-1
 256 0 l 1,137,-1
 320 0 l 1,130,-1
768 128 m 1,138,-1
 768 192 l 1,139,-1
 704 192 l 1,140,-1
 704 128 l 1,141,-1
 768 128 l 1,138,-1
512 128 m 1,142,-1
 512 192 l 1,143,-1
 448 192 l 1,144,-1
 448 128 l 1,145,-1
 512 128 l 1,142,-1
256 128 m 1,146,-1
 256 192 l 1,147,-1
 192 192 l 1,148,-1
 192 128 l 1,149,-1
 256 128 l 1,146,-1
896 192 m 1,150,-1
 960 192 l 1,151,-1
 960 256 l 1,152,-1
 896 256 l 1,153,-1
 896 192 l 1,150,-1
640 192 m 1,154,-1
 704 192 l 1,155,-1
 704 256 l 1,156,-1
 640 256 l 1,157,-1
 640 192 l 1,154,-1
384 192 m 1,158,-1
 448 192 l 1,159,-1
 448 256 l 1,160,-1
 384 256 l 1,161,-1
 384 192 l 1,158,-1
128 192 m 1,162,-1
 192 192 l 1,163,-1
 192 256 l 1,164,-1
 128 256 l 1,165,-1
 128 192 l 1,162,-1
832 256 m 1,166,-1
 832 320 l 1,167,-1
 896 320 l 1,168,-1
 896 384 l 1,169,-1
 832 384 l 1,170,-1
 832 320 l 1,171,-1
 768 320 l 1,172,-1
 768 256 l 1,173,-1
 832 256 l 1,166,-1
576 256 m 1,174,-1
 576 320 l 1,175,-1
 640 320 l 1,176,-1
 640 384 l 1,177,-1
 576 384 l 1,178,-1
 576 320 l 1,179,-1
 512 320 l 1,180,-1
 512 256 l 1,181,-1
 576 256 l 1,174,-1
320 256 m 1,182,-1
 320 320 l 1,183,-1
 384 320 l 1,184,-1
 384 384 l 1,185,-1
 320 384 l 1,186,-1
 320 320 l 1,187,-1
 256 320 l 1,188,-1
 256 256 l 1,189,-1
 320 256 l 1,182,-1
768 384 m 1,190,-1
 768 448 l 1,191,-1
 704 448 l 1,192,-1
 704 384 l 1,193,-1
 768 384 l 1,190,-1
512 384 m 1,194,-1
 512 448 l 1,195,-1
 448 448 l 1,196,-1
 448 384 l 1,197,-1
 512 384 l 1,194,-1
256 384 m 1,198,-1
 256 448 l 1,199,-1
 192 448 l 1,200,-1
 192 384 l 1,201,-1
 256 384 l 1,198,-1
896 448 m 1,202,-1
 960 448 l 1,203,-1
 960 512 l 1,204,-1
 896 512 l 1,205,-1
 896 448 l 1,202,-1
640 448 m 1,206,-1
 704 448 l 1,207,-1
 704 512 l 1,208,-1
 640 512 l 1,209,-1
 640 448 l 1,206,-1
384 448 m 1,210,-1
 448 448 l 1,211,-1
 448 512 l 1,212,-1
 384 512 l 1,213,-1
 384 448 l 1,210,-1
128 448 m 1,214,-1
 192 448 l 1,215,-1
 192 512 l 1,216,-1
 128 512 l 1,217,-1
 128 448 l 1,214,-1
832 512 m 1,218,-1
 832 576 l 1,219,-1
 896 576 l 1,220,-1
 896 640 l 1,221,-1
 832 640 l 1,222,-1
 832 576 l 1,223,-1
 768 576 l 1,224,-1
 768 512 l 1,225,-1
 832 512 l 1,218,-1
576 512 m 1,226,-1
 576 576 l 1,227,-1
 640 576 l 1,228,-1
 640 640 l 1,229,-1
 576 640 l 1,230,-1
 576 576 l 1,231,-1
 512 576 l 1,232,-1
 512 512 l 1,233,-1
 576 512 l 1,226,-1
320 512 m 1,234,-1
 320 576 l 1,235,-1
 384 576 l 1,236,-1
 384 640 l 1,237,-1
 320 640 l 1,238,-1
 320 576 l 1,239,-1
 256 576 l 1,240,-1
 256 512 l 1,241,-1
 320 512 l 1,234,-1
768 640 m 1,242,-1
 768 704 l 1,243,-1
 704 704 l 1,244,-1
 704 640 l 1,245,-1
 768 640 l 1,242,-1
256 640 m 1,246,-1
 256 704 l 1,247,-1
 192 704 l 1,248,-1
 192 640 l 1,249,-1
 256 640 l 1,246,-1
896 704 m 1,250,-1
 960 704 l 1,251,-1
 960 768 l 1,252,-1
 896 768 l 1,253,-1
 896 704 l 1,250,-1
640 704 m 1,254,-1
 704 704 l 1,255,-1
 704 768 l 1,256,-1
 640 768 l 1,257,-1
 640 704 l 1,254,-1
384 704 m 17,258,-1
 384 768 l 1,259,-1
 448 768 l 1,260,-1
 448 640 l 1,261,-1
 512 640 l 1,262,-1
 512 704 l 9,263,-1
 384 704 l 17,258,-1
128 704 m 1,264,-1
 192 704 l 1,265,-1
 192 768 l 1,266,-1
 128 768 l 1,267,-1
 128 704 l 1,264,-1
EndSplineSet
Validated: 5
EndChar

StartChar: filledbox
Encoding: 9632 9632 237
Width: 1024
GlyphClass: 2
Flags: W
LayerCount: 2
Fore
SplineSet
256 64 m 1,0,-1
 256 576 l 1,1,-1
 768 576 l 1,2,-1
 768 64 l 1,3,-1
 256 64 l 1,0,-1
EndSplineSet
Validated: 1
EndChar

StartChar: filledrect
Encoding: 9644 9644 238
Width: 1024
GlyphClass: 2
Flags: W
LayerCount: 2
Fore
SplineSet
64 0 m 1,0,-1
 64 384 l 1,1,-1
 960 384 l 1,2,-1
 960 0 l 1,3,-1
 64 0 l 1,0,-1
EndSplineSet
Validated: 1
EndChar

StartChar: triagup
Encoding: 9650 9650 239
Width: 1024
GlyphClass: 2
Flags: W
LayerCount: 2
Fore
SplineSet
832 384 m 1,0,-1
 896 384 l 1,1,-1
 896 192 l 1,2,-1
 896 -64 l 1,3,-1
 832 -64 l 1,4,-1
 768 -64 l 1,5,-1
 768 0 l 1,6,-1
 704 0 l 1,7,-1
 704 64 l 1,8,-1
 640 64 l 1,9,-1
 640 128 l 1,10,-1
 576 128 l 1,11,-1
 576 192 l 1,12,-1
 448 192 l 1,13,-1
 448 128 l 1,14,-1
 384 128 l 1,15,-1
 384 64 l 1,16,-1
 320 64 l 1,17,-1
 320 0 l 1,18,-1
 256 0 l 1,19,-1
 256 -64 l 1,20,-1
 128 -64 l 1,21,-1
 128 0 l 1,22,-1
 128 64 l 1,23,-1
 128 128 l 1,24,-1
 128 192 l 1,25,-1
 128 384 l 1,26,-1
 192 384 l 1,27,-1
 192 448 l 1,28,-1
 256 448 l 1,29,-1
 256 512 l 1,30,-1
 320 512 l 1,31,-1
 320 576 l 1,32,-1
 384 576 l 1,33,-1
 384 640 l 1,34,-1
 448 640 l 1,35,-1
 448 704 l 1,36,-1
 576 704 l 1,37,-1
 576 640 l 1,38,-1
 640 640 l 1,39,-1
 640 576 l 1,40,-1
 704 576 l 1,41,-1
 704 512 l 1,42,-1
 768 512 l 1,43,-1
 768 448 l 1,44,-1
 832 448 l 1,45,-1
 832 384 l 1,0,-1
EndSplineSet
Validated: 1
EndChar

StartChar: triagrt
Encoding: 9658 9658 240
Width: 1024
GlyphClass: 2
Flags: W
LayerCount: 2
Fore
SplineSet
128 -64 m 1,0,-1
 128 64 l 1,1,-1
 192 64 l 1,2,-1
 192 128 l 1,3,-1
 256 128 l 1,4,-1
 256 192 l 1,5,-1
 320 192 l 1,6,-1
 320 256 l 1,7,-1
 384 256 l 1,8,-1
 384 384 l 1,9,-1
 320 384 l 1,10,-1
 320 448 l 1,11,-1
 256 448 l 1,12,-1
 256 512 l 1,13,-1
 192 512 l 1,14,-1
 192 576 l 1,15,-1
 128 576 l 1,16,-1
 128 704 l 1,17,-1
 576 704 l 1,18,-1
 576 640 l 1,19,-1
 640 640 l 1,20,-1
 640 576 l 1,21,-1
 704 576 l 1,22,-1
 704 512 l 1,23,-1
 768 512 l 1,24,-1
 768 448 l 1,25,-1
 832 448 l 1,26,-1
 832 384 l 1,27,-1
 896 384 l 1,28,-1
 896 256 l 1,29,-1
 832 256 l 1,30,-1
 832 192 l 1,31,-1
 768 192 l 1,32,-1
 768 128 l 1,33,-1
 704 128 l 1,34,-1
 704 64 l 1,35,-1
 640 64 l 1,36,-1
 640 0 l 1,37,-1
 576 0 l 1,38,-1
 576 -64 l 1,39,-1
 128 -64 l 1,0,-1
EndSplineSet
Validated: 1
EndChar

StartChar: triagdn
Encoding: 9660 9660 241
Width: 1024
GlyphClass: 2
Flags: W
LayerCount: 2
Fore
SplineSet
128 256 m 1,0,-1
 128 704 l 1,1,-1
 256 704 l 1,2,-1
 256 640 l 1,3,-1
 320 640 l 1,4,-1
 320 576 l 1,5,-1
 384 576 l 1,6,-1
 384 512 l 1,7,-1
 448 512 l 1,8,-1
 448 448 l 1,9,-1
 576 448 l 1,10,-1
 576 512 l 1,11,-1
 640 512 l 1,12,-1
 640 576 l 1,13,-1
 704 576 l 1,14,-1
 704 640 l 1,15,-1
 768 640 l 1,16,-1
 768 704 l 1,17,-1
 896 704 l 1,18,-1
 896 640 l 1,19,-1
 896 256 l 1,20,-1
 832 256 l 1,21,-1
 832 192 l 1,22,-1
 768 192 l 1,23,-1
 768 128 l 1,24,-1
 704 128 l 1,25,-1
 704 64 l 1,26,-1
 640 64 l 1,27,-1
 640 0 l 1,28,-1
 576 0 l 1,29,-1
 576 -64 l 1,30,-1
 448 -64 l 1,31,-1
 448 0 l 1,32,-1
 384 0 l 1,33,-1
 384 64 l 1,34,-1
 320 64 l 1,35,-1
 320 128 l 1,36,-1
 256 128 l 1,37,-1
 256 192 l 1,38,-1
 192 192 l 1,39,-1
 192 256 l 1,40,-1
 128 256 l 1,0,-1
EndSplineSet
Validated: 1
EndChar

StartChar: triaglf
Encoding: 9668 9668 242
Width: 1024
GlyphClass: 2
Flags: W
LayerCount: 2
Fore
SplineSet
128 256 m 1,0,-1
 128 384 l 1,1,-1
 192 384 l 1,2,-1
 192 448 l 1,3,-1
 256 448 l 1,4,-1
 256 512 l 1,5,-1
 320 512 l 1,6,-1
 320 576 l 1,7,-1
 384 576 l 1,8,-1
 384 640 l 1,9,-1
 448 640 l 1,10,-1
 448 704 l 1,11,-1
 832 704 l 1,12,-1
 896 704 l 1,13,-1
 896 576 l 1,14,-1
 832 576 l 1,15,-1
 832 512 l 1,16,-1
 768 512 l 1,17,-1
 768 448 l 1,18,-1
 704 448 l 1,19,-1
 704 384 l 1,20,-1
 640 384 l 1,21,-1
 640 256 l 1,22,-1
 704 256 l 1,23,-1
 704 192 l 1,24,-1
 768 192 l 1,25,-1
 768 128 l 1,26,-1
 832 128 l 1,27,-1
 832 64 l 1,28,-1
 896 64 l 1,29,-1
 896 -64 l 1,30,-1
 832 -64 l 1,31,-1
 448 -64 l 1,32,-1
 448 0 l 1,33,-1
 384 0 l 1,34,-1
 384 64 l 1,35,-1
 320 64 l 1,36,-1
 320 128 l 1,37,-1
 256 128 l 1,38,-1
 256 192 l 1,39,-1
 192 192 l 1,40,-1
 192 256 l 1,41,-1
 128 256 l 1,0,-1
EndSplineSet
Validated: 1
EndChar

StartChar: circle
Encoding: 9675 9675 243
Width: 1024
GlyphClass: 2
Flags: W
LayerCount: 2
Fore
SplineSet
768 64 m 1,0,-1
 768 0 l 1,1,-1
 256 0 l 1,2,-1
 256 64 l 1,3,-1
 192 64 l 1,4,-1
 192 192 l 1,5,-1
 192 448 l 1,6,-1
 192 576 l 1,7,-1
 256 576 l 1,8,-1
 256 640 l 1,9,-1
 768 640 l 1,10,-1
 768 576 l 1,11,-1
 832 576 l 1,12,-1
 832 448 l 1,13,-1
 832 192 l 1,14,-1
 832 64 l 1,15,-1
 768 64 l 1,0,-1
640 448 m 1,16,-1
 384 448 l 1,17,-1
 384 192 l 1,18,-1
 640 192 l 1,19,-1
 640 448 l 1,16,-1
EndSplineSet
Validated: 1
EndChar

StartChar: invbullet
Encoding: 9688 9688 244
Width: 1024
GlyphClass: 2
Flags: W
LayerCount: 2
Fore
SplineSet
1024 576 m 1,0,-1
 1024 -192 l 1,1,-1
 960 -192 l 1,2,-1
 0 -192 l 1,3,-1
 0 0 l 1,4,-1
 0 128 l 1,5,-1
 0 512 l 1,6,-1
 0 576 l 1,7,-1
 0 832 l 1,8,-1
 1024 832 l 1,9,-1
 1024 576 l 1,0,-1
320 64 m 1,10,-1
 704 64 l 1,11,-1
 704 128 l 1,12,-1
 768 128 l 1,13,-1
 768 512 l 1,14,-1
 704 512 l 1,15,-1
 704 576 l 1,16,-1
 320 576 l 1,17,-1
 320 512 l 1,18,-1
 256 512 l 1,19,-1
 256 128 l 1,20,-1
 320 128 l 1,21,-1
 320 64 l 1,10,-1
EndSplineSet
Validated: 1
EndChar

StartChar: invcircle
Encoding: 9689 9689 245
Width: 1024
GlyphClass: 2
Flags: W
LayerCount: 2
Fore
SplineSet
384 192 m 1,0,-1
 384 448 l 1,1,-1
 640 448 l 1,2,-1
 640 192 l 1,3,-1
 384 192 l 1,0,-1
1024 -64 m 1,4,-1
 1024 -192 l 1,5,-1
 0 -192 l 1,6,-1
 0 -64 l 1,7,-1
 0 64 l 1,8,-1
 0 576 l 1,9,-1
 0 640 l 1,10,-1
 0 832 l 1,11,-1
 1024 832 l 1,12,-1
 1024 640 l 1,13,-1
 1024 576 l 1,14,-1
 1024 64 l 1,15,-1
 1024 -64 l 1,4,-1
832 64 m 1,16,-1
 832 576 l 1,17,-1
 768 576 l 1,18,-1
 768 640 l 1,19,-1
 256 640 l 1,20,-1
 256 576 l 1,21,-1
 192 576 l 1,22,-1
 192 64 l 1,23,-1
 256 64 l 1,24,-1
 256 0 l 1,25,-1
 768 0 l 1,26,-1
 768 64 l 1,27,-1
 832 64 l 1,16,-1
EndSplineSet
Validated: 1
EndChar

StartChar: smileface
Encoding: 9786 9786 246
Width: 1024
GlyphClass: 2
Flags: W
LayerCount: 2
Fore
SplineSet
320 128 m 1,0,-1
 320 256 l 1,1,-1
 704 256 l 1,2,-1
 704 128 l 1,3,-1
 640 128 l 1,4,-1
 640 64 l 1,5,-1
 384 64 l 1,6,-1
 384 128 l 1,7,-1
 320 128 l 1,0,-1
704 384 m 1,8,-1
 704 576 l 1,9,-1
 832 576 l 1,10,-1
 832 384 l 1,11,-1
 704 384 l 1,8,-1
192 384 m 1,12,-1
 192 576 l 1,13,-1
 320 576 l 1,14,-1
 320 384 l 1,15,-1
 192 384 l 1,12,-1
896 -64 m 1,16,-1
 896 -128 l 1,17,-1
 128 -128 l 1,18,-1
 128 -64 l 1,19,-1
 64 -64 l 1,20,-1
 64 0 l 1,21,-1
 64 640 l 1,22,-1
 64 704 l 1,23,-1
 128 704 l 1,24,-1
 128 768 l 1,25,-1
 896 768 l 1,26,-1
 896 704 l 1,27,-1
 960 704 l 1,28,-1
 960 640 l 1,29,-1
 960 0 l 1,30,-1
 960 -64 l 1,31,-1
 896 -64 l 1,16,-1
896 0 m 1,32,-1
 896 640 l 1,33,-1
 832 640 l 1,34,-1
 832 704 l 1,35,-1
 192 704 l 1,36,-1
 192 640 l 1,37,-1
 128 640 l 1,38,-1
 128 0 l 1,39,-1
 192 0 l 1,40,-1
 192 -64 l 1,41,-1
 832 -64 l 1,42,-1
 832 0 l 1,43,-1
 896 0 l 1,32,-1
EndSplineSet
Validated: 1
EndChar

StartChar: invsmileface
Encoding: 9787 9787 247
Width: 1024
GlyphClass: 2
Flags: W
LayerCount: 2
Fore
SplineSet
832 576 m 1,0,-1
 704 576 l 1,1,-1
 704 384 l 1,2,-1
 832 384 l 1,3,-1
 832 576 l 1,0,-1
128 -64 m 1,4,-1
 64 -64 l 1,5,-1
 64 0 l 1,6,-1
 64 128 l 1,7,-1
 64 256 l 1,8,-1
 64 320 l 1,9,-1
 64 576 l 1,10,-1
 64 704 l 1,11,-1
 128 704 l 1,12,-1
 128 768 l 1,13,-1
 896 768 l 1,14,-1
 896 704 l 1,15,-1
 960 704 l 1,16,-1
 960 128 l 1,17,-1
 960 0 l 1,18,-1
 960 -64 l 1,19,-1
 896 -64 l 1,20,-1
 896 -128 l 1,21,-1
 128 -128 l 1,22,-1
 128 -64 l 1,4,-1
320 128 m 1,23,-1
 384 128 l 1,24,-1
 384 64 l 1,25,-1
 640 64 l 1,26,-1
 640 128 l 1,27,-1
 704 128 l 1,28,-1
 704 256 l 1,29,-1
 576 256 l 1,30,-1
 448 256 l 1,31,-1
 320 256 l 1,32,-1
 320 128 l 1,23,-1
320 576 m 1,33,-1
 192 576 l 1,34,-1
 192 384 l 1,35,-1
 320 384 l 1,36,-1
 320 576 l 1,33,-1
EndSplineSet
Validated: 1
EndChar

StartChar: sun
Encoding: 9788 9788 248
Width: 1024
GlyphClass: 2
Flags: W
LayerCount: 2
Fore
SplineSet
64 256 m 1,0,-1
 64 384 l 1,1,-1
 256 384 l 1,2,-1
 256 448 l 1,3,-1
 256 512 l 1,4,-1
 192 512 l 1,5,-1
 192 576 l 1,6,-1
 128 576 l 1,7,-1
 128 704 l 1,8,-1
 256 704 l 1,9,-1
 256 640 l 1,10,-1
 320 640 l 1,11,-1
 320 576 l 1,12,-1
 448 576 l 1,13,-1
 448 768 l 1,14,-1
 576 768 l 1,15,-1
 576 576 l 1,16,-1
 704 576 l 1,17,-1
 704 640 l 1,18,-1
 768 640 l 1,19,-1
 768 704 l 1,20,-1
 896 704 l 1,21,-1
 896 640 l 1,22,-1
 896 576 l 1,23,-1
 832 576 l 1,24,-1
 832 512 l 1,25,-1
 768 512 l 1,26,-1
 768 448 l 1,27,-1
 768 384 l 1,28,-1
 896 384 l 1,29,-1
 960 384 l 1,30,-1
 960 256 l 1,31,-1
 896 256 l 1,32,-1
 768 256 l 1,33,-1
 768 128 l 1,34,-1
 832 128 l 1,35,-1
 832 64 l 1,36,-1
 896 64 l 1,37,-1
 896 -64 l 1,38,-1
 832 -64 l 1,39,-1
 768 -64 l 1,40,-1
 768 0 l 1,41,-1
 704 0 l 1,42,-1
 704 64 l 1,43,-1
 576 64 l 1,44,-1
 576 -128 l 1,45,-1
 448 -128 l 1,46,-1
 448 64 l 1,47,-1
 320 64 l 1,48,-1
 320 0 l 1,49,-1
 256 0 l 1,50,-1
 256 -64 l 1,51,-1
 128 -64 l 1,52,-1
 128 0 l 1,53,-1
 128 64 l 1,54,-1
 192 64 l 1,55,-1
 192 128 l 1,56,-1
 256 128 l 1,57,-1
 256 256 l 1,58,-1
 64 256 l 1,0,-1
576 192 m 1,59,-1
 576 256 l 1,60,-1
 640 256 l 1,61,-1
 640 384 l 1,62,-1
 576 384 l 1,63,-1
 576 448 l 1,64,-1
 448 448 l 1,65,-1
 448 384 l 1,66,-1
 384 384 l 1,67,-1
 384 256 l 1,68,-1
 448 256 l 1,69,-1
 448 192 l 1,70,-1
 576 192 l 1,59,-1
EndSplineSet
Validated: 1
EndChar

StartChar: female
Encoding: 9792 9792 249
Width: 1024
GlyphClass: 2
Flags: W
LayerCount: 2
Fore
SplineSet
320 0 m 1,0,-1
 320 128 l 1,1,-1
 448 128 l 1,2,-1
 448 256 l 1,3,-1
 320 256 l 1,4,-1
 320 320 l 1,5,-1
 256 320 l 1,6,-1
 256 384 l 1,7,-1
 256 640 l 1,8,-1
 256 704 l 1,9,-1
 320 704 l 1,10,-1
 320 768 l 1,11,-1
 704 768 l 1,12,-1
 704 704 l 1,13,-1
 768 704 l 1,14,-1
 768 640 l 1,15,-1
 768 384 l 1,16,-1
 768 320 l 1,17,-1
 704 320 l 1,18,-1
 704 256 l 1,19,-1
 576 256 l 1,20,-1
 576 128 l 1,21,-1
 704 128 l 1,22,-1
 704 0 l 1,23,-1
 576 0 l 1,24,-1
 576 -128 l 1,25,-1
 448 -128 l 1,26,-1
 448 0 l 1,27,-1
 320 0 l 1,0,-1
640 384 m 1,28,-1
 640 640 l 1,29,-1
 384 640 l 1,30,-1
 384 384 l 1,31,-1
 640 384 l 1,28,-1
EndSplineSet
Validated: 1
EndChar

StartChar: male
Encoding: 9794 9794 250
Width: 1024
GlyphClass: 2
Flags: W
LayerCount: 2
Fore
SplineSet
512 576 m 1,0,-1
 512 704 l 1,1,-1
 896 704 l 1,2,-1
 896 576 l 1,3,-1
 896 512 l 1,4,-1
 896 320 l 1,5,-1
 768 320 l 1,6,-1
 768 448 l 1,7,-1
 704 448 l 1,8,-1
 704 384 l 1,9,-1
 704 128 l 1,10,-1
 704 64 l 1,11,-1
 640 64 l 1,12,-1
 640 0 l 1,13,-1
 256 0 l 1,14,-1
 256 64 l 1,15,-1
 192 64 l 1,16,-1
 192 128 l 1,17,-1
 192 384 l 1,18,-1
 192 448 l 1,19,-1
 256 448 l 1,20,-1
 256 512 l 1,21,-1
 640 512 l 1,22,-1
 640 576 l 1,23,-1
 512 576 l 1,0,-1
576 128 m 1,24,-1
 576 384 l 1,25,-1
 320 384 l 1,26,-1
 320 128 l 1,27,-1
 576 128 l 1,24,-1
EndSplineSet
Validated: 1
EndChar

StartChar: spade
Encoding: 9824 9824 251
Width: 1024
GlyphClass: 2
Flags: W
LayerCount: 2
Fore
SplineSet
64 192 m 1,0,-1
 64 384 l 1,1,-1
 128 384 l 1,2,-1
 128 448 l 1,3,-1
 192 448 l 1,4,-1
 192 512 l 1,5,-1
 256 512 l 1,6,-1
 256 576 l 1,7,-1
 320 576 l 1,8,-1
 320 640 l 1,9,-1
 384 640 l 1,10,-1
 384 704 l 1,11,-1
 448 704 l 1,12,-1
 448 768 l 1,13,-1
 576 768 l 1,14,-1
 576 704 l 1,15,-1
 640 704 l 1,16,-1
 640 640 l 1,17,-1
 704 640 l 1,18,-1
 704 576 l 1,19,-1
 768 576 l 1,20,-1
 768 512 l 1,21,-1
 832 512 l 1,22,-1
 832 448 l 1,23,-1
 896 448 l 1,24,-1
 896 384 l 1,25,-1
 960 384 l 1,26,-1
 960 192 l 1,27,-1
 896 192 l 1,28,-1
 896 128 l 1,29,-1
 832 128 l 1,30,-1
 832 64 l 1,31,-1
 640 64 l 1,32,-1
 640 0 l 1,33,-1
 704 0 l 1,34,-1
 704 -128 l 1,35,-1
 320 -128 l 1,36,-1
 320 0 l 1,37,-1
 384 0 l 1,38,-1
 384 64 l 1,39,-1
 448 64 l 1,40,-1
 448 128 l 1,41,-1
 384 128 l 1,42,-1
 384 64 l 1,43,-1
 192 64 l 1,44,-1
 192 128 l 1,45,-1
 128 128 l 1,46,-1
 128 192 l 1,47,-1
 64 192 l 1,0,-1
576 192 m 1,48,-1
 448 192 l 1,49,-1
 448 128 l 1,50,-1
 576 128 l 1,51,-1
 576 192 l 1,48,-1
640 128 m 1,52,-1
 576 128 l 1,53,-1
 576 64 l 1,54,-1
 640 64 l 1,55,-1
 640 128 l 1,52,-1
EndSplineSet
Validated: 5
EndChar

StartChar: club
Encoding: 9827 9827 252
Width: 1024
GlyphClass: 2
Flags: W
LayerCount: 2
Fore
SplineSet
64 192 m 1,0,-1
 64 448 l 1,1,-1
 128 448 l 1,2,-1
 128 512 l 1,3,-1
 256 512 l 1,4,-1
 320 512 l 1,5,-1
 320 704 l 1,6,-1
 384 704 l 1,7,-1
 384 768 l 1,8,-1
 640 768 l 1,9,-1
 640 704 l 1,10,-1
 704 704 l 1,11,-1
 704 512 l 1,12,-1
 640 512 l 1,13,-1
 640 448 l 1,14,-1
 704 448 l 1,15,-1
 704 512 l 1,16,-1
 832 512 l 1,17,-1
 896 512 l 1,18,-1
 896 448 l 1,19,-1
 960 448 l 1,20,-1
 960 192 l 1,21,-1
 896 192 l 1,22,-1
 896 128 l 1,23,-1
 832 128 l 1,24,-1
 704 128 l 1,25,-1
 704 -64 l 1,26,-1
 640 -64 l 1,27,-1
 640 -128 l 1,28,-1
 384 -128 l 1,29,-1
 384 -64 l 1,30,-1
 320 -64 l 1,31,-1
 320 128 l 1,32,-1
 384 128 l 1,33,-1
 384 192 l 1,34,-1
 640 192 l 1,35,-1
 640 448 l 1,36,-1
 384 448 l 1,37,-1
 384 192 l 1,38,-1
 320 192 l 1,39,-1
 320 128 l 1,40,-1
 256 128 l 1,41,-1
 128 128 l 1,42,-1
 128 192 l 1,43,-1
 64 192 l 1,0,-1
640 128 m 1,44,-1
 704 128 l 1,45,-1
 704 192 l 1,46,-1
 640 192 l 1,47,-1
 640 128 l 1,44,-1
320 512 m 1,48,-1
 320 448 l 1,49,-1
 384 448 l 1,50,-1
 384 512 l 5,51,-1
 320 512 l 1,48,-1
EndSplineSet
Validated: 5
EndChar

StartChar: heart
Encoding: 9829 9829 253
Width: 1024
GlyphClass: 2
Flags: W
LayerCount: 2
Fore
SplineSet
64 320 m 1,0,-1
 64 576 l 1,1,-1
 128 576 l 1,2,-1
 128 640 l 1,3,-1
 192 640 l 1,4,-1
 192 704 l 1,5,-1
 320 704 l 1,6,-1
 384 704 l 1,7,-1
 384 640 l 1,8,-1
 448 640 l 1,9,-1
 448 576 l 1,10,-1
 576 576 l 1,11,-1
 576 640 l 1,12,-1
 640 640 l 1,13,-1
 640 704 l 1,14,-1
 768 704 l 1,15,-1
 832 704 l 1,16,-1
 832 640 l 1,17,-1
 896 640 l 1,18,-1
 896 576 l 1,19,-1
 960 576 l 1,20,-1
 960 320 l 1,21,-1
 896 320 l 1,22,-1
 896 256 l 1,23,-1
 832 256 l 1,24,-1
 832 192 l 1,25,-1
 768 192 l 1,26,-1
 768 128 l 1,27,-1
 704 128 l 1,28,-1
 704 64 l 1,29,-1
 640 64 l 1,30,-1
 640 0 l 1,31,-1
 576 0 l 1,32,-1
 576 -64 l 1,33,-1
 448 -64 l 1,34,-1
 448 0 l 1,35,-1
 384 0 l 1,36,-1
 384 64 l 1,37,-1
 320 64 l 1,38,-1
 320 128 l 1,39,-1
 256 128 l 1,40,-1
 256 192 l 1,41,-1
 192 192 l 1,42,-1
 192 256 l 1,43,-1
 128 256 l 1,44,-1
 128 320 l 1,45,-1
 64 320 l 1,0,-1
EndSplineSet
Validated: 1
EndChar

StartChar: diamond
Encoding: 9830 9830 254
Width: 1024
GlyphClass: 2
Flags: W
LayerCount: 2
Fore
SplineSet
64 256 m 1,0,-1
 64 384 l 1,1,-1
 128 384 l 1,2,-1
 128 448 l 1,3,-1
 192 448 l 1,4,-1
 192 512 l 1,5,-1
 256 512 l 1,6,-1
 256 576 l 1,7,-1
 320 576 l 1,8,-1
 320 640 l 1,9,-1
 384 640 l 1,10,-1
 384 704 l 1,11,-1
 448 704 l 1,12,-1
 448 768 l 1,13,-1
 576 768 l 1,14,-1
 576 704 l 1,15,-1
 640 704 l 1,16,-1
 640 640 l 1,17,-1
 704 640 l 1,18,-1
 704 576 l 1,19,-1
 768 576 l 1,20,-1
 768 512 l 1,21,-1
 832 512 l 1,22,-1
 832 448 l 1,23,-1
 896 448 l 1,24,-1
 896 384 l 1,25,-1
 960 384 l 1,26,-1
 960 256 l 1,27,-1
 896 256 l 1,28,-1
 896 192 l 1,29,-1
 832 192 l 1,30,-1
 832 128 l 1,31,-1
 768 128 l 1,32,-1
 768 64 l 1,33,-1
 704 64 l 1,34,-1
 704 0 l 1,35,-1
 640 0 l 1,36,-1
 640 -64 l 1,37,-1
 576 -64 l 1,38,-1
 576 -128 l 1,39,-1
 448 -128 l 1,40,-1
 448 -64 l 1,41,-1
 384 -64 l 1,42,-1
 384 0 l 1,43,-1
 320 0 l 1,44,-1
 320 64 l 1,45,-1
 256 64 l 1,46,-1
 256 128 l 1,47,-1
 192 128 l 1,48,-1
 192 192 l 1,49,-1
 128 192 l 1,50,-1
 128 256 l 1,51,-1
 64 256 l 1,0,-1
EndSplineSet
Validated: 1
EndChar

StartChar: musicalnote
Encoding: 9834 9834 255
Width: 1024
GlyphClass: 2
Flags: W
LayerCount: 2
Fore
SplineSet
256 64 m 1,0,-1
 256 192 l 1,1,-1
 320 192 l 1,2,-1
 320 256 l 1,3,-1
 448 256 l 1,4,-1
 448 384 l 1,5,-1
 448 448 l 1,6,-1
 448 512 l 1,7,-1
 448 640 l 1,8,-1
 448 704 l 1,9,-1
 512 704 l 1,10,-1
 512 768 l 1,11,-1
 896 768 l 1,12,-1
 896 704 l 1,13,-1
 960 704 l 1,14,-1
 960 640 l 1,15,-1
 960 512 l 1,16,-1
 960 448 l 1,17,-1
 896 448 l 1,18,-1
 896 384 l 1,19,-1
 640 384 l 1,20,-1
 640 64 l 1,21,-1
 576 64 l 1,22,-1
 576 0 l 1,23,-1
 320 0 l 1,24,-1
 320 64 l 1,25,-1
 256 64 l 1,0,-1
832 640 m 1,26,-1
 640 640 l 1,27,-1
 640 512 l 1,28,-1
 832 512 l 1,29,-1
 832 640 l 1,26,-1
EndSplineSet
Validated: 1
EndChar

StartChar: musicalnotedbl
Encoding: 9835 9835 256
Width: 1024
GlyphClass: 2
Flags: W
LayerCount: 2
Fore
SplineSet
128 -64 m 1,0,-1
 128 64 l 1,1,-1
 192 64 l 1,2,-1
 192 128 l 1,3,-1
 256 128 l 1,4,-1
 256 384 l 1,5,-1
 256 512 l 1,6,-1
 256 640 l 1,7,-1
 256 704 l 1,8,-1
 320 704 l 1,9,-1
 320 768 l 1,10,-1
 832 768 l 1,11,-1
 832 704 l 1,12,-1
 896 704 l 1,13,-1
 896 640 l 1,14,-1
 896 512 l 1,15,-1
 896 384 l 1,16,-1
 896 0 l 1,17,-1
 832 0 l 1,18,-1
 832 -64 l 1,19,-1
 768 -64 l 1,20,-1
 640 -64 l 1,21,-1
 640 0 l 1,22,-1
 576 0 l 1,23,-1
 576 128 l 1,24,-1
 640 128 l 1,25,-1
 640 192 l 1,26,-1
 704 192 l 1,27,-1
 704 384 l 1,28,-1
 448 384 l 1,29,-1
 448 128 l 1,30,-1
 448 64 l 1,31,-1
 448 -64 l 1,32,-1
 384 -64 l 1,33,-1
 384 -128 l 1,34,-1
 192 -128 l 1,35,-1
 192 -64 l 1,36,-1
 128 -64 l 1,0,-1
704 640 m 1,37,-1
 448 640 l 1,38,-1
 448 512 l 1,39,-1
 704 512 l 1,40,-1
 704 640 l 1,37,-1
EndSplineSet
Validated: 1
EndChar
